{"glyphs":{"0":{"ha":806,"x_min":0,"x_max":0,"o":"m 764 498 b 402 -10 764 150 605 -10 b 42 498 199 -10 42 150 b 402 1006 42 845 199 1006 b 764 498 605 1006 764 845 m 635 498 b 402 902 635 801 525 902 b 169 498 279 902 169 801 b 402 94 169 194 279 94 b 635 498 525 94 635 194 "},"1":{"ha":806,"x_min":0,"x_max":0,"o":"m 114 741 l 410 998 l 510 998 l 510 94 l 706 94 l 706 0 l 173 0 l 173 94 l 387 94 l 387 774 b 389 836 387 794 388 815 l 212 683 b 184 673 203 676 194 673 b 153 688 171 673 159 680 "},"2":{"ha":806,"x_min":0,"x_max":0,"o":"m 65 42 b 88 95 65 59 72 79 l 407 415 b 583 726 513 523 583 610 b 404 901 583 844 504 901 b 213 751 301 901 233 838 b 167 714 203 724 190 714 b 151 715 162 714 157 715 l 85 726 b 411 1006 111 908 241 1006 b 710 729 580 1006 710 904 b 503 369 710 581 615 480 l 240 101 b 352 117 278 111 317 117 l 685 117 b 729 74 713 117 729 100 l 729 0 l 65 0 "},"3":{"ha":806,"x_min":0,"x_max":0,"o":"m 397 -11 b 60 249 185 -11 106 101 l 113 271 b 142 277 123 275 133 277 b 183 253 160 277 175 269 b 395 94 208 202 246 94 b 604 282 534 94 604 197 b 349 465 604 388 558 465 l 349 555 b 585 731 519 557 585 628 b 408 901 585 845 508 901 b 217 751 308 901 235 838 b 172 714 208 724 194 714 b 155 715 166 714 161 715 l 90 726 b 415 1006 116 908 244 1006 b 706 752 585 1006 706 906 b 532 524 706 625 638 555 b 728 285 663 490 728 408 b 397 -11 728 102 579 -11 "},"4":{"ha":806,"x_min":0,"x_max":0,"o":"m 16 352 l 500 996 l 615 996 l 615 359 l 766 359 l 766 288 b 738 262 766 274 757 262 l 615 262 l 615 0 l 507 0 l 507 262 l 65 262 b 28 290 46 262 32 274 m 507 359 l 507 770 b 513 853 507 794 508 823 l 150 359 "},"5":{"ha":806,"x_min":0,"x_max":0,"o":"m 116 147 b 149 164 124 158 135 164 b 361 95 186 164 238 95 b 588 330 500 95 588 188 b 369 534 588 454 516 534 b 208 508 319 534 266 526 l 131 531 l 211 994 l 682 994 l 682 941 b 610 881 682 906 663 881 l 298 881 l 252 619 b 395 636 304 631 351 636 b 713 335 603 636 713 507 b 355 -11 713 125 557 -11 b 78 94 238 -11 140 39 "},"6":{"ha":806,"x_min":0,"x_max":0,"o":"m 404 -11 b 75 328 203 -11 75 122 b 196 626 75 415 112 513 l 449 965 b 515 995 462 983 485 995 l 625 995 l 329 622 b 281 559 312 600 295 579 b 451 610 328 592 385 610 b 745 313 611 610 745 503 b 404 -11 745 130 606 -11 m 410 515 b 194 307 278 515 194 417 b 402 91 194 180 270 91 b 622 303 534 91 622 181 b 410 515 622 435 536 515 "},"7":{"ha":806,"x_min":0,"x_max":0,"o":"m 75 994 l 751 994 l 751 940 b 735 876 751 908 742 890 l 323 44 b 256 0 311 19 291 0 l 167 0 l 585 822 b 624 881 597 844 610 864 l 105 881 b 75 911 89 881 75 895 "},"8":{"ha":806,"x_min":0,"x_max":0,"o":"m 403 -11 b 67 272 205 -11 67 98 b 261 519 67 402 137 484 b 102 745 156 558 102 637 b 403 1006 102 892 222 1006 b 703 745 583 1006 703 892 b 544 519 703 637 649 558 b 738 272 669 484 738 402 b 403 -11 738 98 601 -11 m 403 467 b 195 274 294 467 195 411 b 403 87 195 164 273 87 b 610 274 533 87 610 164 b 403 467 610 411 512 467 m 403 911 b 223 742 284 911 223 834 b 403 565 223 651 272 565 b 583 742 533 565 583 651 b 403 911 583 834 522 911 "},"9":{"ha":806,"x_min":0,"x_max":0,"o":"m 351 408 b 73 694 202 408 73 513 b 402 1006 73 868 208 1006 b 719 685 594 1006 719 876 b 603 379 719 572 675 483 l 360 29 b 297 0 349 12 325 0 l 183 0 l 485 397 b 539 471 506 424 523 447 b 351 408 488 430 423 408 m 401 903 b 197 703 278 903 197 820 b 392 503 197 577 272 503 b 601 700 526 503 601 597 b 401 903 601 824 517 903 "},"\u0000":{"ha":0,"x_min":0,"x_max":0,"o":""}," ":{"ha":356,"x_min":0,"x_max":0,"o":""},"!":{"ha":374,"x_min":0,"x_max":0,"o":"m 247 994 l 247 597 b 230 347 247 514 239 443 l 146 347 b 129 597 135 443 129 514 l 129 994 m 99 76 b 185 163 99 124 136 163 b 272 76 233 163 272 124 b 185 -10 272 27 233 -10 b 99 76 136 -10 99 27 "},"\"":{"ha":515,"x_min":0,"x_max":0,"o":"m 319 794 l 319 994 l 427 994 l 427 794 l 416 686 b 373 640 411 656 401 640 b 331 686 349 640 336 656 m 88 794 l 88 994 l 196 994 l 196 794 l 185 686 b 142 640 180 656 170 640 b 99 686 117 640 105 656 "},"#":{"ha":806,"x_min":0,"x_max":0,"o":"m 74 294 b 41 344 48 294 35 308 l 47 384 l 188 384 l 233 611 l 72 611 l 81 663 b 137 701 86 690 101 701 l 247 701 l 297 951 b 351 994 302 978 324 994 l 407 994 l 349 701 l 520 701 l 578 994 l 633 994 b 673 949 660 994 678 976 l 622 701 l 769 701 l 760 650 b 705 611 756 623 740 611 l 609 611 l 564 384 l 689 384 b 722 333 715 384 727 370 l 715 294 l 551 294 l 492 0 l 436 0 b 399 53 412 0 394 23 l 449 294 l 277 294 l 228 47 b 172 0 222 13 199 0 l 116 0 l 175 294 l 74 294 m 290 384 l 462 384 l 507 611 l 335 611 "},"$":{"ha":806,"x_min":0,"x_max":0,"o":"m 105 176 b 138 193 113 186 124 193 b 348 96 172 193 222 110 l 373 465 b 111 732 244 505 111 552 b 410 1004 111 869 218 997 l 417 1105 b 451 1138 417 1122 432 1138 l 497 1138 l 488 1001 b 708 894 585 990 653 949 l 678 849 b 646 828 669 835 660 828 b 481 897 619 828 573 884 l 458 560 b 731 302 590 519 731 473 b 419 -10 731 137 617 3 l 410 -132 b 376 -165 410 -149 396 -165 l 330 -165 l 340 -9 b 67 119 228 2 135 50 m 613 283 b 449 442 613 376 540 412 l 426 95 b 613 283 548 107 613 180 m 228 744 b 381 585 228 654 296 617 l 403 899 b 228 744 283 888 228 821 "},"%":{"ha":1113,"x_min":0,"x_max":0,"o":"m 502 754 b 281 508 502 599 399 508 b 61 754 156 508 61 599 b 281 1005 61 915 156 1005 b 502 754 406 1005 502 915 m 406 754 b 281 924 406 878 350 924 b 158 754 212 924 158 878 b 281 589 158 635 212 589 b 406 754 350 589 406 635 m 854 974 b 896 994 863 985 874 994 l 985 994 l 258 20 b 218 0 249 8 235 0 l 126 0 m 1053 235 b 832 -12 1053 79 949 -12 b 612 235 707 -12 612 79 b 832 485 612 395 707 485 b 1053 235 957 485 1053 395 m 956 235 b 832 404 956 359 901 404 b 709 235 763 404 709 359 b 832 69 709 115 763 69 b 956 235 901 69 956 115 "},"&":{"ha":989,"x_min":0,"x_max":0,"o":"m 61 265 b 279 553 61 394 153 499 b 196 763 222 625 196 690 b 463 1006 196 898 298 1006 b 715 794 610 1006 707 905 l 638 778 b 631 778 636 778 634 778 b 603 800 619 778 610 785 b 463 910 590 849 548 910 b 312 763 372 910 312 847 b 411 575 312 700 341 645 l 697 284 b 760 484 733 347 754 417 b 788 513 763 501 772 513 l 864 513 b 769 212 862 406 829 301 l 977 0 l 857 0 b 797 25 830 0 817 5 l 697 126 b 360 -11 610 42 496 -11 b 61 265 212 -11 61 92 m 188 275 b 381 89 188 155 284 89 b 630 194 484 89 567 130 l 335 490 b 188 275 238 438 188 362 "},"'":{"ha":283,"x_min":0,"x_max":0,"o":"m 196 994 l 196 794 l 185 686 b 142 640 180 656 170 640 b 99 686 117 640 105 656 l 88 794 l 88 994 "},"(":{"ha":371,"x_min":0,"x_max":0,"o":"m 170 437 b 319 -119 170 239 222 50 b 308 -170 333 -147 322 -161 l 253 -203 b 63 437 115 10 63 213 b 253 1076 63 662 115 863 l 308 1043 b 319 992 322 1035 333 1021 b 170 437 222 824 170 635 "},")":{"ha":371,"x_min":0,"x_max":0,"o":"m 201 437 b 52 992 201 635 149 824 b 63 1043 38 1021 49 1035 l 117 1076 b 308 437 256 863 308 662 b 117 -203 308 213 256 10 l 63 -170 b 52 -119 49 -161 38 -147 b 201 437 149 50 201 239 "},"*":{"ha":590,"x_min":0,"x_max":0,"o":"m 86 910 l 116 962 l 236 892 b 275 858 250 884 267 872 b 265 908 267 874 265 890 l 265 1046 l 326 1046 l 326 909 b 317 860 326 890 324 876 b 326 870 320 865 323 867 b 355 892 333 878 343 885 l 474 961 l 504 909 l 385 840 b 338 822 369 831 354 824 b 385 806 354 820 369 816 l 505 735 l 475 683 l 355 753 b 326 775 344 760 334 767 b 315 788 322 779 319 783 b 326 737 323 772 326 756 l 326 599 l 265 599 l 265 736 b 274 785 265 755 266 770 b 236 753 263 772 251 763 l 117 684 l 87 736 l 206 806 b 256 822 223 815 240 821 b 206 840 239 824 222 829 "},"+":{"ha":806,"x_min":0,"x_max":0,"o":"m 352 513 l 352 810 l 453 810 l 453 513 l 736 513 l 736 419 l 453 419 l 453 121 l 352 121 l 352 419 l 70 419 l 70 513 "},",":{"ha":315,"x_min":0,"x_max":0,"o":"m 156 0 b 74 85 108 0 74 35 b 157 163 74 129 107 163 b 243 65 213 163 243 120 b 111 -187 243 -17 194 -119 l 90 -168 b 81 -149 83 -162 81 -156 b 90 -130 81 -142 84 -136 b 165 1 109 -109 153 -61 b 156 0 163 0 160 0 "},"-":{"ha":516,"x_min":0,"x_max":0,"o":"m 87 469 l 430 469 l 430 364 l 87 364 "},".":{"ha":328,"x_min":0,"x_max":0,"o":"m 77 76 b 164 163 77 124 115 163 b 251 76 211 163 251 124 b 164 -10 251 27 211 -10 b 77 76 115 -10 77 27 "},"/":{"ha":628,"x_min":0,"x_max":0,"o":"m 166 -15 b 99 -62 154 -47 126 -62 l 47 -62 l 464 978 b 528 1022 475 1006 499 1022 l 581 1022 "},":":{"ha":347,"x_min":0,"x_max":0,"o":"m 87 76 b 174 163 87 124 124 163 b 260 76 221 163 260 124 b 174 -10 260 27 221 -10 b 87 76 124 -10 87 27 m 87 598 b 174 685 87 645 124 685 b 260 598 221 685 260 645 b 174 511 260 549 221 511 b 87 598 124 511 87 549 "},";":{"ha":364,"x_min":0,"x_max":0,"o":"m 179 0 b 98 85 131 0 98 35 b 181 163 98 129 131 163 b 267 65 237 163 267 120 b 135 -187 267 -17 218 -119 l 113 -168 b 104 -149 107 -162 104 -156 b 114 -130 104 -142 108 -136 b 188 1 133 -109 177 -61 b 179 0 186 0 183 0 m 94 598 b 181 685 94 645 132 685 b 268 598 228 685 268 645 b 181 511 268 549 228 511 b 94 598 132 511 94 549 "},"<":{"ha":806,"x_min":0,"x_max":0,"o":"m 113 442 l 113 493 l 649 772 l 649 683 b 624 647 649 669 643 656 l 313 489 b 249 467 294 480 274 472 b 313 445 274 462 294 456 l 624 287 b 649 251 643 278 649 267 l 649 163 "},"=":{"ha":806,"x_min":0,"x_max":0,"o":"m 104 398 l 701 398 l 701 305 l 104 305 m 701 631 l 701 538 l 104 538 l 104 631 "},">":{"ha":806,"x_min":0,"x_max":0,"o":"m 156 163 l 156 251 b 181 287 156 267 163 278 l 493 445 b 556 467 512 456 533 462 b 493 489 532 472 511 480 l 181 647 b 156 683 163 656 156 669 l 156 772 l 693 493 l 693 442 "},"?":{"ha":622,"x_min":0,"x_max":0,"o":"m 56 906 b 305 1006 113 960 194 1006 b 560 781 451 1006 560 919 b 337 453 560 569 348 546 l 324 347 l 240 347 l 231 463 b 444 774 220 588 444 603 b 294 905 444 855 378 905 b 115 838 181 905 138 838 b 89 854 104 838 95 844 m 192 76 b 278 163 192 124 229 163 b 365 76 326 163 365 124 b 278 -10 365 27 326 -10 b 192 76 229 -10 192 27 "},"@":{"ha":1162,"x_min":0,"x_max":0,"o":"m 639 -166 b 72 394 318 -166 72 42 b 610 944 72 697 310 944 b 1099 477 866 944 1099 774 b 824 129 1099 278 979 129 b 692 235 752 129 705 163 b 503 131 639 161 576 131 b 340 320 393 131 340 212 b 693 656 340 477 461 656 b 841 628 755 656 799 647 l 776 378 b 841 208 739 236 785 208 b 1010 477 932 208 1010 316 b 610 863 1010 735 836 863 b 163 394 362 863 163 662 b 639 -84 163 80 374 -84 b 965 -3 780 -84 887 -51 b 983 3 971 1 977 3 b 1005 -14 993 3 1000 -3 l 1023 -59 b 639 -166 924 -126 798 -166 m 437 323 b 528 213 437 256 467 213 b 680 366 585 213 648 245 l 733 571 b 674 577 715 575 695 577 b 437 323 535 577 437 451 "},"A":{"ha":940,"x_min":0,"x_max":0,"o":"m 4 0 l 402 995 l 538 995 l 936 0 l 832 0 b 786 32 808 0 794 13 l 693 273 l 247 273 l 154 32 b 108 0 148 16 131 0 m 285 369 l 656 369 l 499 776 b 470 868 490 800 479 832 b 441 775 460 832 450 799 "},"B":{"ha":898,"x_min":0,"x_max":0,"o":"m 444 995 b 795 735 689 995 795 897 b 609 513 795 640 734 551 b 828 283 753 485 828 408 b 479 0 828 115 701 0 l 127 0 l 127 995 m 262 106 l 477 106 b 696 287 631 106 696 181 b 476 454 696 390 624 454 l 262 454 m 262 890 l 262 549 l 440 549 b 661 719 592 549 661 619 b 444 890 661 836 592 890 "},"C":{"ha":928,"x_min":0,"x_max":0,"o":"m 826 206 b 846 197 833 206 840 203 l 899 139 b 540 -11 817 44 704 -11 b 66 498 254 -11 66 197 b 553 1006 66 798 264 1006 b 883 881 694 1006 801 958 l 840 818 b 810 803 833 810 826 803 b 552 890 778 803 722 890 b 203 498 347 890 203 743 b 548 104 203 250 354 104 b 803 194 667 104 734 133 b 826 206 810 201 817 206 "},"D":{"ha":1056,"x_min":0,"x_max":0,"o":"m 990 497 b 499 0 990 199 792 0 l 127 0 l 127 994 l 499 994 b 990 497 792 994 990 795 m 851 497 b 499 886 851 742 713 886 l 263 886 l 263 108 l 499 108 b 851 497 713 108 851 253 "},"E":{"ha":802,"x_min":0,"x_max":0,"o":"m 740 994 l 740 885 l 263 885 l 263 555 l 649 555 l 649 449 l 263 449 l 263 109 l 741 109 l 740 0 l 127 0 l 127 994 "},"F":{"ha":785,"x_min":0,"x_max":0,"o":"m 740 994 l 740 885 l 263 885 l 263 537 l 671 537 l 671 428 l 263 428 l 263 0 l 127 0 l 127 994 "},"G":{"ha":1015,"x_min":0,"x_max":0,"o":"m 590 -11 b 65 497 269 -11 65 197 b 574 1006 65 801 263 1006 b 926 881 732 1006 843 958 l 888 820 b 858 801 881 808 871 801 b 833 808 849 801 841 803 b 570 890 789 834 724 890 b 203 497 345 890 203 739 b 585 97 203 247 351 97 b 814 156 678 97 746 119 l 814 376 l 660 376 b 631 402 641 376 631 388 l 631 478 l 935 478 l 935 97 b 590 -11 835 24 724 -11 "},"H":{"ha":1060,"x_min":0,"x_max":0,"o":"m 263 994 l 263 551 l 799 551 l 799 994 l 934 994 l 934 -1 l 799 -1 l 799 453 l 263 453 l 263 -1 l 127 -1 l 127 994 "},"I":{"ha":514,"x_min":0,"x_max":0,"o":"m 40 994 l 474 994 l 474 902 l 325 902 l 325 92 l 474 92 l 474 -1 l 40 -1 l 40 92 l 190 92 l 190 902 l 40 902 "},"J":{"ha":587,"x_min":0,"x_max":0,"o":"m 470 344 b 157 -11 470 121 359 -11 b 16 8 112 -11 65 -5 b 24 87 19 34 22 61 b 54 113 26 103 35 113 b 143 101 71 113 97 101 b 335 340 265 101 335 173 l 335 994 l 470 994 "},"K":{"ha":920,"x_min":0,"x_max":0,"o":"m 127 994 l 262 994 l 262 559 l 312 559 b 384 588 347 559 365 567 l 715 963 b 781 994 734 988 751 994 l 896 994 l 516 567 b 463 522 497 544 481 531 b 526 472 488 513 508 499 l 922 0 l 806 0 b 744 28 770 0 758 10 l 401 424 b 323 456 382 447 366 456 l 262 456 l 262 0 l 127 0 "},"L":{"ha":713,"x_min":0,"x_max":0,"o":"m 127 994 l 262 994 l 262 113 l 692 113 l 692 0 l 127 0 "},"M":{"ha":1290,"x_min":0,"x_max":0,"o":"m 226 994 b 273 972 251 994 261 994 l 617 359 b 648 287 628 337 639 312 b 680 360 658 313 668 338 l 1017 972 b 1063 994 1028 994 1039 994 l 1163 994 l 1163 0 l 1044 0 l 1044 733 b 1048 797 1044 751 1046 774 l 706 174 b 658 144 696 154 679 144 l 638 144 b 590 174 617 144 600 154 l 242 799 b 245 733 244 775 245 752 l 245 0 l 127 0 l 127 994 "},"N":{"ha":1060,"x_min":0,"x_max":0,"o":"m 127 994 l 197 994 b 243 972 220 994 228 992 l 819 220 b 815 289 817 244 815 267 l 815 994 l 933 994 l 933 0 l 865 0 b 818 24 844 0 831 7 l 242 775 b 245 710 244 752 245 729 l 245 0 l 127 0 "},"O":{"ha":1112,"x_min":0,"x_max":0,"o":"m 1047 498 b 556 -10 1047 199 849 -10 b 65 498 265 -10 65 199 b 556 1006 65 796 265 1006 b 1047 498 849 1006 1047 796 m 908 498 b 556 890 908 742 770 890 b 203 498 343 890 203 742 b 556 106 203 253 343 106 b 908 498 770 106 908 253 "},"P":{"ha":834,"x_min":0,"x_max":0,"o":"m 127 995 l 421 995 b 792 687 673 995 792 875 b 421 372 792 503 661 372 l 262 372 l 262 0 l 127 0 m 262 890 l 262 478 l 421 478 b 658 687 574 478 658 564 b 421 890 658 815 580 890 "},"Q":{"ha":1112,"x_min":0,"x_max":0,"o":"m 65 498 b 556 1006 65 796 265 1006 b 1047 498 849 1006 1047 796 b 838 70 1047 310 969 157 l 1093 -206 l 982 -206 b 902 -174 949 -206 924 -197 l 727 16 b 556 -10 674 -1 617 -10 b 65 498 265 -10 65 199 m 203 498 b 556 106 203 253 343 106 b 908 498 770 106 908 253 b 556 890 908 742 770 890 b 203 498 343 890 203 742 "},"R":{"ha":870,"x_min":0,"x_max":0,"o":"m 127 995 l 408 995 b 773 719 660 995 773 890 b 528 438 773 578 681 473 b 572 395 545 428 560 414 l 863 0 l 743 0 b 689 28 719 0 701 10 l 431 384 b 364 415 415 407 401 415 l 262 415 l 262 0 l 127 0 m 262 890 l 262 513 l 403 513 b 642 710 559 513 642 593 b 408 890 642 829 564 890 "},"S":{"ha":753,"x_min":0,"x_max":0,"o":"m 636 840 b 605 819 628 826 618 819 b 398 895 573 819 525 895 b 214 740 278 895 214 826 b 691 302 214 516 691 629 b 358 -11 691 127 569 -11 b 46 119 228 -11 120 39 l 84 183 b 116 200 92 193 103 200 b 362 100 153 200 209 100 b 565 283 490 100 565 174 b 88 733 565 524 88 380 b 397 1006 88 874 199 1006 b 669 903 508 1006 599 970 "},"T":{"ha":820,"x_min":0,"x_max":0,"o":"m 800 994 l 800 883 l 478 883 l 478 0 l 344 0 l 344 883 l 21 883 l 21 994 "},"U":{"ha":1022,"x_min":0,"x_max":0,"o":"m 249 994 l 249 391 b 511 106 249 224 347 106 b 773 390 676 106 773 224 l 773 994 l 908 994 l 908 390 b 511 -12 908 160 756 -12 b 115 390 266 -12 115 160 l 115 994 "},"V":{"ha":940,"x_min":0,"x_max":0,"o":"m 4 994 l 112 994 b 158 963 136 994 150 982 l 438 260 b 472 151 450 229 463 191 b 503 260 481 191 491 229 l 783 963 b 828 994 789 979 806 994 l 936 994 l 531 0 l 410 0 "},"W":{"ha":1438,"x_min":0,"x_max":0,"o":"m 22 994 l 133 994 b 179 963 158 994 174 982 l 385 270 b 403 184 392 244 398 216 b 425 270 410 217 417 246 l 658 963 b 704 994 664 979 681 994 l 743 994 b 789 963 767 994 781 982 l 1022 270 b 1044 188 1031 246 1038 218 b 1061 270 1049 218 1055 246 l 1267 963 b 1312 994 1272 980 1289 994 l 1417 994 l 1106 0 l 985 0 l 733 760 b 720 810 728 774 725 792 b 706 760 715 792 711 774 l 453 0 l 332 0 "},"X":{"ha":901,"x_min":0,"x_max":0,"o":"m 14 0 l 357 510 l 28 994 l 162 994 b 196 976 181 994 188 988 l 456 578 b 471 609 460 588 465 599 l 715 974 b 747 994 724 987 733 994 l 875 994 l 545 517 l 887 0 l 753 0 b 715 26 733 0 722 13 l 448 443 b 435 415 444 433 440 424 l 176 26 b 139 0 167 13 158 0 "},"Y":{"ha":867,"x_min":0,"x_max":0,"o":"m 1 994 l 119 994 b 166 964 144 994 156 983 l 394 577 b 435 489 410 544 424 517 b 474 577 445 517 458 544 l 701 964 b 747 994 709 980 724 994 l 865 994 l 501 397 l 501 0 l 366 0 l 366 397 "},"Z":{"ha":836,"x_min":0,"x_max":0,"o":"m 37 52 b 50 92 37 67 42 80 l 615 885 l 63 885 l 63 994 l 792 994 l 792 945 b 777 901 792 931 787 915 l 214 109 l 783 109 l 783 0 l 37 0 "},"[":{"ha":425,"x_min":0,"x_max":0,"o":"m 382 1065 l 382 1017 b 347 983 382 998 367 983 l 230 983 l 230 -119 l 347 -119 b 382 -152 367 -119 382 -133 l 382 -200 l 126 -200 l 126 1065 "},"\\":{"ha":628,"x_min":0,"x_max":0,"o":"m 47 1022 l 99 1022 b 164 978 129 1022 153 1006 l 581 -62 l 529 -62 b 462 -15 502 -62 474 -47 "},"]":{"ha":425,"x_min":0,"x_max":0,"o":"m 298 1065 l 298 -200 l 43 -200 l 43 -152 b 77 -119 43 -133 57 -119 l 194 -119 l 194 983 l 77 983 b 43 1017 57 983 43 998 l 43 1065 "},"^":{"ha":806,"x_min":0,"x_max":0,"o":"m 92 483 l 361 994 l 441 994 l 714 483 l 624 483 b 590 507 608 483 596 494 l 430 815 b 402 883 418 840 408 863 b 377 815 396 861 388 840 l 222 507 b 186 483 217 494 205 483 "},"_":{"ha":638,"x_min":0,"x_max":0,"o":"m 592 -115 l 592 -198 l 45 -198 l 45 -115 "},"`":{"ha":556,"x_min":0,"x_max":0,"o":"m 208 1006 b 263 976 239 1006 250 997 l 367 808 l 296 808 b 253 827 276 808 267 813 l 91 1006 "},"a":{"ha":690,"x_min":0,"x_max":0,"o":"m 45 176 b 479 395 45 289 160 388 l 479 450 b 340 616 479 559 431 616 b 139 542 219 616 181 542 b 102 565 122 542 110 551 l 80 604 b 355 715 158 678 246 715 b 600 450 513 715 600 608 l 600 0 l 545 0 b 502 29 521 0 510 6 l 488 96 b 243 -11 415 28 351 -11 b 45 176 134 -11 45 50 m 479 317 b 164 182 251 310 164 259 b 279 76 164 107 215 76 b 479 171 366 76 423 113 l 479 317 "},"b":{"ha":778,"x_min":0,"x_max":0,"o":"m 99 0 l 99 1022 l 222 1022 l 222 601 b 451 714 281 670 354 714 b 719 370 617 714 719 584 b 417 -10 719 142 603 -10 b 216 90 324 -10 265 26 l 210 26 b 178 0 206 9 196 0 m 222 170 b 386 86 269 108 322 86 b 591 365 519 86 591 180 b 410 616 591 538 526 616 b 222 510 330 616 273 577 "},"c":{"ha":663,"x_min":0,"x_max":0,"o":"m 588 578 b 562 563 581 568 575 563 b 397 619 534 563 501 619 b 185 353 258 619 185 517 b 390 86 185 183 265 86 b 570 156 511 86 538 156 b 594 144 581 156 589 151 l 629 99 b 369 -10 568 24 471 -10 b 58 353 194 -10 58 123 b 390 715 58 562 176 715 b 621 624 489 715 563 681 "},"d":{"ha":778,"x_min":0,"x_max":0,"o":"m 326 -10 b 60 349 164 -10 60 115 b 364 716 60 557 174 716 b 556 633 450 716 508 686 l 556 1023 l 680 1023 l 680 0 l 606 0 b 573 26 589 0 578 8 l 562 111 b 326 -10 501 39 426 -10 m 392 620 b 188 349 260 620 188 522 b 367 90 188 166 253 90 b 556 197 447 90 506 128 l 556 537 b 392 620 511 598 458 620 "},"e":{"ha":733,"x_min":0,"x_max":0,"o":"m 58 367 b 386 714 58 563 181 714 b 680 401 555 714 680 600 b 650 352 680 362 673 352 l 180 352 b 403 88 185 174 269 88 b 610 156 527 88 579 156 b 634 144 621 156 628 151 l 669 99 b 393 -10 608 24 494 -10 b 58 367 199 -10 58 124 m 569 428 b 389 624 569 543 502 624 b 184 428 269 624 201 551 "},"f":{"ha":487,"x_min":0,"x_max":0,"o":"m 66 608 b 33 639 46 611 33 620 l 33 690 l 144 690 l 144 758 b 385 1010 144 919 238 1010 b 472 996 416 1010 445 1005 l 469 934 b 426 915 467 915 452 915 l 406 915 b 264 754 320 915 264 874 l 264 690 l 467 690 l 467 600 l 267 600 l 267 0 l 144 0 l 144 599 l 66 608 "},"g":{"ha":722,"x_min":0,"x_max":0,"o":"m 43 -67 b 165 78 43 2 90 51 b 98 178 124 97 98 126 b 187 299 98 218 129 269 b 76 488 117 338 76 403 b 343 715 76 626 188 715 b 501 676 404 715 457 701 l 692 676 l 692 631 b 663 601 692 615 683 605 l 583 590 b 606 488 599 560 606 526 b 343 262 606 351 496 262 b 250 274 310 262 279 266 b 204 212 219 255 204 235 b 681 -18 204 78 681 242 b 351 -253 681 -138 557 -253 b 43 -67 144 -253 43 -165 m 566 -38 b 240 59 566 66 378 40 b 151 -51 188 34 151 -1 b 353 -164 151 -115 216 -164 b 566 -38 486 -164 566 -112 m 190 485 b 343 343 190 402 244 343 b 496 485 443 343 496 401 b 343 627 496 572 442 627 b 190 485 244 627 190 571 "},"h":{"ha":775,"x_min":0,"x_max":0,"o":"m 98 1022 l 222 1022 l 222 609 b 448 714 282 673 353 714 b 683 448 603 714 683 608 l 683 0 l 560 0 l 560 448 b 412 616 560 554 512 616 b 222 517 339 616 275 578 l 222 0 l 98 0 "},"i":{"ha":333,"x_min":0,"x_max":0,"o":"m 228 703 l 228 0 l 105 0 l 105 703 m 255 925 b 165 838 255 877 213 838 b 79 925 119 838 79 877 b 165 1013 79 974 119 1013 b 255 925 213 1013 255 974 "},"j":{"ha":333,"x_min":0,"x_max":0,"o":"m 228 703 l 228 -53 b 30 -253 228 -164 172 -253 b -49 -239 -1 -253 -24 -248 l -44 -173 b -22 -159 -42 -161 -36 -159 b 5 -160 -15 -159 -7 -160 b 105 -53 77 -160 105 -128 l 105 703 m 254 925 b 165 838 254 877 213 838 b 78 925 118 838 78 877 b 165 1013 78 974 118 1013 b 254 925 213 1013 254 974 "},"k":{"ha":706,"x_min":0,"x_max":0,"o":"m 98 1022 l 222 1022 l 222 420 l 254 420 b 297 440 273 420 283 424 l 519 678 b 569 703 533 694 546 703 l 681 703 l 422 427 b 382 391 410 412 397 400 b 423 347 399 380 411 366 l 698 0 l 588 0 b 540 24 566 0 551 6 l 310 313 b 258 337 295 333 285 337 l 222 337 l 222 0 l 98 0 "},"l":{"ha":328,"x_min":0,"x_max":0,"o":"m 226 1022 l 226 0 l 102 0 l 102 1022 "},"m":{"ha":1142,"x_min":0,"x_max":0,"o":"m 172 703 b 205 678 190 703 201 694 l 214 606 b 414 714 267 668 328 714 b 592 569 508 714 567 658 b 817 714 633 671 725 714 b 1051 448 965 714 1051 617 l 1051 0 l 928 0 l 928 448 b 788 616 928 558 878 616 b 636 448 706 616 636 559 l 636 0 l 512 0 l 512 448 b 378 616 512 561 465 616 b 222 524 317 616 266 581 l 222 0 l 98 0 l 98 703 "},"n":{"ha":775,"x_min":0,"x_max":0,"o":"m 172 703 b 205 678 190 703 201 694 l 215 601 b 448 714 276 668 349 714 b 683 448 603 714 683 608 l 683 0 l 560 0 l 560 448 b 413 616 560 554 512 616 b 222 518 340 616 275 579 l 222 0 l 98 0 l 98 703 "},"o":{"ha":788,"x_min":0,"x_max":0,"o":"m 394 715 b 729 353 600 715 729 574 b 394 -10 729 131 600 -10 b 58 353 189 -10 58 131 b 394 715 58 574 189 715 m 394 87 b 601 352 533 87 601 185 b 394 618 601 519 533 618 b 186 352 254 618 186 519 b 394 87 186 185 255 87 "},"p":{"ha":778,"x_min":0,"x_max":0,"o":"m 99 -238 l 99 703 l 173 703 b 206 677 190 703 201 694 l 217 594 b 453 715 276 667 352 715 b 719 356 615 715 719 590 b 415 -10 719 149 605 -10 b 222 73 328 -10 270 20 l 222 -238 m 222 170 b 387 86 269 108 320 86 b 591 356 518 86 591 184 b 412 616 591 540 526 616 b 222 510 331 616 273 577 "},"q":{"ha":778,"x_min":0,"x_max":0,"o":"m 326 -10 b 60 349 163 -10 60 115 b 364 716 60 557 174 716 b 565 623 456 716 517 682 l 574 678 b 606 703 578 695 589 703 l 680 703 l 680 -238 l 556 -238 l 556 105 b 326 -10 498 36 423 -10 m 392 620 b 188 349 260 620 188 522 b 367 90 188 166 253 90 b 556 197 447 90 506 128 l 556 537 b 392 620 512 597 458 620 "},"r":{"ha":506,"x_min":0,"x_max":0,"o":"m 98 0 l 98 703 l 169 703 b 207 670 196 703 203 694 l 215 563 b 415 716 260 659 323 716 b 494 697 446 716 474 710 l 486 604 b 465 587 483 592 476 587 b 394 595 451 587 425 595 b 222 443 303 595 258 541 l 222 0 "},"s":{"ha":601,"x_min":0,"x_max":0,"o":"m 508 588 b 482 572 501 577 493 572 b 318 622 454 572 415 622 b 183 520 235 622 183 577 b 547 215 183 376 547 442 b 281 -11 547 86 452 -11 b 47 75 183 -11 102 24 l 76 122 b 108 140 83 133 92 140 b 288 77 142 140 175 77 b 431 194 385 77 431 131 b 65 510 431 349 65 268 b 315 714 65 619 156 714 b 535 633 408 714 482 683 "},"t":{"ha":498,"x_min":0,"x_max":0,"o":"m 30 676 l 145 691 l 174 908 b 202 932 176 922 186 932 l 265 932 l 265 690 l 467 690 l 467 600 l 265 600 l 265 177 b 341 90 265 118 297 90 b 430 124 394 90 415 124 b 448 112 438 124 442 119 l 484 53 b 313 -11 442 13 378 -11 b 141 169 203 -11 141 52 l 141 600 l 56 600 b 30 627 42 600 30 610 "},"u":{"ha":774,"x_min":0,"x_max":0,"o":"m 215 703 l 215 255 b 363 87 215 149 263 87 b 553 185 435 87 499 124 l 553 703 l 676 703 l 676 0 l 603 0 b 569 26 585 0 574 8 l 560 102 b 326 -11 499 33 425 -11 b 91 255 173 -11 91 96 l 91 703 "},"v":{"ha":717,"x_min":0,"x_max":0,"o":"m 16 703 l 117 703 b 155 678 137 703 150 692 l 333 224 b 360 126 344 190 352 158 b 387 224 367 158 375 190 l 568 678 b 604 703 573 692 587 703 l 701 703 l 414 0 l 303 0 "},"w":{"ha":1091,"x_min":0,"x_max":0,"o":"m 120 703 b 158 678 140 703 153 692 l 293 224 b 312 130 301 191 307 160 b 339 224 320 160 328 192 l 488 681 b 521 705 492 697 505 705 l 575 705 b 610 681 592 705 605 697 l 756 224 b 781 130 766 192 774 160 b 801 224 786 160 793 191 l 939 678 b 975 703 944 692 958 703 l 1068 703 l 840 0 l 742 0 b 717 24 731 0 722 8 l 562 501 b 546 566 554 523 551 544 b 530 501 541 544 538 523 l 372 24 b 344 0 367 8 358 0 l 251 0 l 23 703 "},"x":{"ha":692,"x_min":0,"x_max":0,"o":"m 16 0 l 263 360 l 26 703 l 144 703 b 179 684 165 703 172 696 l 352 420 b 369 459 356 433 361 446 l 521 682 b 552 703 529 695 538 703 l 666 703 l 429 367 l 676 0 l 557 0 b 519 26 537 0 526 13 l 342 301 b 327 265 338 288 333 276 l 163 26 b 126 0 154 13 145 0 "},"y":{"ha":716,"x_min":0,"x_max":0,"o":"m 15 703 l 122 703 b 160 678 143 703 155 691 l 348 233 b 367 172 356 213 362 192 b 388 234 373 194 380 214 l 570 678 b 607 703 576 692 591 703 l 705 703 l 313 -208 b 268 -238 304 -226 294 -238 l 176 -238 l 305 41 "},"z":{"ha":628,"x_min":0,"x_max":0,"o":"m 40 0 l 40 51 b 57 96 40 63 46 81 l 440 607 l 62 607 l 62 703 l 583 703 l 583 651 b 567 604 583 634 577 616 l 185 97 l 570 97 l 570 0 "},"{":{"ha":418,"x_min":0,"x_max":0,"o":"m 47 469 b 142 569 109 469 142 510 b 107 846 142 662 107 751 b 335 1065 107 974 184 1065 l 372 1065 l 372 1010 b 344 983 372 991 356 983 l 331 983 b 215 853 258 983 215 934 b 247 571 215 749 247 664 b 142 432 247 502 203 449 b 247 294 203 415 247 363 b 215 11 247 203 215 115 b 331 -119 215 -69 258 -119 l 344 -119 b 372 -145 356 -119 372 -126 l 372 -200 l 335 -200 b 107 19 184 -200 107 -110 b 142 295 107 114 142 203 b 47 395 142 354 109 395 l 47 469 "},"|":{"ha":348,"x_min":0,"x_max":0,"o":"m 126 1065 l 222 1065 l 222 -242 l 126 -242 "},"}":{"ha":418,"x_min":0,"x_max":0,"o":"m 46 -200 l 46 -145 b 74 -119 46 -126 63 -119 l 88 -119 b 203 11 160 -119 203 -69 b 171 294 203 115 171 203 b 276 433 171 363 215 416 b 171 571 215 449 171 501 b 203 853 171 664 203 749 b 88 983 203 934 160 983 l 74 983 b 46 1010 63 983 46 991 l 46 1065 l 83 1065 b 312 846 235 1065 312 974 b 276 569 312 751 276 662 b 372 469 276 510 310 469 l 372 395 b 276 295 310 395 276 354 b 312 19 276 203 312 114 b 83 -200 312 -110 235 -200 "},"~":{"ha":806,"x_min":0,"x_max":0,"o":"m 530 425 b 626 533 590 425 626 467 l 726 533 b 538 323 726 408 657 323 b 280 396 441 323 347 396 b 183 288 219 396 184 353 l 83 288 b 272 498 83 413 153 498 b 530 425 369 498 463 425 "},"¡":{"ha":350,"x_min":0,"x_max":0,"o":"m 117 -237 l 117 138 b 133 388 117 222 124 292 l 217 388 b 235 138 228 293 235 222 l 235 -237 m 87 628 b 173 715 87 677 124 715 b 260 628 221 715 260 677 b 173 541 260 581 221 541 b 87 628 124 541 87 581 "},"¢":{"ha":806,"x_min":0,"x_max":0,"o":"m 391 -8 b 97 352 219 11 97 141 b 441 714 97 556 221 706 l 449 838 b 484 872 451 855 464 872 l 530 872 l 519 710 b 704 624 594 699 655 668 l 672 580 b 647 565 666 571 660 565 b 512 615 624 565 591 602 l 476 85 b 657 153 592 93 628 153 b 681 142 667 153 675 148 l 714 98 b 469 -8 658 32 569 -2 l 460 -130 b 426 -163 458 -147 446 -163 l 380 -163 m 434 619 b 219 352 293 608 219 510 b 397 90 219 202 285 111 "},"£":{"ha":806,"x_min":0,"x_max":0,"o":"m 33 427 l 33 467 b 76 510 33 490 49 510 l 169 510 l 169 692 b 473 1006 169 865 269 1006 b 741 833 617 1006 697 929 l 691 801 b 663 793 681 796 672 793 b 628 811 649 793 638 799 b 473 900 593 860 556 900 b 296 692 356 900 296 819 l 296 510 l 602 510 l 602 460 b 566 427 602 443 588 427 l 296 427 l 296 258 b 222 99 296 189 268 140 b 302 107 249 103 274 107 l 772 107 l 772 54 b 718 0 772 29 751 0 l 49 0 l 49 80 b 169 226 111 100 169 140 l 169 427 "},"¤":{"ha":806,"x_min":0,"x_max":0,"o":"m 92 713 l 155 776 l 260 670 b 403 715 301 699 349 715 b 544 672 456 715 503 699 l 649 778 l 712 715 l 606 610 b 651 467 635 569 651 520 b 608 327 651 414 635 367 l 714 221 l 651 158 l 546 263 b 403 219 504 235 456 219 b 263 262 350 219 303 235 l 156 156 l 94 219 l 200 324 b 155 467 172 365 155 413 b 198 608 155 519 171 567 m 247 467 b 403 310 247 381 317 310 b 560 467 490 310 560 381 b 403 624 560 554 490 624 b 247 467 317 624 247 554 "},"¥":{"ha":806,"x_min":0,"x_max":0,"o":"m 34 994 l 138 994 b 183 963 162 994 176 983 l 376 570 b 404 487 389 539 398 513 b 431 570 410 514 417 539 l 622 963 b 667 994 630 980 644 994 l 772 994 l 488 434 l 701 434 l 701 363 l 465 363 l 465 290 l 701 290 l 701 219 l 465 219 l 465 0 l 341 0 l 341 219 l 105 219 l 105 290 l 341 290 l 341 363 l 105 363 l 105 434 l 318 434 "},"¦":{"ha":352,"x_min":0,"x_max":0,"o":"m 224 314 l 224 -238 l 128 -238 l 128 314 m 128 513 l 128 1065 l 224 1065 l 224 513 "},"§":{"ha":688,"x_min":0,"x_max":0,"o":"m 70 485 b 195 651 70 558 109 617 b 116 801 148 686 116 732 b 367 1005 116 910 207 1005 b 587 924 459 1005 532 974 l 559 878 b 533 863 551 868 545 863 b 369 913 505 863 467 913 b 226 807 280 913 226 865 b 618 452 226 667 618 677 b 506 282 618 377 583 316 b 583 140 552 248 583 203 b 317 -87 583 10 488 -87 b 83 -1 219 -87 138 -51 l 111 46 b 144 65 119 58 128 65 b 328 1 178 65 211 1 b 475 119 422 1 475 50 b 70 485 475 288 70 249 m 510 424 b 263 610 510 525 374 554 b 180 504 203 582 180 549 b 440 322 180 410 324 381 b 510 424 490 346 510 381 "},"¨":{"ha":556,"x_min":0,"x_max":0,"o":"m 224 894 b 144 818 224 853 187 818 b 67 894 103 818 67 853 b 144 974 67 938 103 974 b 224 894 187 974 224 938 m 488 894 b 410 818 488 853 452 818 b 332 894 367 818 332 853 b 410 974 332 938 367 974 b 488 894 452 974 488 938 "},"©":{"ha":1155,"x_min":0,"x_max":0,"o":"m 756 328 b 774 321 763 328 769 326 l 816 276 b 581 181 763 215 688 181 b 277 499 399 181 277 313 b 594 817 277 686 413 817 b 814 731 694 817 760 783 l 782 686 b 759 674 777 681 770 674 b 599 724 733 674 708 724 b 388 499 469 724 388 638 b 587 274 388 355 472 274 b 756 328 683 274 709 306 m 70 497 b 578 1006 70 778 298 1006 b 1085 497 858 1006 1085 778 b 578 -10 1085 217 858 -10 b 70 497 298 -10 70 217 m 140 497 b 578 53 140 249 333 53 b 1017 497 822 53 1017 249 b 578 945 1017 747 822 945 b 140 497 333 945 140 747 "},"ª":{"ha":510,"x_min":0,"x_max":0,"o":"m 69 689 b 331 822 69 753 135 819 l 331 848 b 252 933 331 906 305 933 b 134 894 182 933 164 894 b 107 911 121 894 113 903 l 92 940 b 263 1006 140 985 195 1006 b 419 848 362 1006 419 940 l 419 583 l 378 583 b 347 603 360 583 354 587 l 338 638 b 193 577 294 598 256 577 b 69 689 124 577 69 615 m 331 765 b 156 694 201 760 156 733 b 220 640 156 655 184 640 b 331 691 267 640 299 658 l 331 765 "},"«":{"ha":596,"x_min":0,"x_max":0,"o":"m 69 376 l 242 646 l 283 626 b 296 574 304 616 308 596 l 185 393 b 166 367 179 382 172 374 b 185 342 172 363 179 354 l 296 161 b 283 109 308 139 304 119 l 242 90 l 69 360 m 275 376 l 448 646 l 488 626 b 501 574 510 616 513 596 l 391 393 b 372 367 385 382 378 374 b 391 342 378 363 385 354 l 501 161 b 488 109 513 139 510 119 l 448 90 l 275 360 "},"¬":{"ha":806,"x_min":0,"x_max":0,"o":"m 103 513 l 701 513 l 701 219 l 595 219 l 595 419 l 103 419 "},"®":{"ha":1155,"x_min":0,"x_max":0,"o":"m 70 498 b 577 1006 70 777 298 1006 b 1085 498 858 1006 1085 777 b 577 -10 1085 218 858 -10 b 70 498 298 -10 70 218 m 577 945 b 140 498 333 945 140 746 b 577 53 140 249 333 53 b 1017 498 823 53 1017 250 b 577 945 1017 746 822 945 m 569 808 b 804 637 729 808 804 749 b 656 463 804 550 754 486 b 693 421 672 453 683 440 l 851 189 l 749 189 b 715 206 733 189 722 194 l 574 417 b 533 435 566 428 557 435 l 477 435 l 477 189 l 369 189 l 369 808 m 477 514 l 558 514 b 697 623 661 514 697 553 b 569 725 697 692 665 725 l 477 725 "},"¯":{"ha":556,"x_min":0,"x_max":0,"o":"m 78 935 l 477 935 l 477 855 l 78 855 "},"°":{"ha":576,"x_min":0,"x_max":0,"o":"m 62 783 b 288 1006 62 908 160 1006 b 515 783 414 1006 515 908 b 288 560 515 661 414 560 b 62 783 160 560 62 661 m 150 783 b 288 644 150 705 210 644 b 426 783 366 644 426 705 b 288 923 426 861 366 923 b 150 783 210 923 150 861 "},"±":{"ha":806,"x_min":0,"x_max":0,"o":"m 69 572 l 351 572 l 351 834 l 452 834 l 452 572 l 735 572 l 735 479 l 452 479 l 452 224 l 351 224 l 351 479 l 69 479 m 735 149 l 735 56 l 69 56 l 69 149 "},"²":{"ha":464,"x_min":0,"x_max":0,"o":"m 51 655 b 67 692 51 667 56 681 l 220 844 b 303 990 267 890 303 940 b 231 1064 303 1038 272 1064 b 149 1001 188 1064 163 1040 b 119 981 142 988 135 981 b 107 982 116 981 112 981 l 57 990 b 235 1137 72 1088 140 1137 b 394 993 333 1137 394 1079 b 290 813 394 919 344 867 l 177 698 b 240 708 199 703 222 708 l 376 708 b 406 678 395 708 406 697 l 406 625 l 51 625 "},"³":{"ha":464,"x_min":0,"x_max":0,"o":"m 230 619 b 49 754 126 619 77 667 l 88 770 b 108 774 95 773 102 774 b 136 759 122 774 131 769 b 225 694 145 741 162 694 b 313 772 283 694 313 734 b 197 853 313 827 283 853 l 197 912 b 306 991 276 914 306 943 b 232 1063 306 1038 276 1063 b 151 1001 188 1063 162 1038 b 123 981 144 985 138 981 b 110 981 118 981 115 981 l 64 990 b 237 1137 78 1087 147 1137 b 392 1006 331 1137 392 1080 b 310 887 392 947 365 907 b 403 776 372 869 403 833 b 230 619 403 674 319 619 "},"´":{"ha":556,"x_min":0,"x_max":0,"o":"m 480 1006 l 318 827 b 275 808 305 813 294 808 l 201 808 l 304 976 b 359 1006 317 997 329 1006 "},"µ":{"ha":902,"x_min":0,"x_max":0,"o":"m 125 703 l 249 703 l 249 277 b 397 106 249 172 298 106 b 588 237 481 106 545 153 l 588 703 l 711 703 l 711 190 b 813 85 711 118 751 85 l 853 85 l 853 35 b 769 -7 853 14 822 -7 b 604 135 691 -7 624 38 b 390 3 549 51 478 3 b 234 68 320 3 269 26 b 242 -44 240 29 242 -11 l 242 -238 l 180 -238 b 125 -185 144 -238 125 -219 "},"¶":{"ha":973,"x_min":0,"x_max":0,"o":"m 361 459 b 49 728 169 459 49 579 b 361 995 49 887 169 995 l 924 995 l 924 890 l 772 890 l 772 -139 l 663 -139 l 663 890 l 470 890 l 470 -139 l 361 -139 l 361 459 "},"·":{"ha":361,"x_min":0,"x_max":0,"o":"m 77 413 b 180 517 77 470 124 517 b 284 413 238 517 284 470 b 180 310 284 356 238 310 b 77 413 124 310 77 356 "},"¸":{"ha":556,"x_min":0,"x_max":0,"o":"m 180 -187 b 196 -176 183 -180 188 -176 b 263 -192 207 -176 224 -192 b 322 -150 302 -192 322 -174 b 210 -95 322 -114 282 -104 l 248 17 l 318 17 l 298 -52 b 420 -151 384 -69 420 -101 b 269 -248 420 -211 358 -248 b 168 -226 231 -248 197 -240 "},"¹":{"ha":464,"x_min":0,"x_max":0,"o":"m 227 1133 l 302 1133 l 302 684 l 392 684 l 392 625 l 110 625 l 110 684 l 212 684 l 212 990 l 215 1021 l 140 958 b 122 952 135 954 130 952 b 100 963 112 952 105 957 l 72 1001 "},"º":{"ha":558,"x_min":0,"x_max":0,"o":"m 281 1006 b 494 792 410 1006 494 924 b 281 575 494 659 410 575 b 65 792 150 575 65 659 b 281 1006 65 924 150 1006 m 281 649 b 397 791 358 649 397 699 b 281 933 397 883 358 933 b 163 791 200 933 163 883 b 281 649 163 699 200 649 "},"»":{"ha":597,"x_min":0,"x_max":0,"o":"m 108 109 b 96 161 87 119 83 139 l 206 342 b 226 368 213 353 218 363 b 206 393 218 373 213 382 l 96 574 b 108 626 83 596 87 616 l 149 646 l 322 376 l 322 360 l 149 90 m 314 109 b 301 161 292 119 288 139 l 411 342 b 431 368 419 353 424 363 b 411 393 424 373 419 382 l 301 574 b 314 626 288 596 292 616 l 354 646 l 527 376 l 527 360 l 354 90 "},"¼":{"ha":1019,"x_min":0,"x_max":0,"o":"m 803 506 l 890 506 l 890 185 l 965 185 l 965 140 b 947 122 965 131 958 122 l 890 122 l 890 0 l 814 0 l 814 122 l 601 122 b 573 142 585 122 575 131 l 565 181 m 742 953 b 808 994 758 980 778 994 l 862 994 l 290 37 b 226 0 272 8 253 0 l 174 0 m 60 864 l 215 996 l 290 996 l 290 547 l 381 547 l 381 488 l 98 488 l 98 547 l 200 547 l 200 853 l 203 884 l 128 822 b 110 815 124 817 118 815 b 88 826 100 815 93 820 m 814 185 l 814 353 b 818 413 814 372 815 391 l 649 185 "},"½":{"ha":1008,"x_min":0,"x_max":0,"o":"m 714 953 b 780 994 730 980 750 994 l 833 994 l 262 37 b 198 0 243 8 225 0 l 145 0 m 590 30 b 605 67 590 42 594 56 l 758 219 b 842 365 805 265 842 315 b 769 439 842 413 810 439 b 688 376 726 439 701 415 b 658 356 680 363 674 356 b 645 357 654 356 650 356 l 595 365 b 774 512 610 463 678 512 b 933 368 871 512 933 454 b 828 188 933 294 883 242 l 715 73 b 778 83 737 78 760 83 l 914 83 b 944 53 933 83 944 72 l 944 0 l 590 0 m 217 996 l 292 996 l 292 547 l 382 547 l 382 488 l 99 488 l 99 547 l 201 547 l 201 853 l 205 884 l 130 822 b 112 815 125 817 119 815 b 90 826 101 815 94 820 l 62 864 "},"¾":{"ha":1031,"x_min":0,"x_max":0,"o":"m 815 506 l 901 506 l 901 185 l 977 185 l 977 140 b 958 122 977 131 970 122 l 901 122 l 901 0 l 826 0 l 826 122 l 613 122 b 585 142 597 122 587 131 l 577 181 m 758 953 b 824 994 774 980 794 994 l 878 994 l 306 37 b 242 0 288 8 269 0 l 190 0 m 100 633 b 120 638 107 636 114 638 b 148 622 133 638 143 633 b 237 558 157 604 174 558 b 324 635 294 558 324 597 b 208 716 324 690 295 716 l 208 775 b 318 854 288 777 318 806 b 244 926 318 901 288 926 b 163 865 199 926 174 901 b 135 844 156 849 149 844 b 122 844 130 844 127 844 l 76 853 b 249 1000 90 950 158 1000 b 404 869 342 1000 404 943 b 322 750 404 810 377 770 b 415 640 384 733 415 696 b 242 483 415 537 331 483 b 61 617 138 483 89 530 m 826 185 l 826 353 b 830 413 826 372 827 391 l 661 185 "},"¿":{"ha":612,"x_min":0,"x_max":0,"o":"m 561 -148 b 313 -247 504 -201 424 -247 b 58 -26 167 -247 58 -163 b 281 281 58 185 270 189 l 294 388 l 378 388 l 387 272 b 174 -15 398 141 174 151 b 324 -147 174 -97 240 -147 b 502 -80 435 -147 480 -80 b 528 -96 514 -80 523 -85 m 252 627 b 338 714 252 676 290 714 b 425 627 385 714 425 676 b 338 540 425 578 385 540 b 252 627 290 540 252 578 "},"À":{"ha":940,"x_min":0,"x_max":0,"o":"m 4 0 l 402 995 l 538 995 l 936 0 l 832 0 b 786 32 808 0 794 13 l 693 273 l 247 273 l 154 32 b 108 0 148 16 131 0 m 656 369 l 499 776 b 470 868 490 800 479 832 b 441 775 460 832 450 799 l 285 369 m 215 1286 l 347 1286 b 406 1264 378 1286 390 1284 l 564 1074 l 475 1074 b 432 1087 455 1074 446 1074 "},"Á":{"ha":940,"x_min":0,"x_max":0,"o":"m 4 0 l 402 995 l 538 995 l 936 0 l 832 0 b 786 32 808 0 794 13 l 693 273 l 247 273 l 154 32 b 108 0 148 16 131 0 m 656 369 l 499 776 b 470 868 490 800 479 832 b 441 775 460 832 450 799 l 285 369 m 374 1074 l 535 1264 b 593 1286 549 1284 563 1286 l 733 1286 l 506 1088 b 463 1074 492 1074 481 1074 "},"Â":{"ha":940,"x_min":0,"x_max":0,"o":"m 402 995 l 538 995 l 936 0 l 832 0 b 786 32 808 0 794 13 l 693 273 l 247 273 l 154 32 b 108 0 148 16 131 0 l 4 0 m 285 369 l 656 369 l 499 776 b 470 868 490 800 479 832 b 441 775 460 832 450 799 m 250 1074 l 416 1262 l 527 1262 l 692 1074 l 602 1074 b 559 1094 591 1074 575 1075 l 478 1192 l 469 1204 l 461 1192 l 380 1094 b 337 1074 364 1075 348 1074 "},"Ã":{"ha":940,"x_min":0,"x_max":0,"o":"m 4 0 l 402 995 l 538 995 l 936 0 l 832 0 b 786 32 808 0 794 13 l 693 273 l 247 273 l 154 32 b 108 0 148 16 131 0 m 285 369 l 656 369 l 499 776 b 470 868 490 800 479 832 b 441 775 460 832 450 799 m 250 1075 b 377 1227 250 1155 297 1227 b 557 1154 461 1227 505 1154 b 622 1224 599 1154 622 1190 l 698 1224 b 571 1072 698 1144 653 1072 b 391 1145 488 1072 442 1145 b 327 1075 349 1145 327 1108 "},"Ä":{"ha":940,"x_min":0,"x_max":0,"o":"m 4 0 l 402 995 l 538 995 l 936 0 l 832 0 b 786 32 808 0 794 13 l 693 273 l 247 273 l 154 32 b 108 0 148 16 131 0 m 285 369 l 656 369 l 499 776 b 470 868 490 800 479 832 b 441 775 460 832 450 799 m 538 1157 b 615 1234 538 1199 574 1234 b 691 1157 656 1234 691 1199 b 615 1082 691 1116 656 1082 b 538 1157 574 1082 538 1116 m 323 1082 b 248 1157 284 1082 248 1116 b 323 1234 248 1199 284 1234 b 401 1157 365 1234 401 1199 b 323 1082 401 1116 365 1082 "},"Å":{"ha":940,"x_min":0,"x_max":0,"o":"m 4 0 l 402 995 l 538 995 l 936 0 l 832 0 b 786 32 808 0 794 13 l 693 273 l 247 273 l 154 32 b 108 0 148 16 131 0 m 285 369 l 656 369 l 499 776 b 470 868 490 800 479 832 b 441 775 460 832 450 799 m 469 1057 b 339 1178 400 1057 339 1107 b 469 1301 339 1251 400 1301 b 603 1178 542 1301 603 1251 b 469 1057 603 1107 542 1057 m 401 1178 b 472 1108 401 1137 427 1108 b 541 1178 513 1108 541 1137 b 472 1249 541 1220 513 1249 b 401 1178 427 1249 401 1220 "},"Æ":{"ha":1292,"x_min":0,"x_max":0,"o":"m -4 0 l 521 994 l 1231 994 l 1231 885 l 711 885 l 752 555 l 1140 555 l 1140 449 l 765 449 l 808 109 l 1231 109 l 1231 0 l 694 0 l 660 273 l 274 273 l 149 31 b 98 0 140 13 122 0 m 649 369 l 583 894 b 544 794 571 856 558 824 l 324 369 "},"Ç":{"ha":928,"x_min":0,"x_max":0,"o":"m 503 -10 b 66 498 238 8 66 210 b 553 1006 66 798 264 1006 b 883 881 694 1006 801 958 l 840 818 b 810 803 833 810 826 803 b 552 890 778 803 722 890 b 203 498 347 890 203 743 b 548 104 203 250 354 104 b 803 194 667 104 734 133 b 826 206 810 201 817 206 b 846 197 833 206 840 203 l 899 139 b 574 -10 823 51 720 -3 l 562 -52 b 684 -151 648 -69 684 -101 b 533 -248 684 -211 622 -248 b 432 -226 495 -248 460 -240 l 444 -187 b 460 -176 447 -180 452 -176 b 527 -192 471 -176 488 -192 b 586 -150 566 -192 586 -174 b 474 -95 586 -114 546 -104 l 503 -10 "},"È":{"ha":802,"x_min":0,"x_max":0,"o":"m 127 994 l 740 994 l 740 885 l 263 885 l 263 555 l 649 555 l 649 449 l 263 449 l 263 109 l 741 109 l 740 0 l 127 0 m 188 1286 l 319 1286 b 378 1264 350 1286 362 1284 l 536 1074 l 447 1074 b 404 1087 427 1074 418 1074 "},"É":{"ha":802,"x_min":0,"x_max":0,"o":"m 740 994 l 740 885 l 263 885 l 263 555 l 649 555 l 649 449 l 263 449 l 263 109 l 741 109 l 740 0 l 127 0 l 127 994 m 346 1074 l 507 1264 b 565 1286 522 1284 535 1286 l 705 1286 l 478 1088 b 435 1074 465 1074 453 1074 "},"Ê":{"ha":802,"x_min":0,"x_max":0,"o":"m 740 994 l 740 885 l 263 885 l 263 555 l 649 555 l 649 449 l 263 449 l 263 109 l 741 109 l 740 0 l 127 0 l 127 994 m 389 1262 l 500 1262 l 665 1074 l 575 1074 b 532 1094 564 1074 548 1075 l 451 1192 l 442 1204 l 434 1192 l 353 1094 b 310 1074 337 1075 321 1074 l 223 1074 "},"Ë":{"ha":802,"x_min":0,"x_max":0,"o":"m 127 0 l 127 994 l 740 994 l 740 885 l 263 885 l 263 555 l 649 555 l 649 449 l 263 449 l 263 109 l 741 109 l 740 0 m 511 1157 b 588 1234 511 1199 547 1234 b 664 1157 628 1234 664 1199 b 588 1082 664 1116 628 1082 b 511 1157 547 1082 511 1116 m 221 1157 b 296 1234 221 1199 257 1234 b 374 1157 338 1234 374 1199 b 296 1082 374 1116 338 1082 b 221 1157 257 1082 221 1116 "},"Ì":{"ha":514,"x_min":0,"x_max":0,"o":"m 40 994 l 474 994 l 474 902 l 325 902 l 325 92 l 474 92 l 474 -1 l 40 -1 l 40 92 l 190 92 l 190 902 l 40 902 m 74 1297 l 191 1297 b 246 1267 222 1297 233 1289 l 349 1099 l 278 1099 b 236 1119 259 1099 249 1105 "},"Í":{"ha":514,"x_min":0,"x_max":0,"o":"m 252 92 l 252 902 l 103 902 l 103 994 l 537 994 l 537 902 l 388 902 l 388 92 l 537 92 l 537 -1 l 103 -1 l 103 92 m 163 1074 l 324 1264 b 382 1286 338 1284 351 1286 l 522 1286 l 295 1088 b 251 1074 281 1074 270 1074 "},"Î":{"ha":514,"x_min":0,"x_max":0,"o":"m 40 994 l 474 994 l 474 902 l 325 902 l 325 92 l 474 92 l 474 -1 l 40 -1 l 40 92 l 190 92 l 190 902 l 40 902 m 45 1103 l 201 1286 l 315 1286 l 470 1103 l 388 1103 b 356 1117 377 1103 367 1106 l 271 1208 b 260 1222 267 1213 263 1217 b 248 1208 255 1217 251 1212 l 162 1117 b 131 1103 152 1108 142 1103 "},"Ï":{"ha":514,"x_min":0,"x_max":0,"o":"m 40 902 l 40 994 l 474 994 l 474 902 l 325 902 l 325 92 l 474 92 l 474 -1 l 40 -1 l 40 92 l 190 92 l 190 902 m 312 1186 b 390 1265 312 1229 347 1265 b 468 1186 432 1265 468 1229 b 390 1110 468 1145 432 1110 b 312 1186 347 1110 312 1145 m 124 1110 b 47 1186 83 1110 47 1145 b 124 1265 47 1229 83 1265 b 203 1186 167 1265 203 1229 b 124 1110 203 1145 167 1110 "},"Ð":{"ha":1067,"x_min":0,"x_max":0,"o":"m 138 541 l 138 994 l 510 994 b 1001 497 803 994 1001 795 b 510 0 1001 199 803 0 l 138 0 l 138 463 l 2 463 l 2 541 m 510 108 b 863 497 724 108 863 253 b 510 886 863 742 724 886 l 274 886 l 274 541 l 475 541 l 475 463 l 274 463 l 274 108 "},"Ñ":{"ha":1060,"x_min":0,"x_max":0,"o":"m 127 0 l 127 994 l 197 994 b 243 972 220 994 228 992 l 819 220 b 815 289 817 244 815 267 l 815 994 l 933 994 l 933 0 l 865 0 b 818 24 844 0 831 7 l 242 775 b 245 710 244 752 245 729 l 245 0 m 321 1074 b 448 1226 321 1154 367 1226 b 628 1153 532 1226 576 1153 b 693 1223 670 1153 693 1189 l 769 1223 b 642 1072 769 1143 724 1072 b 462 1144 558 1072 513 1144 b 398 1074 420 1144 398 1108 l 321 1074 "},"Ò":{"ha":1112,"x_min":0,"x_max":0,"o":"m 1047 498 b 556 -10 1047 199 849 -10 b 65 498 265 -10 65 199 b 556 1006 65 796 265 1006 b 1047 498 849 1006 1047 796 m 908 498 b 556 890 908 742 770 890 b 203 498 343 890 203 742 b 556 106 203 253 343 106 b 908 498 770 106 908 253 m 434 1286 b 492 1264 465 1286 476 1284 l 651 1074 l 562 1074 b 519 1087 542 1074 533 1074 l 302 1286 "},"Ó":{"ha":1112,"x_min":0,"x_max":0,"o":"m 1047 498 b 556 -10 1047 199 849 -10 b 65 498 265 -10 65 199 b 556 1006 65 796 265 1006 b 1047 498 849 1006 1047 796 m 908 498 b 556 890 908 742 770 890 b 203 498 343 890 203 742 b 556 106 203 253 343 106 b 908 498 770 106 908 253 m 819 1286 l 593 1088 b 549 1074 579 1074 568 1074 l 460 1074 l 622 1264 b 680 1286 636 1284 649 1286 "},"Ô":{"ha":1112,"x_min":0,"x_max":0,"o":"m 556 -10 b 65 498 265 -10 65 199 b 556 1006 65 796 265 1006 b 1047 498 849 1006 1047 796 b 556 -10 1047 199 849 -10 m 556 890 b 203 498 343 890 203 742 b 556 106 203 253 343 106 b 908 498 770 106 908 253 b 556 890 908 742 770 890 m 338 1074 l 503 1262 l 615 1262 l 780 1074 l 690 1074 b 647 1094 678 1074 663 1075 l 565 1192 l 557 1204 l 549 1192 l 467 1094 b 424 1074 451 1075 435 1074 "},"Õ":{"ha":1112,"x_min":0,"x_max":0,"o":"m 1047 498 b 556 -10 1047 199 849 -10 b 65 498 265 -10 65 199 b 556 1006 65 796 265 1006 b 1047 498 849 1006 1047 796 m 908 498 b 556 890 908 742 770 890 b 203 498 343 890 203 742 b 556 106 203 253 343 106 b 908 498 770 106 908 253 m 644 1154 b 710 1224 687 1154 710 1190 l 785 1224 b 658 1072 785 1144 740 1072 b 478 1145 575 1072 530 1145 b 415 1075 437 1145 415 1108 l 338 1075 b 465 1227 338 1155 384 1227 b 644 1154 549 1227 592 1154 "},"Ö":{"ha":1112,"x_min":0,"x_max":0,"o":"m 1047 498 b 556 -10 1047 199 849 -10 b 65 498 265 -10 65 199 b 556 1006 65 796 265 1006 b 1047 498 849 1006 1047 796 m 908 498 b 556 890 908 742 770 890 b 203 498 343 890 203 742 b 556 106 203 253 343 106 b 908 498 770 106 908 253 m 488 1157 b 410 1082 488 1116 452 1082 b 335 1157 372 1082 335 1116 b 410 1234 335 1199 372 1234 b 488 1157 452 1234 488 1199 m 778 1157 b 702 1082 778 1116 743 1082 b 626 1157 661 1082 626 1116 b 702 1234 626 1199 661 1234 b 778 1157 743 1234 778 1199 "},"×":{"ha":806,"x_min":0,"x_max":0,"o":"m 338 466 l 98 706 l 164 772 l 403 533 l 642 771 l 708 704 l 470 466 l 716 220 l 650 154 l 404 400 l 156 153 l 90 219 "},"Ø":{"ha":1112,"x_min":0,"x_max":0,"o":"m 228 106 b 65 498 125 197 65 332 b 556 1006 65 796 265 1006 b 833 928 663 1006 756 978 l 890 1006 b 947 1040 908 1031 917 1040 l 1017 1040 l 898 877 b 1047 498 992 786 1047 656 b 556 -10 1047 199 849 -10 b 296 57 457 -10 370 13 l 226 -37 b 150 -75 206 -65 177 -75 l 96 -75 m 761 831 b 556 890 706 869 637 890 b 203 498 343 890 203 742 b 303 206 203 373 239 275 m 367 154 b 556 106 421 122 484 106 b 908 498 770 106 908 253 b 822 774 908 614 878 708 "},"Ù":{"ha":1022,"x_min":0,"x_max":0,"o":"m 115 994 l 249 994 l 249 391 b 511 106 249 224 347 106 b 773 390 676 106 773 224 l 773 994 l 908 994 l 908 390 b 511 -12 908 160 756 -12 b 115 390 266 -12 115 160 m 256 1286 l 388 1286 b 447 1264 419 1286 431 1284 l 605 1074 l 516 1074 b 473 1087 496 1074 487 1074 "},"Ú":{"ha":1022,"x_min":0,"x_max":0,"o":"m 249 994 l 249 391 b 511 106 249 224 347 106 b 773 390 676 106 773 224 l 773 994 l 908 994 l 908 390 b 511 -12 908 160 756 -12 b 115 390 266 -12 115 160 l 115 994 m 415 1074 l 576 1264 b 634 1286 590 1284 603 1286 l 774 1286 l 547 1088 b 503 1074 533 1074 522 1074 "},"Û":{"ha":1022,"x_min":0,"x_max":0,"o":"m 511 -12 b 115 390 266 -12 115 160 l 115 994 l 249 994 l 249 391 b 511 106 249 224 347 106 b 773 390 676 106 773 224 l 773 994 l 908 994 l 908 390 b 511 -12 908 160 756 -12 m 292 1074 l 458 1262 l 569 1262 l 734 1074 l 644 1074 b 601 1094 633 1074 617 1075 l 519 1192 l 511 1204 l 503 1192 l 422 1094 b 378 1074 406 1075 390 1074 "},"Ü":{"ha":1022,"x_min":0,"x_max":0,"o":"m 115 994 l 249 994 l 249 391 b 511 106 249 224 347 106 b 773 390 676 106 773 224 l 773 994 l 908 994 l 908 390 b 511 -12 908 160 756 -12 b 115 390 266 -12 115 160 m 580 1157 b 656 1234 580 1199 615 1234 b 733 1157 697 1234 733 1199 b 656 1082 733 1116 697 1082 b 580 1157 615 1082 580 1116 m 365 1082 b 290 1157 326 1082 290 1116 b 365 1234 290 1199 326 1234 b 442 1157 406 1234 442 1199 b 365 1082 442 1116 406 1082 "},"Ý":{"ha":867,"x_min":0,"x_max":0,"o":"m 1 994 l 119 994 b 166 964 144 994 156 983 l 394 577 b 435 489 410 544 424 517 b 474 577 445 517 458 544 l 701 964 b 747 994 709 980 724 994 l 865 994 l 501 397 l 501 0 l 366 0 l 366 397 m 338 1074 l 499 1264 b 558 1286 514 1284 527 1286 l 697 1286 l 471 1088 b 427 1074 457 1074 446 1074 "},"Þ":{"ha":831,"x_min":0,"x_max":0,"o":"m 262 994 l 262 811 l 421 811 b 792 503 673 811 792 691 b 421 189 792 319 661 189 l 262 189 l 262 0 l 127 0 l 127 994 m 262 706 l 262 295 l 421 295 b 658 503 574 295 658 381 b 421 706 658 631 580 706 "},"ß":{"ha":806,"x_min":0,"x_max":0,"o":"m 436 1010 b 713 792 627 1010 713 885 b 512 519 713 626 512 609 b 762 218 512 408 762 434 b 503 -11 762 75 650 -11 b 285 75 414 -11 340 24 l 314 122 b 347 140 322 133 331 140 b 515 77 381 140 415 77 b 646 199 595 77 646 130 b 383 494 646 355 383 311 b 593 792 383 644 593 657 b 431 919 593 851 549 919 b 222 685 305 919 222 841 l 222 0 l 98 0 l 98 689 b 436 1010 98 881 233 1010 "},"à":{"ha":690,"x_min":0,"x_max":0,"o":"m 45 176 b 479 395 45 289 160 388 l 479 450 b 340 616 479 559 431 616 b 139 542 219 616 181 542 b 102 565 122 542 110 551 l 80 604 b 355 715 158 678 246 715 b 600 450 513 715 600 608 l 600 0 l 545 0 b 502 29 521 0 510 6 l 488 96 b 243 -11 415 28 351 -11 b 45 176 134 -11 45 50 m 164 182 b 279 76 164 107 215 76 b 479 171 366 76 423 113 l 479 317 b 164 182 251 310 164 259 m 270 1006 b 325 976 301 1006 312 997 l 428 808 l 358 808 b 315 827 338 808 328 813 l 153 1006 "},"á":{"ha":690,"x_min":0,"x_max":0,"o":"m 45 176 b 479 395 45 289 160 388 l 479 450 b 340 616 479 559 431 616 b 139 542 219 616 181 542 b 102 565 122 542 110 551 l 80 604 b 355 715 158 678 246 715 b 600 450 513 715 600 608 l 600 0 l 545 0 b 502 29 521 0 510 6 l 488 96 b 243 -11 415 28 351 -11 b 45 176 134 -11 45 50 m 479 317 b 164 182 251 310 164 259 b 279 76 164 107 215 76 b 479 171 366 76 423 113 l 479 317 m 366 976 b 421 1006 379 997 391 1006 l 542 1006 l 380 827 b 337 808 367 813 356 808 l 263 808 "},"â":{"ha":690,"x_min":0,"x_max":0,"o":"m 45 176 b 479 395 45 289 160 388 l 479 450 b 340 616 479 559 431 616 b 139 542 219 616 181 542 b 102 565 122 542 110 551 l 80 604 b 355 715 158 678 246 715 b 600 450 513 715 600 608 l 600 0 l 545 0 b 502 29 521 0 510 6 l 488 96 b 243 -11 415 28 351 -11 b 45 176 134 -11 45 50 m 164 182 b 279 76 164 107 215 76 b 479 171 366 76 423 113 l 479 317 b 164 182 251 310 164 259 m 127 812 l 283 994 l 397 994 l 552 812 l 469 812 b 438 825 459 812 449 815 l 353 917 b 342 930 349 922 345 925 b 330 917 337 925 333 920 l 244 825 b 213 812 234 816 224 812 "},"ã":{"ha":690,"x_min":0,"x_max":0,"o":"m 243 -11 b 45 176 134 -11 45 50 b 479 395 45 289 160 388 l 479 450 b 340 616 479 559 431 616 b 139 542 219 616 181 542 b 102 565 122 542 110 551 l 80 604 b 355 715 158 678 246 715 b 600 450 513 715 600 608 l 600 0 l 545 0 b 502 29 521 0 510 6 l 488 96 b 243 -11 415 28 351 -11 m 479 317 b 164 182 251 310 164 259 b 279 76 164 107 215 76 b 479 171 366 76 423 113 l 479 317 m 139 835 b 263 983 139 922 190 983 b 416 919 328 983 374 919 b 468 980 450 919 467 940 l 544 980 b 421 832 544 892 495 832 b 267 896 356 832 310 896 b 216 835 234 896 217 876 l 139 835 "},"ä":{"ha":690,"x_min":0,"x_max":0,"o":"m 45 176 b 479 395 45 289 160 388 l 479 450 b 340 616 479 559 431 616 b 139 542 219 616 181 542 b 102 565 122 542 110 551 l 80 604 b 355 715 158 678 246 715 b 600 450 513 715 600 608 l 600 0 l 545 0 b 502 29 521 0 510 6 l 488 96 b 243 -11 415 28 351 -11 b 45 176 134 -11 45 50 m 164 182 b 279 76 164 107 215 76 b 479 171 366 76 423 113 l 479 317 b 164 182 251 310 164 259 m 472 818 b 394 894 429 818 394 853 b 472 974 394 938 429 974 b 550 894 514 974 550 938 b 472 818 550 853 514 818 m 206 818 b 129 894 165 818 129 853 b 206 974 129 938 165 974 b 285 894 249 974 285 938 b 206 818 285 853 249 818 "},"å":{"ha":690,"x_min":0,"x_max":0,"o":"m 243 -11 b 45 176 134 -11 45 50 b 479 395 45 289 160 388 l 479 450 b 340 616 479 559 431 616 b 139 542 219 616 181 542 b 102 565 122 542 110 551 l 80 604 b 355 715 158 678 246 715 b 600 450 513 715 600 608 l 600 0 l 545 0 b 502 29 521 0 510 6 l 488 96 b 243 -11 415 28 351 -11 m 164 182 b 279 76 164 107 215 76 b 479 171 366 76 423 113 l 479 317 b 164 182 251 310 164 259 m 340 785 b 201 913 265 785 201 838 b 340 1043 201 990 265 1043 b 480 913 415 1043 480 990 b 340 785 480 838 415 785 m 271 913 b 341 844 271 872 297 844 b 410 913 383 844 410 872 b 341 983 410 955 383 983 b 271 913 297 983 271 955 "},"æ":{"ha":1118,"x_min":0,"x_max":0,"o":"m 263 -11 b 47 186 135 -11 47 53 b 481 415 47 297 161 408 l 481 450 b 342 620 481 560 433 620 b 140 542 220 620 183 542 b 103 565 124 542 112 552 l 81 604 b 344 716 159 679 239 716 b 551 583 455 716 521 666 b 793 715 601 664 682 715 b 1063 386 945 715 1063 594 b 1034 338 1063 348 1057 338 l 597 338 b 803 88 604 170 684 88 b 995 152 933 88 965 152 b 1021 140 1007 152 1016 148 l 1053 99 b 792 -10 992 24 888 -10 b 540 149 683 -10 592 42 b 263 -11 490 35 373 -11 m 166 192 b 292 76 166 111 217 76 b 481 280 397 76 481 143 l 481 338 b 166 192 252 330 166 269 m 953 415 b 789 624 953 535 892 624 b 598 415 676 624 611 545 "},"ç":{"ha":664,"x_min":0,"x_max":0,"o":"m 337 -8 b 58 353 178 6 58 137 b 389 715 58 562 176 715 b 620 624 488 715 562 681 l 588 578 b 561 563 580 568 574 563 b 397 619 533 563 501 619 b 185 353 258 619 185 517 b 390 86 185 183 265 86 b 570 156 510 86 537 156 b 593 144 580 156 588 151 l 628 99 b 408 -8 576 33 495 0 l 396 -52 b 517 -151 482 -69 517 -101 b 367 -248 517 -211 456 -248 b 266 -226 329 -248 294 -240 l 278 -187 b 294 -176 281 -180 286 -176 b 360 -192 304 -176 322 -192 b 419 -150 399 -192 419 -174 b 308 -95 419 -114 378 -104 "},"è":{"ha":733,"x_min":0,"x_max":0,"o":"m 58 367 b 386 714 58 563 181 714 b 680 401 555 714 680 600 b 650 352 680 362 673 352 l 180 352 b 403 88 185 174 269 88 b 610 156 527 88 579 156 b 634 144 621 156 628 151 l 669 99 b 393 -10 608 24 494 -10 b 58 367 199 -10 58 124 m 569 428 b 389 624 569 543 502 624 b 184 428 269 624 201 551 m 319 1006 b 374 976 350 1006 361 997 l 478 808 l 407 808 b 365 827 388 808 378 813 l 202 1006 "},"é":{"ha":733,"x_min":0,"x_max":0,"o":"m 58 367 b 386 714 58 563 181 714 b 680 401 555 714 680 600 b 650 352 680 362 673 352 l 180 352 b 403 88 185 174 269 88 b 610 156 527 88 579 156 b 634 144 621 156 628 151 l 669 99 b 393 -10 608 24 494 -10 b 58 367 199 -10 58 124 m 569 428 b 389 624 569 543 502 624 b 184 428 269 624 201 551 m 591 1006 l 429 827 b 386 808 416 813 406 808 l 313 808 l 415 976 b 470 1006 428 997 440 1006 "},"ê":{"ha":733,"x_min":0,"x_max":0,"o":"m 393 -10 b 58 367 199 -10 58 124 b 386 714 58 563 181 714 b 680 401 555 714 680 600 b 650 352 680 362 673 352 l 180 352 b 403 88 185 174 269 88 b 610 156 527 88 579 156 b 634 144 621 156 628 151 l 669 99 b 393 -10 608 24 494 -10 m 389 624 b 184 428 269 624 201 551 l 569 428 b 389 624 569 543 502 624 m 176 812 l 332 994 l 447 994 l 601 812 l 519 812 b 488 825 508 812 498 815 l 402 917 b 391 930 399 922 394 925 b 379 917 386 925 383 920 l 293 825 b 262 812 283 816 273 812 "},"ë":{"ha":733,"x_min":0,"x_max":0,"o":"m 58 367 b 386 714 58 563 181 714 b 680 401 555 714 680 600 b 650 352 680 362 673 352 l 180 352 b 403 88 185 174 269 88 b 610 156 527 88 579 156 b 634 144 621 156 628 151 l 669 99 b 393 -10 608 24 494 -10 b 58 367 199 -10 58 124 m 569 428 b 389 624 569 543 502 624 b 184 428 269 624 201 551 m 335 894 b 256 818 335 853 298 818 b 178 894 215 818 178 853 b 256 974 178 938 215 974 b 335 894 298 974 335 938 m 599 894 b 521 818 599 853 563 818 b 443 894 478 818 443 853 b 521 974 443 938 478 974 b 599 894 563 974 599 938 "},"ì":{"ha":333,"x_min":0,"x_max":0,"o":"m 228 703 l 228 0 l 104 0 l 104 703 m 101 1006 b 156 976 131 1006 142 997 l 259 808 l 188 808 b 146 827 169 808 159 813 l -17 1006 "},"í":{"ha":333,"x_min":0,"x_max":0,"o":"m 228 703 l 228 0 l 105 0 l 105 703 m 372 1006 l 210 827 b 167 808 197 813 187 808 l 94 808 l 197 976 b 251 1006 210 997 222 1006 "},"î":{"ha":333,"x_min":0,"x_max":0,"o":"m 228 703 l 228 0 l 104 0 l 104 703 m -42 812 l 113 994 l 228 994 l 383 812 l 300 812 b 269 825 290 812 279 815 l 183 917 b 172 930 180 922 176 925 b 160 917 167 925 164 920 l 74 825 b 43 812 65 816 54 812 "},"ï":{"ha":333,"x_min":0,"x_max":0,"o":"m 228 703 l 228 0 l 104 0 l 104 703 m 140 894 b 61 818 140 853 103 818 b -17 894 19 818 -17 853 b 61 974 -17 938 19 974 b 140 894 103 974 140 938 m 357 894 b 278 818 357 853 321 818 b 200 894 235 818 200 853 b 278 974 200 938 235 974 b 357 894 321 974 357 938 "},"ð":{"ha":786,"x_min":0,"x_max":0,"o":"m 57 324 b 367 644 57 497 175 644 b 605 524 461 644 546 605 b 444 795 586 650 533 736 l 317 701 l 293 740 b 303 783 283 756 286 773 l 376 833 b 233 881 333 853 286 867 b 207 939 212 887 195 906 l 222 982 b 469 896 310 968 394 940 l 585 981 l 610 941 b 600 899 620 925 616 910 l 533 853 b 719 419 644 762 719 624 b 380 -9 719 156 603 -9 b 57 324 199 -9 57 117 m 180 323 b 383 87 180 172 272 87 b 603 392 515 87 597 187 b 391 548 573 472 506 548 b 180 323 253 548 180 449 "},"ñ":{"ha":775,"x_min":0,"x_max":0,"o":"m 98 0 l 98 703 l 172 703 b 205 678 190 703 201 694 l 215 601 b 448 714 276 668 349 714 b 683 448 603 714 683 608 l 683 0 l 560 0 l 560 448 b 413 616 560 554 512 616 b 222 518 340 616 275 579 l 222 0 m 191 835 b 315 983 191 922 242 983 b 468 919 381 983 426 919 b 520 980 502 919 519 940 l 596 980 b 473 832 596 892 547 832 b 319 896 408 832 363 896 b 268 835 286 896 269 876 l 191 835 "},"ò":{"ha":788,"x_min":0,"x_max":0,"o":"m 394 715 b 729 353 600 715 729 574 b 394 -10 729 131 600 -10 b 58 353 189 -10 58 131 b 394 715 58 574 189 715 m 394 87 b 601 352 533 87 601 185 b 394 618 601 519 533 618 b 186 352 254 618 186 519 b 394 87 186 185 255 87 m 326 1006 b 381 976 356 1006 367 997 l 484 808 l 413 808 b 371 827 394 808 384 813 l 208 1006 "},"ó":{"ha":788,"x_min":0,"x_max":0,"o":"m 394 715 b 729 353 600 715 729 574 b 394 -10 729 131 600 -10 b 58 353 189 -10 58 131 b 394 715 58 574 189 715 m 394 87 b 601 352 533 87 601 185 b 394 618 601 519 533 618 b 186 352 254 618 186 519 b 394 87 186 185 255 87 m 597 1006 l 435 827 b 392 808 422 813 412 808 l 319 808 l 422 976 b 476 1006 435 997 447 1006 "},"ô":{"ha":788,"x_min":0,"x_max":0,"o":"m 58 353 b 394 715 58 574 189 715 b 729 353 600 715 729 574 b 394 -10 729 131 600 -10 b 58 353 189 -10 58 131 m 186 352 b 394 87 186 185 255 87 b 601 352 533 87 601 185 b 394 618 601 519 533 618 b 186 352 254 618 186 519 m 183 812 l 338 994 l 453 994 l 608 812 l 525 812 b 494 825 515 812 504 815 l 408 917 b 397 930 405 922 401 925 b 385 917 392 925 389 920 l 299 825 b 268 812 290 816 279 812 "},"õ":{"ha":788,"x_min":0,"x_max":0,"o":"m 394 715 b 729 353 600 715 729 574 b 394 -10 729 131 600 -10 b 58 353 189 -10 58 131 b 394 715 58 574 189 715 m 394 87 b 601 352 533 87 601 185 b 394 618 601 519 533 618 b 186 352 254 618 186 519 b 394 87 186 185 255 87 m 472 919 b 524 980 506 919 523 940 l 599 980 b 476 832 599 892 551 832 b 323 896 412 832 366 896 b 272 835 290 896 272 876 l 194 835 b 318 983 194 922 245 983 b 472 919 384 983 429 919 "},"ö":{"ha":788,"x_min":0,"x_max":0,"o":"m 394 715 b 729 353 600 715 729 574 b 394 -10 729 131 600 -10 b 58 353 189 -10 58 131 b 394 715 58 574 189 715 m 394 87 b 601 352 533 87 601 185 b 394 618 601 519 533 618 b 186 352 254 618 186 519 b 394 87 186 185 255 87 m 341 894 b 262 818 341 853 304 818 b 185 894 221 818 185 853 b 262 974 185 938 221 974 b 341 894 304 974 341 938 m 606 894 b 527 818 606 853 569 818 b 449 894 485 818 449 853 b 527 974 449 938 485 974 b 606 894 569 974 606 938 "},"÷":{"ha":806,"x_min":0,"x_max":0,"o":"m 69 513 l 735 513 l 735 419 l 69 419 m 315 713 b 402 800 315 760 353 800 b 489 713 449 800 489 760 b 402 626 489 664 449 626 b 315 713 353 626 315 664 m 315 219 b 402 306 315 266 353 306 b 489 219 449 306 489 266 b 402 132 489 169 449 132 b 315 219 353 132 315 169 "},"ø":{"ha":787,"x_min":0,"x_max":0,"o":"m 53 -53 l 153 83 b 58 352 92 147 58 238 b 394 714 58 573 189 714 b 582 663 467 714 530 697 l 629 727 b 688 761 646 753 658 761 l 749 761 l 640 614 b 729 352 699 551 729 463 b 394 -10 729 131 601 -10 b 213 36 324 -10 263 6 l 175 -15 b 99 -53 156 -43 126 -53 m 522 583 b 394 622 488 608 446 622 b 178 351 253 622 178 519 b 219 172 178 277 192 217 m 272 116 b 394 83 305 94 346 83 b 609 351 533 83 609 185 b 573 523 609 422 597 478 "},"ù":{"ha":774,"x_min":0,"x_max":0,"o":"m 91 703 l 215 703 l 215 255 b 363 87 215 149 263 87 b 553 185 435 87 499 124 l 553 703 l 676 703 l 676 0 l 603 0 b 569 26 585 0 574 8 l 560 102 b 326 -11 499 33 425 -11 b 91 255 173 -11 91 96 m 201 1006 l 319 1006 b 374 976 349 1006 360 997 l 477 808 l 406 808 b 364 827 387 808 377 813 "},"ú":{"ha":774,"x_min":0,"x_max":0,"o":"m 215 703 l 215 255 b 363 87 215 149 263 87 b 553 185 435 87 499 124 l 553 703 l 676 703 l 676 0 l 603 0 b 569 26 585 0 574 8 l 560 102 b 326 -11 499 33 425 -11 b 91 255 173 -11 91 96 l 91 703 m 312 808 l 415 976 b 469 1006 428 997 440 1006 l 590 1006 l 428 827 b 385 808 415 813 405 808 "},"û":{"ha":774,"x_min":0,"x_max":0,"o":"m 91 703 l 215 703 l 215 255 b 363 87 215 149 263 87 b 553 185 435 87 499 124 l 553 703 l 676 703 l 676 0 l 603 0 b 569 26 585 0 574 8 l 560 102 b 326 -11 499 33 425 -11 b 91 255 173 -11 91 96 m 176 812 l 331 994 l 446 994 l 601 812 l 518 812 b 487 825 508 812 497 815 l 401 917 b 390 930 398 922 394 925 b 378 917 385 925 382 920 l 292 825 b 261 812 283 816 272 812 "},"ü":{"ha":774,"x_min":0,"x_max":0,"o":"m 215 703 l 215 255 b 363 87 215 149 263 87 b 553 185 435 87 499 124 l 553 703 l 676 703 l 676 0 l 603 0 b 569 26 585 0 574 8 l 560 102 b 326 -11 499 33 425 -11 b 91 255 173 -11 91 96 l 91 703 m 442 894 b 520 974 442 938 478 974 b 599 894 563 974 599 938 b 520 818 599 853 563 818 b 442 894 478 818 442 853 m 255 818 b 178 894 214 818 178 853 b 255 974 178 938 214 974 b 334 894 297 974 334 938 b 255 818 334 853 297 818 "},"ý":{"ha":716,"x_min":0,"x_max":0,"o":"m 122 703 b 160 678 143 703 155 691 l 348 233 b 367 172 356 213 362 192 b 388 234 373 194 380 214 l 570 678 b 607 703 576 692 591 703 l 705 703 l 313 -208 b 268 -238 304 -226 294 -238 l 176 -238 l 305 41 l 15 703 m 300 808 l 403 976 b 458 1006 416 997 428 1006 l 578 1006 l 417 827 b 374 808 403 813 393 808 "},"þ":{"ha":778,"x_min":0,"x_max":0,"o":"m 99 1022 l 222 1022 l 222 601 b 453 714 281 669 356 714 b 719 356 615 714 719 590 b 415 -10 719 149 605 -10 b 222 83 328 -10 269 24 l 222 -238 l 99 -238 m 222 169 b 387 86 267 108 320 86 b 591 356 518 86 591 184 b 412 616 591 540 526 616 b 222 510 331 616 273 577 "},"ÿ":{"ha":716,"x_min":0,"x_max":0,"o":"m 15 703 l 122 703 b 160 678 143 703 155 691 l 348 233 b 367 172 356 213 362 192 b 388 234 373 194 380 214 l 570 678 b 607 703 576 692 591 703 l 705 703 l 313 -208 b 268 -238 304 -226 294 -238 l 176 -238 l 305 41 m 431 894 b 508 974 431 938 466 974 b 587 894 551 974 587 938 b 508 818 587 853 551 818 b 431 894 466 818 431 853 m 243 818 b 166 894 202 818 166 853 b 243 974 166 938 202 974 b 322 894 285 974 322 938 b 243 818 322 853 285 818 "},"Ā":{"ha":940,"x_min":0,"x_max":0,"o":"m 4 0 l 402 995 l 538 995 l 936 0 l 832 0 b 786 32 808 0 794 13 l 693 273 l 247 273 l 154 32 b 108 0 148 16 131 0 m 656 369 l 499 776 b 470 868 490 800 479 832 b 441 775 460 832 450 799 l 285 369 m 276 1103 l 276 1176 l 663 1176 l 663 1103 "},"ā":{"ha":690,"x_min":0,"x_max":0,"o":"m 45 176 b 479 395 45 289 160 388 l 479 450 b 340 616 479 559 431 616 b 139 542 219 616 181 542 b 102 565 122 542 110 551 l 80 604 b 355 715 158 678 246 715 b 600 450 513 715 600 608 l 600 0 l 545 0 b 502 29 521 0 510 6 l 488 96 b 243 -11 415 28 351 -11 b 45 176 134 -11 45 50 m 164 182 b 279 76 164 107 215 76 b 479 171 366 76 423 113 l 479 317 b 164 182 251 310 164 259 m 140 935 l 539 935 l 539 855 l 140 855 "},"Ă":{"ha":940,"x_min":0,"x_max":0,"o":"m 4 0 l 402 995 l 538 995 l 936 0 l 832 0 b 786 32 808 0 794 13 l 693 273 l 247 273 l 154 32 b 108 0 148 16 131 0 m 656 369 l 499 776 b 470 868 490 800 479 832 b 441 775 460 832 450 799 l 285 369 m 357 1256 b 469 1149 357 1188 386 1149 b 581 1256 553 1149 581 1188 l 677 1256 b 469 1072 677 1139 601 1072 b 261 1256 338 1072 261 1131 "},"ă":{"ha":690,"x_min":0,"x_max":0,"o":"m 243 -11 b 45 176 134 -11 45 50 b 479 395 45 289 160 388 l 479 450 b 340 616 479 559 431 616 b 139 542 219 616 181 542 b 102 565 122 542 110 551 l 80 604 b 355 715 158 678 246 715 b 600 450 513 715 600 608 l 600 0 l 545 0 b 502 29 521 0 510 6 l 488 96 b 243 -11 415 28 351 -11 m 479 317 b 164 182 251 310 164 259 b 279 76 164 107 215 76 b 479 171 366 76 423 113 l 479 317 m 340 808 b 149 994 198 808 149 893 l 237 994 b 340 888 237 933 260 888 b 442 994 419 888 442 933 l 530 994 b 340 808 530 893 481 808 "},"Ą":{"ha":939,"x_min":0,"x_max":0,"o":"m 401 995 l 538 995 l 935 0 l 905 0 l 910 -1 b 828 -108 873 -21 828 -59 b 891 -164 828 -143 852 -164 b 954 -148 933 -164 944 -148 b 967 -156 960 -148 965 -151 l 986 -201 b 865 -237 958 -223 913 -237 b 735 -137 784 -237 735 -199 b 832 0 735 -84 776 -35 l 831 0 b 785 32 807 0 793 13 l 692 273 l 247 273 l 153 32 b 108 0 147 16 131 0 l 3 0 m 284 369 l 656 369 l 499 776 b 469 868 490 800 478 832 b 440 775 459 832 449 799 "},"ą":{"ha":690,"x_min":0,"x_max":0,"o":"m 45 176 b 479 395 45 289 160 388 l 479 450 b 340 616 479 559 431 616 b 139 542 219 616 181 542 b 102 565 122 542 110 551 l 80 604 b 355 715 158 678 246 715 b 600 450 513 715 600 608 l 600 0 l 594 0 l 599 -1 b 517 -108 563 -21 517 -59 b 581 -164 517 -143 542 -164 b 644 -148 623 -164 634 -148 b 657 -156 650 -148 655 -151 l 676 -201 b 555 -237 648 -223 602 -237 b 424 -137 474 -237 424 -199 b 525 2 424 -83 467 -33 b 502 29 514 6 507 14 l 488 96 b 243 -11 415 28 351 -11 b 45 176 134 -11 45 50 m 479 317 b 164 182 251 310 164 259 b 279 76 164 107 215 76 b 479 171 366 76 423 113 l 479 317 "},"Ć":{"ha":928,"x_min":0,"x_max":0,"o":"m 825 206 b 845 197 833 206 839 203 l 898 139 b 540 -11 817 44 703 -11 b 65 498 253 -11 65 197 b 552 1006 65 798 263 1006 b 883 881 694 1006 800 958 l 839 818 b 810 803 833 810 826 803 b 551 890 777 803 722 890 b 203 498 347 890 203 743 b 547 104 203 250 353 104 b 802 194 667 104 733 133 b 825 206 810 201 817 206 m 826 1286 l 600 1088 b 556 1074 586 1074 575 1074 l 467 1074 l 628 1264 b 687 1286 643 1284 656 1286 "},"ć":{"ha":663,"x_min":0,"x_max":0,"o":"m 588 578 b 562 563 581 568 575 563 b 397 619 534 563 501 619 b 185 353 258 619 185 517 b 390 86 185 183 265 86 b 570 156 511 86 538 156 b 594 144 581 156 589 151 l 629 99 b 369 -10 568 24 471 -10 b 58 353 194 -10 58 123 b 390 715 58 562 176 715 b 621 624 489 715 563 681 m 588 1006 l 426 827 b 383 808 413 813 403 808 l 310 808 l 413 976 b 467 1006 426 997 438 1006 "},"Ĉ":{"ha":928,"x_min":0,"x_max":0,"o":"m 65 498 b 552 1006 65 798 263 1006 b 883 881 694 1006 800 958 l 839 818 b 810 803 833 810 826 803 b 551 890 777 803 722 890 b 203 498 347 890 203 743 b 547 104 203 250 353 104 b 802 194 667 104 733 133 b 825 206 810 201 817 206 b 845 197 833 206 839 203 l 898 139 b 540 -11 817 44 703 -11 b 65 498 253 -11 65 197 m 344 1074 l 510 1262 l 621 1262 l 786 1074 l 696 1074 b 653 1094 685 1074 669 1075 l 572 1192 l 563 1204 l 555 1192 l 474 1094 b 431 1074 458 1075 442 1074 "},"ĉ":{"ha":663,"x_min":0,"x_max":0,"o":"m 369 -10 b 58 353 194 -10 58 123 b 390 715 58 562 176 715 b 621 624 489 715 563 681 l 588 578 b 562 563 581 568 575 563 b 397 619 534 563 501 619 b 185 353 258 619 185 517 b 390 86 185 183 265 86 b 570 156 511 86 538 156 b 594 144 581 156 589 151 l 629 99 b 369 -10 568 24 471 -10 m 174 812 l 329 994 l 444 994 l 599 812 l 516 812 b 485 825 506 812 495 815 l 399 917 b 388 930 396 922 392 925 b 376 917 383 925 380 920 l 290 825 b 259 812 281 816 270 812 "},"Ċ":{"ha":928,"x_min":0,"x_max":0,"o":"m 825 206 b 845 197 833 206 839 203 l 898 139 b 540 -11 817 44 703 -11 b 65 498 253 -11 65 197 b 552 1006 65 798 263 1006 b 883 881 694 1006 800 958 l 839 818 b 810 803 833 810 826 803 b 551 890 777 803 722 890 b 203 498 347 890 203 743 b 547 104 203 250 353 104 b 802 194 667 104 733 133 b 825 206 810 201 817 206 m 647 1172 b 561 1088 647 1128 608 1088 b 478 1172 517 1088 478 1128 b 561 1257 478 1218 517 1257 b 647 1172 608 1257 647 1218 "},"ċ":{"ha":663,"x_min":0,"x_max":0,"o":"m 588 578 b 562 563 581 568 575 563 b 397 619 534 563 501 619 b 185 353 258 619 185 517 b 390 86 185 183 265 86 b 570 156 511 86 538 156 b 594 144 581 156 589 151 l 629 99 b 369 -10 568 24 471 -10 b 58 353 194 -10 58 123 b 390 715 58 562 176 715 b 621 624 489 715 563 681 m 474 930 b 385 842 474 882 433 842 b 299 930 338 842 299 882 b 385 1018 299 978 338 1018 b 474 930 433 1018 474 978 "},"Č":{"ha":928,"x_min":0,"x_max":0,"o":"m 540 -11 b 65 498 253 -11 65 197 b 552 1006 65 798 263 1006 b 883 881 694 1006 800 958 l 839 818 b 810 803 833 810 826 803 b 551 890 777 803 722 890 b 203 498 347 890 203 743 b 547 104 203 250 353 104 b 802 194 667 104 733 133 b 825 206 810 201 817 206 b 845 197 833 206 839 203 l 898 139 b 540 -11 817 44 703 -11 m 431 1262 b 470 1246 442 1262 459 1262 l 555 1140 b 563 1128 558 1135 560 1132 b 572 1140 566 1132 569 1135 l 656 1246 b 696 1262 667 1262 685 1262 l 786 1262 l 621 1074 l 506 1074 l 340 1262 "},"č":{"ha":663,"x_min":0,"x_max":0,"o":"m 369 -10 b 58 353 194 -10 58 123 b 390 715 58 562 176 715 b 621 624 489 715 563 681 l 588 578 b 562 563 581 568 575 563 b 397 619 534 563 501 619 b 185 353 258 619 185 517 b 390 86 185 183 265 86 b 570 156 511 86 538 156 b 594 144 581 156 589 151 l 629 99 b 369 -10 568 24 471 -10 m 259 994 b 287 985 270 994 281 990 l 376 890 b 388 876 381 885 383 881 b 399 890 392 881 394 885 l 488 985 b 516 994 494 990 506 994 l 599 994 l 444 812 l 329 812 l 174 994 "},"Ď":{"ha":1056,"x_min":0,"x_max":0,"o":"m 499 994 b 990 497 792 994 990 795 b 499 0 990 199 792 0 l 127 0 l 127 994 m 263 886 l 263 108 l 499 108 b 851 497 713 108 851 253 b 499 886 851 742 713 886 m 253 1262 l 343 1262 b 383 1246 354 1262 372 1262 l 467 1140 b 476 1128 470 1135 473 1132 b 484 1140 478 1132 481 1135 l 568 1246 b 608 1262 580 1262 597 1262 l 699 1262 l 533 1074 l 419 1074 "},"ď":{"ha":778,"x_min":0,"x_max":0,"o":"m 326 -10 b 60 349 164 -10 60 115 b 364 716 60 557 174 716 b 556 633 450 716 508 686 l 556 1023 l 680 1023 l 680 0 l 606 0 b 573 26 589 0 578 8 l 562 111 b 326 -10 501 39 426 -10 m 188 349 b 367 90 188 166 253 90 b 556 197 447 90 506 128 l 556 537 b 392 620 511 598 458 620 b 188 349 260 620 188 522 m 751 797 l 791 1024 l 873 1024 b 896 1001 893 1024 896 1013 b 839 822 896 983 885 944 b 794 797 830 802 817 797 "},"Đ":{"ha":1067,"x_min":0,"x_max":0,"o":"m 138 541 l 138 994 l 510 994 b 1001 497 803 994 1001 795 b 510 0 1001 199 803 0 l 138 0 l 138 463 l 2 463 l 2 541 m 510 108 b 863 497 724 108 863 253 b 510 886 863 742 724 886 l 274 886 l 274 541 l 475 541 l 475 463 l 274 463 l 274 108 "},"đ":{"ha":778,"x_min":0,"x_max":0,"o":"m 326 -10 b 60 342 165 -10 60 108 b 365 701 60 550 175 701 b 557 618 451 701 509 671 l 557 794 l 393 794 l 393 872 l 557 872 l 557 1023 l 681 1023 l 681 872 l 783 872 l 783 794 l 681 794 l 681 0 l 607 0 b 574 26 590 0 578 8 l 563 112 b 326 -10 503 39 427 -10 m 188 342 b 367 90 188 158 254 90 b 557 197 448 90 506 128 l 557 522 b 392 605 512 583 459 605 b 188 342 261 605 188 515 "},"Ē":{"ha":802,"x_min":0,"x_max":0,"o":"m 127 994 l 740 994 l 740 885 l 263 885 l 263 555 l 649 555 l 649 449 l 263 449 l 263 109 l 741 109 l 740 0 l 127 0 m 249 1103 l 249 1176 l 636 1176 l 636 1103 "},"ē":{"ha":733,"x_min":0,"x_max":0,"o":"m 58 367 b 386 714 58 563 181 714 b 680 401 555 714 680 600 b 650 352 680 362 673 352 l 180 352 b 403 88 185 174 269 88 b 610 156 527 88 579 156 b 634 144 621 156 628 151 l 669 99 b 393 -10 608 24 494 -10 b 58 367 199 -10 58 124 m 569 428 b 389 624 569 543 502 624 b 184 428 269 624 201 551 m 190 935 l 588 935 l 588 855 l 190 855 "},"Ĕ":{"ha":802,"x_min":0,"x_max":0,"o":"m 127 0 l 127 994 l 740 994 l 740 885 l 263 885 l 263 555 l 649 555 l 649 449 l 263 449 l 263 109 l 741 109 l 740 0 m 330 1256 b 442 1149 330 1188 359 1149 b 554 1256 526 1149 554 1188 l 650 1256 b 442 1072 650 1139 574 1072 b 234 1256 311 1072 234 1131 "},"ĕ":{"ha":733,"x_min":0,"x_max":0,"o":"m 58 367 b 386 714 58 563 181 714 b 680 401 555 714 680 600 b 650 352 680 362 673 352 l 180 352 b 403 88 185 174 269 88 b 610 156 527 88 579 156 b 634 144 621 156 628 151 l 669 99 b 393 -10 608 24 494 -10 b 58 367 199 -10 58 124 m 389 624 b 184 428 269 624 201 551 l 569 428 b 389 624 569 543 502 624 m 389 808 b 199 994 247 808 199 893 l 286 994 b 389 888 286 933 309 888 b 492 994 469 888 492 933 l 579 994 b 389 808 579 893 531 808 "},"Ė":{"ha":802,"x_min":0,"x_max":0,"o":"m 740 994 l 740 885 l 263 885 l 263 555 l 649 555 l 649 449 l 263 449 l 263 109 l 741 109 l 740 0 l 127 0 l 127 994 m 357 1172 b 440 1257 357 1218 397 1257 b 526 1172 487 1257 526 1218 b 440 1088 526 1128 487 1088 b 357 1172 397 1088 357 1128 "},"ė":{"ha":733,"x_min":0,"x_max":0,"o":"m 58 367 b 386 714 58 563 181 714 b 680 401 555 714 680 600 b 650 352 680 362 673 352 l 180 352 b 403 88 185 174 269 88 b 610 156 527 88 579 156 b 634 144 621 156 628 151 l 669 99 b 393 -10 608 24 494 -10 b 58 367 199 -10 58 124 m 569 428 b 389 624 569 543 502 624 b 184 428 269 624 201 551 m 477 930 b 388 842 477 882 435 842 b 301 930 341 842 301 882 b 388 1018 301 978 341 1018 b 477 930 435 1018 477 978 "},"Ę":{"ha":802,"x_min":0,"x_max":0,"o":"m 127 0 l 127 994 l 740 994 l 740 885 l 263 885 l 263 555 l 649 555 l 649 449 l 263 449 l 263 109 l 741 109 l 740 0 l 672 0 l 676 -1 b 594 -108 640 -21 594 -59 b 658 -164 594 -143 619 -164 b 721 -148 700 -164 711 -148 b 734 -156 727 -148 732 -151 l 753 -201 b 632 -237 725 -223 679 -237 b 501 -137 551 -237 501 -199 b 599 0 501 -84 542 -35 "},"ę":{"ha":733,"x_min":0,"x_max":0,"o":"m 58 367 b 386 714 58 563 181 714 b 680 401 555 714 680 600 b 650 352 680 362 673 352 l 180 352 b 403 88 185 174 269 88 b 610 156 527 88 579 156 b 634 144 621 156 628 151 l 669 99 b 472 -3 623 43 549 10 b 394 -108 435 -24 394 -61 b 457 -164 394 -143 418 -164 b 520 -148 499 -164 510 -148 b 533 -156 526 -148 531 -151 l 552 -201 b 431 -237 524 -223 478 -237 b 301 -137 350 -237 301 -199 b 383 -10 301 -89 335 -44 b 58 367 194 -5 58 128 m 389 624 b 184 428 269 624 201 551 l 569 428 b 389 624 569 543 502 624 "},"Ě":{"ha":802,"x_min":0,"x_max":0,"o":"m 127 0 l 127 994 l 740 994 l 740 885 l 263 885 l 263 555 l 649 555 l 649 449 l 263 449 l 263 109 l 741 109 l 740 0 m 219 1262 l 310 1262 b 349 1246 321 1262 338 1262 l 434 1140 b 442 1128 437 1135 440 1132 b 451 1140 445 1132 448 1135 l 535 1246 b 575 1262 547 1262 564 1262 l 665 1262 l 500 1074 l 385 1074 "},"ě":{"ha":733,"x_min":0,"x_max":0,"o":"m 393 -10 b 58 367 199 -10 58 124 b 386 714 58 563 181 714 b 680 401 555 714 680 600 b 650 352 680 362 673 352 l 180 352 b 403 88 185 174 269 88 b 610 156 527 88 579 156 b 634 144 621 156 628 151 l 669 99 b 393 -10 608 24 494 -10 m 389 624 b 184 428 269 624 201 551 l 569 428 b 389 624 569 543 502 624 m 262 994 b 290 985 273 994 284 990 l 378 890 b 390 876 383 885 385 881 b 402 890 395 881 397 885 l 491 985 b 519 994 497 990 508 994 l 601 994 l 447 812 l 332 812 l 176 994 "},"Ĝ":{"ha":1015,"x_min":0,"x_max":0,"o":"m 590 -11 b 65 497 269 -11 65 197 b 574 1006 65 801 263 1006 b 926 881 732 1006 843 958 l 888 820 b 858 801 881 808 871 801 b 833 808 849 801 841 803 b 570 890 789 834 724 890 b 203 497 345 890 203 739 b 585 97 203 247 351 97 b 814 156 678 97 746 119 l 814 376 l 660 376 b 631 402 641 376 631 388 l 631 478 l 935 478 l 935 97 b 590 -11 835 24 724 -11 m 522 1262 l 633 1262 l 799 1074 l 708 1074 b 665 1094 697 1074 681 1075 l 584 1192 l 576 1204 l 567 1192 l 486 1094 b 443 1074 470 1075 454 1074 l 356 1074 "},"ĝ":{"ha":722,"x_min":0,"x_max":0,"o":"m 351 -253 b 43 -67 144 -253 43 -165 b 165 78 43 2 90 51 b 98 178 124 97 98 126 b 187 299 98 218 129 269 b 76 488 117 338 76 403 b 343 715 76 626 188 715 b 501 676 404 715 457 701 l 692 676 l 692 631 b 663 601 692 615 683 605 l 583 590 b 606 488 599 560 606 526 b 343 262 606 351 496 262 b 250 274 310 262 279 266 b 204 212 219 255 204 235 b 681 -18 204 78 681 242 b 351 -253 681 -138 557 -253 m 151 -51 b 353 -164 151 -115 216 -164 b 566 -38 486 -164 566 -112 b 240 59 566 66 378 40 b 151 -51 188 34 151 -1 m 190 485 b 343 343 190 402 244 343 b 496 485 443 343 496 401 b 343 627 496 572 442 627 b 190 485 244 627 190 571 m 147 812 l 302 994 l 417 994 l 572 812 l 489 812 b 458 825 478 812 468 815 l 372 917 b 361 930 369 922 365 925 b 349 917 356 925 353 920 l 263 825 b 232 812 253 816 243 812 "},"Ğ":{"ha":1015,"x_min":0,"x_max":0,"o":"m 590 -11 b 65 497 269 -11 65 197 b 574 1006 65 801 263 1006 b 926 881 732 1006 843 958 l 888 820 b 858 801 881 808 871 801 b 833 808 849 801 841 803 b 570 890 789 834 724 890 b 203 497 345 890 203 739 b 585 97 203 247 351 97 b 814 156 678 97 746 119 l 814 376 l 660 376 b 631 402 641 376 631 388 l 631 478 l 935 478 l 935 97 b 590 -11 835 24 724 -11 m 463 1256 b 576 1149 463 1188 492 1149 b 688 1256 659 1149 688 1188 l 783 1256 b 576 1072 783 1139 707 1072 b 367 1256 444 1072 367 1131 "},"ğ":{"ha":722,"x_min":0,"x_max":0,"o":"m 351 -253 b 43 -67 144 -253 43 -165 b 165 78 43 2 90 51 b 98 178 124 97 98 126 b 187 299 98 218 129 269 b 76 488 117 338 76 403 b 343 715 76 626 188 715 b 501 676 404 715 457 701 l 692 676 l 692 631 b 663 601 692 615 683 605 l 583 590 b 606 488 599 560 606 526 b 343 262 606 351 496 262 b 250 274 310 262 279 266 b 204 212 219 255 204 235 b 681 -18 204 78 681 242 b 351 -253 681 -138 557 -253 m 151 -51 b 353 -164 151 -115 216 -164 b 566 -38 486 -164 566 -112 b 240 59 566 66 378 40 b 151 -51 188 34 151 -1 m 343 627 b 190 485 244 627 190 571 b 343 343 190 402 244 343 b 496 485 443 343 496 401 b 343 627 496 572 442 627 m 256 994 b 359 888 256 933 279 888 b 462 994 439 888 462 933 l 549 994 b 359 808 549 893 501 808 b 169 994 217 808 169 893 "},"Ġ":{"ha":1015,"x_min":0,"x_max":0,"o":"m 590 -11 b 65 497 269 -11 65 197 b 574 1006 65 801 263 1006 b 926 881 732 1006 843 958 l 888 820 b 858 801 881 808 871 801 b 833 808 849 801 841 803 b 570 890 789 834 724 890 b 203 497 345 890 203 739 b 585 97 203 247 351 97 b 814 156 678 97 746 119 l 814 376 l 660 376 b 631 402 641 376 631 388 l 631 478 l 935 478 l 935 97 b 590 -11 835 24 724 -11 m 660 1172 b 574 1088 660 1128 620 1088 b 490 1172 530 1088 490 1128 b 574 1257 490 1218 530 1257 b 660 1172 620 1257 660 1218 "},"ġ":{"ha":722,"x_min":0,"x_max":0,"o":"m 43 -67 b 165 78 43 2 90 51 b 98 178 124 97 98 126 b 187 299 98 218 129 269 b 76 488 117 338 76 403 b 343 715 76 626 188 715 b 501 676 404 715 457 701 l 692 676 l 692 631 b 663 601 692 615 683 605 l 583 590 b 606 488 599 560 606 526 b 343 262 606 351 496 262 b 250 274 310 262 279 266 b 204 212 219 255 204 235 b 681 -18 204 78 681 242 b 351 -253 681 -138 557 -253 b 43 -67 144 -253 43 -165 m 566 -38 b 240 59 566 66 378 40 b 151 -51 188 34 151 -1 b 353 -164 151 -115 216 -164 b 566 -38 486 -164 566 -112 m 190 485 b 343 343 190 402 244 343 b 496 485 443 343 496 401 b 343 627 496 572 442 627 b 190 485 244 627 190 571 m 447 930 b 358 842 447 882 406 842 b 272 930 311 842 272 882 b 358 1018 272 978 311 1018 b 447 930 406 1018 447 978 "},"Ģ":{"ha":1015,"x_min":0,"x_max":0,"o":"m 590 -11 b 65 497 269 -11 65 197 b 574 1006 65 801 263 1006 b 926 881 732 1006 843 958 l 888 820 b 858 801 881 808 871 801 b 833 808 849 801 841 803 b 570 890 789 834 724 890 b 203 497 345 890 203 739 b 585 97 203 247 351 97 b 814 156 678 97 746 119 l 814 376 l 660 376 b 631 402 641 376 631 388 l 631 478 l 935 478 l 935 97 b 590 -11 835 24 724 -11 m 554 -67 b 578 -90 576 -67 578 -78 b 533 -245 578 -106 570 -149 b 489 -270 524 -265 512 -270 l 446 -270 l 480 -67 "},"ģ":{"ha":722,"x_min":0,"x_max":0,"o":"m 43 -67 b 165 78 43 2 90 51 b 98 178 124 97 98 126 b 187 299 98 218 129 269 b 76 488 117 338 76 403 b 343 715 76 626 188 715 b 501 676 404 715 457 701 l 692 676 l 692 631 b 663 601 692 615 683 605 l 583 590 b 606 488 599 560 606 526 b 343 262 606 351 496 262 b 250 274 310 262 279 266 b 204 212 219 255 204 235 b 681 -18 204 78 681 242 b 351 -253 681 -138 557 -253 b 43 -67 144 -253 43 -165 m 566 -38 b 240 59 566 66 378 40 b 151 -51 188 34 151 -1 b 353 -164 151 -115 216 -164 b 566 -38 486 -164 566 -112 m 190 485 b 343 343 190 402 244 343 b 496 485 443 343 496 401 b 343 627 496 572 442 627 b 190 485 244 627 190 571 m 412 804 l 302 804 l 369 1000 l 447 1000 "},"Ĥ":{"ha":1060,"x_min":0,"x_max":0,"o":"m 263 994 l 263 551 l 799 551 l 799 994 l 934 994 l 934 -1 l 799 -1 l 799 453 l 263 453 l 263 -1 l 127 -1 l 127 994 m 314 1074 l 480 1262 l 591 1262 l 756 1074 l 666 1074 b 623 1094 655 1074 639 1075 l 542 1192 l 533 1204 l 525 1192 l 444 1094 b 401 1074 428 1075 412 1074 "},"ĥ":{"ha":775,"x_min":0,"x_max":0,"o":"m 98 1022 l 222 1022 l 222 609 b 448 714 282 673 353 714 b 683 448 603 714 683 608 l 683 0 l 560 0 l 560 448 b 412 616 560 554 512 616 b 222 517 339 616 275 578 l 222 0 l 98 0 m 104 1262 l 215 1262 l 381 1074 l 290 1074 b 247 1094 279 1074 263 1075 l 166 1192 l 158 1204 l 149 1192 l 68 1094 b 25 1074 52 1075 36 1074 l -62 1074 "},"Ħ":{"ha":1071,"x_min":0,"x_max":0,"o":"m 19 721 l 19 801 l 132 801 l 132 995 l 267 995 l 267 801 l 803 801 l 803 995 l 939 995 l 939 801 l 1052 801 l 1052 721 l 939 721 l 939 -1 l 803 -1 l 803 453 l 267 453 l 267 -1 l 132 -1 l 132 721 m 267 551 l 803 551 l 803 721 l 267 721 "},"ħ":{"ha":775,"x_min":0,"x_max":0,"o":"m -8 803 l -8 882 l 98 882 l 98 1023 l 222 1023 l 222 882 l 425 882 l 425 803 l 222 803 l 222 594 b 448 699 282 658 353 699 b 683 433 603 699 683 593 l 683 0 l 560 0 l 560 433 b 412 601 560 540 512 601 b 222 503 339 601 275 564 l 222 0 l 98 0 l 98 803 "},"Ĩ":{"ha":514,"x_min":0,"x_max":0,"o":"m 40 92 l 190 92 l 190 902 l 40 902 l 40 994 l 474 994 l 474 902 l 325 902 l 325 92 l 474 92 l 474 -1 l 40 -1 m 56 1106 b 180 1255 56 1194 107 1255 b 333 1191 246 1255 291 1191 b 385 1251 367 1191 385 1211 l 461 1251 b 338 1103 461 1164 413 1103 b 185 1167 274 1103 228 1167 b 133 1106 151 1167 134 1147 l 56 1106 "},"ĩ":{"ha":333,"x_min":0,"x_max":0,"o":"m 228 703 l 228 0 l 104 0 l 104 703 m 247 919 b 299 980 281 919 298 940 l 374 980 b 251 832 374 892 326 832 b 98 896 187 832 141 896 b 47 835 65 896 47 876 l -31 835 b 93 983 -31 922 20 983 b 247 919 159 983 204 919 "},"Ī":{"ha":514,"x_min":0,"x_max":0,"o":"m 40 994 l 474 994 l 474 902 l 325 902 l 325 92 l 474 92 l 474 -1 l 40 -1 l 40 92 l 190 92 l 190 902 l 40 902 m 58 1207 l 456 1207 l 456 1126 l 58 1126 "},"ī":{"ha":333,"x_min":0,"x_max":0,"o":"m 228 703 l 228 0 l 104 0 l 104 703 m -29 935 l 369 935 l 369 855 l -29 855 "},"Ĭ":{"ha":514,"x_min":0,"x_max":0,"o":"m 40 92 l 190 92 l 190 902 l 40 902 l 40 994 l 474 994 l 474 902 l 325 902 l 325 92 l 474 92 l 474 -1 l 40 -1 m 257 1080 b 67 1266 115 1080 67 1165 l 154 1266 b 257 1160 154 1204 177 1160 b 360 1266 337 1160 360 1204 l 447 1266 b 257 1080 447 1165 399 1080 "},"ĭ":{"ha":333,"x_min":0,"x_max":0,"o":"m 228 703 l 228 0 l 104 0 l 104 703 m 67 994 b 170 888 67 933 90 888 b 273 994 250 888 273 933 l 360 994 b 170 808 360 893 312 808 b -20 994 28 808 -20 893 "},"Į":{"ha":514,"x_min":0,"x_max":0,"o":"m 190 92 l 190 902 l 40 902 l 40 994 l 474 994 l 474 902 l 325 902 l 325 92 l 474 92 l 474 -1 l 312 -1 b 230 -108 275 -21 230 -59 b 293 -164 230 -143 254 -164 b 356 -148 335 -164 347 -148 b 369 -156 363 -148 367 -151 l 388 -201 b 267 -237 360 -223 315 -237 b 137 -137 186 -237 137 -199 b 233 -1 137 -85 177 -35 l 40 -1 l 40 92 "},"į":{"ha":333,"x_min":0,"x_max":0,"o":"m 42 -137 b 140 0 42 -84 83 -35 l 105 0 l 105 703 l 228 703 l 228 0 l 213 0 l 217 -1 b 135 -108 181 -21 135 -59 b 199 -164 135 -143 160 -164 b 262 -148 241 -164 252 -148 b 275 -156 268 -148 273 -151 l 294 -201 b 173 -237 266 -223 220 -237 b 42 -137 92 -237 42 -199 m 79 925 b 165 1013 79 974 119 1013 b 255 925 213 1013 255 974 b 165 838 255 877 213 838 b 79 925 119 838 79 877 "},"İ":{"ha":514,"x_min":0,"x_max":0,"o":"m 40 994 l 474 994 l 474 902 l 325 902 l 325 92 l 474 92 l 474 -1 l 40 -1 l 40 92 l 190 92 l 190 902 l 40 902 m 169 1201 b 256 1290 169 1250 209 1290 b 345 1201 303 1290 345 1250 b 256 1114 345 1153 303 1114 b 169 1201 209 1114 169 1153 "},"ı":{"ha":334,"x_min":0,"x_max":0,"o":"m 228 703 l 228 0 l 105 0 l 105 703 "},"Ĳ":{"ha":1021,"x_min":0,"x_max":0,"o":"m 40 902 l 40 994 l 474 994 l 474 902 l 325 902 l 325 92 l 459 92 b 474 110 461 101 466 107 b 488 113 478 112 483 113 b 577 101 505 113 531 101 b 769 340 699 101 769 173 l 769 994 l 904 994 l 904 344 b 591 -11 904 121 793 -11 b 474 2 553 -11 515 -7 l 474 -1 l 40 -1 l 40 92 l 190 92 l 190 902 "},"ĳ":{"ha":688,"x_min":0,"x_max":0,"o":"m 310 -173 b 332 -159 313 -161 318 -159 b 359 -160 340 -159 347 -160 b 459 -53 431 -160 459 -128 l 459 703 l 583 703 l 583 -53 b 384 -253 583 -164 526 -253 b 306 -239 353 -253 330 -248 m 105 703 l 228 703 l 228 0 l 105 0 m 519 838 b 433 925 472 838 433 877 b 519 1013 433 974 472 1013 b 608 925 567 1013 608 974 b 519 838 608 877 567 838 m 165 838 b 79 925 119 838 79 877 b 165 1013 79 974 119 1013 b 255 925 213 1013 255 974 b 165 838 255 877 213 838 "},"Ĵ":{"ha":587,"x_min":0,"x_max":0,"o":"m 157 -11 b 16 8 112 -11 65 -5 b 24 87 19 34 22 61 b 54 113 26 103 35 113 b 143 101 71 113 97 101 b 335 340 265 101 335 173 l 335 994 l 470 994 l 470 344 b 157 -11 470 121 359 -11 m 183 1074 l 349 1262 l 460 1262 l 626 1074 l 535 1074 b 492 1094 524 1074 508 1075 l 411 1192 l 403 1204 l 394 1192 l 313 1094 b 270 1074 297 1075 281 1074 "},"ĵ":{"ha":333,"x_min":0,"x_max":0,"o":"m -44 -173 b -23 -159 -42 -161 -37 -159 b 4 -160 -15 -159 -8 -160 b 104 -53 76 -160 104 -128 l 104 703 l 228 703 l 228 -53 b 29 -253 228 -164 171 -253 b -49 -239 -1 -253 -25 -248 m -46 812 l 110 994 l 224 994 l 379 812 l 297 812 b 265 825 286 812 276 815 l 180 917 b 169 930 176 922 172 925 b 157 917 164 925 160 920 l 71 825 b 40 812 61 816 51 812 "},"Ķ":{"ha":920,"x_min":0,"x_max":0,"o":"m 127 994 l 262 994 l 262 559 l 312 559 b 384 588 347 559 365 567 l 715 963 b 781 994 734 988 751 994 l 896 994 l 516 567 b 463 522 497 544 481 531 b 526 472 488 513 508 499 l 922 0 l 806 0 b 744 28 770 0 758 10 l 401 424 b 323 456 382 447 366 456 l 262 456 l 262 0 l 127 0 m 384 -270 l 418 -67 l 492 -67 b 516 -90 514 -67 516 -78 b 472 -245 516 -106 508 -149 b 427 -270 463 -265 450 -270 "},"ķ":{"ha":706,"x_min":0,"x_max":0,"o":"m 222 1022 l 222 420 l 254 420 b 297 440 273 420 283 424 l 519 678 b 569 703 533 694 546 703 l 681 703 l 422 427 b 382 391 410 412 397 400 b 423 347 399 380 411 366 l 698 0 l 588 0 b 540 24 566 0 551 6 l 310 313 b 258 337 295 333 285 337 l 222 337 l 222 0 l 98 0 l 98 1022 m 325 -67 l 399 -67 b 423 -90 421 -67 423 -78 b 378 -245 423 -106 415 -149 b 334 -270 369 -265 357 -270 l 291 -270 "},"ĸ":{"ha":706,"x_min":0,"x_max":0,"o":"m 222 703 l 222 420 l 254 420 b 297 440 273 420 283 424 l 519 678 b 569 703 533 694 546 703 l 681 703 l 422 427 b 382 391 410 412 397 400 b 423 347 399 380 411 366 l 698 0 l 588 0 b 540 24 566 0 551 6 l 310 313 b 258 337 295 333 285 337 l 222 337 l 222 0 l 99 0 l 99 703 "},"Ĺ":{"ha":713,"x_min":0,"x_max":0,"o":"m 127 994 l 262 994 l 262 113 l 692 113 l 692 0 l 127 0 m 466 1286 l 240 1088 b 196 1074 226 1074 215 1074 l 107 1074 l 268 1264 b 326 1286 283 1284 296 1286 "},"ĺ":{"ha":328,"x_min":0,"x_max":0,"o":"m 226 1022 l 226 0 l 102 0 l 102 1022 m 428 1286 l 201 1088 b 158 1074 188 1074 176 1074 l 69 1074 l 230 1264 b 288 1286 244 1284 258 1286 "},"Ļ":{"ha":713,"x_min":0,"x_max":0,"o":"m 127 994 l 262 994 l 262 113 l 692 113 l 692 0 l 127 0 m 431 -67 b 454 -90 452 -67 454 -78 b 410 -245 454 -106 447 -149 b 365 -270 401 -265 388 -270 l 322 -270 l 356 -67 "},"ļ":{"ha":328,"x_min":0,"x_max":0,"o":"m 226 1022 l 226 0 l 102 0 l 102 1022 m 202 -67 b 226 -90 224 -67 226 -78 b 181 -245 226 -106 218 -149 b 137 -270 172 -265 160 -270 l 94 -270 l 128 -67 "},"Ľ":{"ha":713,"x_min":0,"x_max":0,"o":"m 127 994 l 262 994 l 262 113 l 692 113 l 692 0 l 127 0 m 512 1024 b 535 1001 532 1024 535 1013 b 478 822 535 983 524 944 b 433 797 469 802 456 797 l 390 797 l 430 1024 "},"ľ":{"ha":328,"x_min":0,"x_max":0,"o":"m 226 1022 l 226 0 l 102 0 l 102 1022 m 427 1024 b 450 1001 447 1024 450 1013 b 393 822 450 983 440 944 b 349 797 384 802 372 797 l 306 797 l 345 1024 "},"Ŀ":{"ha":742,"x_min":0,"x_max":0,"o":"m 127 994 l 262 994 l 262 113 l 692 113 l 692 0 l 127 0 m 643 541 b 554 453 643 493 601 453 b 467 541 507 453 467 493 b 554 629 467 590 507 629 b 643 541 601 629 643 590 "},"ŀ":{"ha":516,"x_min":0,"x_max":0,"o":"m 226 1022 l 226 0 l 102 0 l 102 1022 m 340 523 b 427 610 340 570 378 610 b 514 523 474 610 514 570 b 427 436 514 474 474 436 b 340 523 378 436 340 474 "},"Ł":{"ha":733,"x_min":0,"x_max":0,"o":"m 17 410 b 34 438 17 423 22 432 l 147 497 l 147 994 l 281 994 l 281 558 l 549 694 l 549 604 b 530 574 549 589 542 578 l 281 444 l 281 113 l 712 113 l 712 0 l 147 0 l 147 384 l 17 318 l 17 410 "},"ł":{"ha":428,"x_min":0,"x_max":0,"o":"m 30 523 b 47 550 30 535 35 544 l 156 599 l 156 1022 l 279 1022 l 279 645 l 410 700 l 410 630 b 391 599 410 615 403 604 l 279 550 l 279 0 l 156 0 l 156 505 l 30 451 l 30 523 "},"Ń":{"ha":1060,"x_min":0,"x_max":0,"o":"m 127 994 l 197 994 b 243 972 220 994 228 992 l 819 220 b 815 289 817 244 815 267 l 815 994 l 933 994 l 933 0 l 865 0 b 818 24 844 0 831 7 l 242 775 b 245 710 244 752 245 729 l 245 0 l 127 0 m 444 1073 l 605 1263 b 663 1285 619 1283 633 1285 l 803 1285 l 576 1087 b 533 1073 563 1074 551 1073 "},"ń":{"ha":775,"x_min":0,"x_max":0,"o":"m 98 703 l 172 703 b 205 678 190 703 201 694 l 215 601 b 448 714 276 668 349 714 b 683 448 603 714 683 608 l 683 0 l 560 0 l 560 448 b 413 616 560 554 512 616 b 222 518 340 616 275 579 l 222 0 l 98 0 m 418 976 b 473 1006 431 997 443 1006 l 594 1006 l 432 827 b 389 808 419 813 408 808 l 315 808 "},"Ņ":{"ha":1060,"x_min":0,"x_max":0,"o":"m 197 994 b 243 972 220 994 228 992 l 819 220 b 815 289 817 244 815 267 l 815 994 l 933 994 l 933 0 l 865 0 b 818 24 844 0 831 7 l 242 775 b 245 710 244 752 245 729 l 245 0 l 127 0 l 127 994 m 465 -270 l 499 -67 l 573 -67 b 597 -90 594 -67 597 -78 b 552 -245 597 -106 589 -149 b 508 -270 543 -265 531 -270 "},"ņ":{"ha":775,"x_min":0,"x_max":0,"o":"m 98 703 l 172 703 b 205 678 190 703 201 694 l 215 601 b 448 714 276 668 349 714 b 683 448 603 714 683 608 l 683 0 l 560 0 l 560 448 b 413 616 560 554 512 616 b 222 518 340 616 275 579 l 222 0 l 98 0 m 320 -270 l 354 -67 l 428 -67 b 452 -90 450 -67 452 -78 b 408 -245 452 -106 444 -149 b 363 -270 399 -265 386 -270 "},"Ň":{"ha":1060,"x_min":0,"x_max":0,"o":"m 197 994 b 243 972 220 994 228 992 l 819 220 b 815 289 817 244 815 267 l 815 994 l 933 994 l 933 0 l 865 0 b 818 24 844 0 831 7 l 242 775 b 245 710 244 752 245 729 l 245 0 l 127 0 l 127 994 m 408 1261 b 447 1245 419 1261 436 1261 l 532 1140 b 540 1128 535 1135 538 1131 b 549 1140 543 1131 546 1135 l 633 1245 b 673 1261 644 1261 662 1261 l 763 1261 l 598 1073 l 483 1073 l 317 1261 "},"ň":{"ha":775,"x_min":0,"x_max":0,"o":"m 98 0 l 98 703 l 172 703 b 205 678 190 703 201 694 l 215 601 b 448 714 276 668 349 714 b 683 448 603 714 683 608 l 683 0 l 560 0 l 560 448 b 413 616 560 554 512 616 b 222 518 340 616 275 579 l 222 0 m 179 994 l 265 994 b 292 985 276 994 287 990 l 381 890 b 393 876 386 885 388 881 b 405 890 398 881 400 885 l 494 985 b 522 994 500 990 511 994 l 604 994 l 449 812 l 335 812 "},"ŉ":{"ha":838,"x_min":0,"x_max":0,"o":"m 162 703 l 236 703 b 269 678 253 703 265 694 l 278 601 b 512 714 340 668 413 714 b 747 448 667 714 747 608 l 747 0 l 624 0 l 624 448 b 476 616 624 554 576 616 b 286 518 403 616 339 579 l 286 0 l 162 0 m 32 683 b 29 715 18 692 22 708 b 44 988 77 774 103 892 b 56 1031 33 1008 39 1024 l 133 1061 b 69 659 210 930 188 761 l 32 683 "},"Ŋ":{"ha":1060,"x_min":0,"x_max":0,"o":"m 127 994 l 197 994 b 243 972 219 994 228 992 l 819 221 b 815 289 817 245 815 269 l 815 994 l 933 994 l 933 4 b 707 -249 933 -148 867 -249 b 590 -224 663 -249 631 -241 l 603 -170 b 631 -146 608 -150 619 -146 b 696 -156 643 -146 660 -156 b 815 -10 774 -156 815 -109 l 815 27 l 242 775 b 245 710 244 751 245 729 l 245 -1 l 127 -1 "},"ŋ":{"ha":775,"x_min":0,"x_max":0,"o":"m 683 -1 b 452 -253 683 -153 610 -253 b 334 -228 408 -253 375 -246 l 348 -175 b 376 -151 353 -155 364 -151 b 441 -161 388 -151 406 -161 b 560 -15 519 -161 560 -114 l 560 448 b 413 616 560 554 512 616 b 222 518 340 616 275 579 l 222 0 l 98 0 l 98 703 l 172 703 b 205 678 190 703 201 694 l 215 601 b 448 714 276 669 350 714 b 683 448 603 714 683 608 "},"Ō":{"ha":1112,"x_min":0,"x_max":0,"o":"m 1047 498 b 556 -10 1047 199 849 -10 b 65 498 265 -10 65 199 b 556 1006 65 796 265 1006 b 1047 498 849 1006 1047 796 m 908 498 b 556 890 908 742 770 890 b 203 498 343 890 203 742 b 556 106 203 253 343 106 b 908 498 770 106 908 253 m 363 1176 l 751 1176 l 751 1103 l 363 1103 "},"ō":{"ha":788,"x_min":0,"x_max":0,"o":"m 394 715 b 729 353 600 715 729 574 b 394 -10 729 131 600 -10 b 58 353 189 -10 58 131 b 394 715 58 574 189 715 m 394 87 b 601 352 533 87 601 185 b 394 618 601 519 533 618 b 186 352 254 618 186 519 b 394 87 186 185 255 87 m 196 935 l 594 935 l 594 855 l 196 855 "},"Ŏ":{"ha":1112,"x_min":0,"x_max":0,"o":"m 556 -10 b 65 498 265 -10 65 199 b 556 1006 65 796 265 1006 b 1047 498 849 1006 1047 796 b 556 -10 1047 199 849 -10 m 556 890 b 203 498 343 890 203 742 b 556 106 203 253 343 106 b 908 498 770 106 908 253 b 556 890 908 742 770 890 m 557 1072 b 349 1256 426 1072 349 1131 l 444 1256 b 557 1149 444 1188 474 1149 b 669 1256 640 1149 669 1188 l 765 1256 b 557 1072 765 1139 688 1072 "},"ŏ":{"ha":788,"x_min":0,"x_max":0,"o":"m 58 353 b 394 715 58 574 189 715 b 729 353 600 715 729 574 b 394 -10 729 131 600 -10 b 58 353 189 -10 58 131 m 394 618 b 186 352 254 618 186 519 b 394 87 186 185 255 87 b 601 352 533 87 601 185 b 394 618 601 519 533 618 m 395 808 b 205 994 253 808 205 893 l 292 994 b 395 888 292 933 315 888 b 498 994 475 888 498 933 l 585 994 b 395 808 585 893 537 808 "},"Ő":{"ha":1112,"x_min":0,"x_max":0,"o":"m 556 -10 b 65 498 265 -10 65 199 b 556 1006 65 796 265 1006 b 1047 498 849 1006 1047 796 b 556 -10 1047 199 849 -10 m 203 498 b 556 106 203 253 343 106 b 908 498 770 106 908 253 b 556 890 908 742 770 890 b 203 498 343 890 203 742 m 610 1074 l 738 1232 b 801 1263 754 1251 772 1263 l 896 1263 l 722 1092 b 676 1074 708 1079 695 1074 m 392 1074 l 495 1232 b 556 1263 508 1251 526 1263 l 637 1263 l 494 1092 b 451 1074 481 1079 471 1074 "},"ő":{"ha":788,"x_min":0,"x_max":0,"o":"m 58 353 b 394 715 58 574 189 715 b 729 353 600 715 729 574 b 394 -10 729 131 600 -10 b 58 353 189 -10 58 131 m 394 618 b 186 352 254 618 186 519 b 394 87 186 185 255 87 b 601 352 533 87 601 185 b 394 618 601 519 533 618 m 427 808 l 552 976 b 607 1006 567 996 576 1006 l 698 1006 l 529 827 b 487 808 516 813 506 808 m 247 808 l 343 976 b 398 1006 354 997 367 1006 l 480 1006 l 342 827 b 299 808 331 813 318 808 "},"Œ":{"ha":1515,"x_min":0,"x_max":0,"o":"m 508 -10 b 67 497 245 -10 67 199 b 508 1006 67 795 245 1006 b 856 828 658 1006 778 940 l 856 994 l 1453 994 l 1453 886 l 975 886 l 975 555 l 1362 555 l 1362 449 l 975 449 l 975 109 l 1453 109 l 1453 0 l 856 0 l 856 166 b 508 -10 778 55 658 -10 m 523 894 b 204 497 329 894 204 742 b 523 102 204 253 329 102 b 840 497 716 102 840 253 b 523 894 840 742 716 894 "},"œ":{"ha":1213,"x_min":0,"x_max":0,"o":"m 58 353 b 372 715 58 574 183 715 b 633 555 494 715 583 657 b 889 715 679 652 766 715 b 1156 387 1041 715 1156 593 b 1128 338 1156 349 1151 338 l 692 338 b 899 88 700 170 780 88 b 1091 156 1013 88 1058 156 b 1113 144 1100 156 1108 151 l 1149 99 b 888 -10 1088 24 984 -10 b 634 153 778 -10 685 43 b 367 -10 584 50 494 -10 b 58 353 182 -10 58 131 m 379 618 b 186 352 249 618 186 519 b 379 87 186 185 249 87 b 570 352 508 87 570 185 b 379 618 570 519 508 618 m 1047 415 b 885 624 1047 536 988 624 b 694 415 770 624 707 544 "},"Ŕ":{"ha":870,"x_min":0,"x_max":0,"o":"m 127 0 l 127 995 l 408 995 b 773 719 660 995 773 890 b 528 438 773 578 681 473 b 572 395 545 428 560 414 l 863 0 l 743 0 b 689 28 719 0 701 10 l 431 384 b 364 415 415 407 401 415 l 262 415 l 262 0 m 262 513 l 403 513 b 642 710 559 513 642 593 b 408 890 642 829 564 890 l 262 890 m 478 1264 b 537 1286 493 1284 506 1286 l 676 1286 l 450 1088 b 406 1074 436 1074 425 1074 l 317 1074 "},"ŕ":{"ha":506,"x_min":0,"x_max":0,"o":"m 98 0 l 98 703 l 169 703 b 207 670 196 703 203 694 l 215 563 b 415 716 260 659 323 716 b 494 697 446 716 474 710 l 486 604 b 465 587 483 592 476 587 b 394 595 451 587 425 595 b 222 443 303 595 258 541 l 222 0 m 494 1006 l 333 827 b 290 808 319 813 309 808 l 216 808 l 319 976 b 374 1006 332 997 344 1006 "},"Ŗ":{"ha":870,"x_min":0,"x_max":0,"o":"m 127 995 l 408 995 b 773 719 660 995 773 890 b 528 438 773 578 681 473 b 572 395 545 428 560 414 l 863 0 l 743 0 b 689 28 719 0 701 10 l 431 384 b 364 415 415 407 401 415 l 262 415 l 262 0 l 127 0 m 262 513 l 403 513 b 642 710 559 513 642 593 b 408 890 642 829 564 890 l 262 890 m 381 -270 l 415 -67 l 489 -67 b 513 -90 510 -67 513 -78 b 468 -245 513 -106 505 -149 b 424 -270 459 -265 447 -270 "},"ŗ":{"ha":506,"x_min":0,"x_max":0,"o":"m 98 0 l 98 703 l 169 703 b 207 670 196 703 203 694 l 215 563 b 415 716 260 659 323 716 b 494 697 446 716 474 710 l 486 604 b 465 587 483 592 476 587 b 394 595 451 587 425 595 b 222 443 303 595 258 541 l 222 0 m 199 -67 b 222 -90 220 -67 222 -78 b 178 -245 222 -106 215 -149 b 133 -270 169 -265 156 -270 l 90 -270 l 124 -67 "},"Ř":{"ha":870,"x_min":0,"x_max":0,"o":"m 408 995 b 773 719 660 995 773 890 b 528 438 773 578 681 473 b 572 395 545 428 560 414 l 863 0 l 743 0 b 689 28 719 0 701 10 l 431 384 b 364 415 415 407 401 415 l 262 415 l 262 0 l 127 0 l 127 995 m 262 513 l 403 513 b 642 710 559 513 642 593 b 408 890 642 829 564 890 l 262 890 m 281 1262 b 321 1246 292 1262 310 1262 l 406 1140 b 414 1128 408 1135 411 1132 b 422 1140 417 1132 419 1135 l 506 1246 b 547 1262 518 1262 535 1262 l 637 1262 l 472 1074 l 357 1074 l 191 1262 "},"ř":{"ha":506,"x_min":0,"x_max":0,"o":"m 97 703 l 168 703 b 206 670 195 703 203 694 l 215 563 b 415 716 259 659 322 716 b 494 697 445 716 474 710 l 485 604 b 464 587 483 592 476 587 b 394 595 451 587 424 595 b 221 443 303 595 258 541 l 221 0 l 97 0 m 165 994 b 192 985 176 994 187 990 l 281 890 b 293 876 286 885 288 881 b 305 890 298 881 300 885 l 394 985 b 422 994 400 990 411 994 l 504 994 l 349 812 l 235 812 l 79 994 "},"Ś":{"ha":753,"x_min":0,"x_max":0,"o":"m 636 840 b 605 819 628 826 618 819 b 398 895 573 819 525 895 b 214 740 278 895 214 826 b 691 302 214 516 691 629 b 358 -11 691 127 569 -11 b 46 119 228 -11 120 39 l 84 183 b 116 200 92 193 103 200 b 362 100 153 200 209 100 b 565 283 490 100 565 174 b 88 733 565 524 88 380 b 397 1006 88 874 199 1006 b 669 903 508 1006 599 970 m 672 1286 l 445 1088 b 401 1074 431 1074 420 1074 l 313 1074 l 474 1264 b 532 1286 488 1284 501 1286 "},"ś":{"ha":601,"x_min":0,"x_max":0,"o":"m 508 588 b 482 572 501 577 493 572 b 318 622 454 572 415 622 b 183 520 235 622 183 577 b 547 215 183 376 547 442 b 281 -11 547 86 452 -11 b 47 75 183 -11 102 24 l 76 122 b 108 140 83 133 92 140 b 288 77 142 140 175 77 b 431 194 385 77 431 131 b 65 510 431 349 65 268 b 315 714 65 619 156 714 b 535 633 408 714 482 683 m 513 1006 l 351 827 b 308 808 338 813 328 808 l 235 808 l 338 976 b 392 1006 351 997 363 1006 "},"Ŝ":{"ha":753,"x_min":0,"x_max":0,"o":"m 84 183 b 116 200 92 193 103 200 b 362 100 153 200 209 100 b 565 283 490 100 565 174 b 88 733 565 524 88 380 b 397 1006 88 874 199 1006 b 669 903 508 1006 599 970 l 636 840 b 605 819 628 826 618 819 b 398 895 573 819 525 895 b 214 740 278 895 214 826 b 691 302 214 516 691 629 b 358 -11 691 127 569 -11 b 46 119 228 -11 120 39 m 189 1074 l 355 1262 l 466 1262 l 631 1074 l 541 1074 b 498 1094 530 1074 514 1075 l 417 1192 l 408 1204 l 400 1192 l 319 1094 b 276 1074 303 1075 287 1074 "},"ŝ":{"ha":601,"x_min":0,"x_max":0,"o":"m 281 -11 b 47 75 183 -11 102 24 l 76 122 b 108 140 83 133 92 140 b 288 77 142 140 175 77 b 431 194 385 77 431 131 b 65 510 431 349 65 268 b 315 714 65 619 156 714 b 535 633 408 714 482 683 l 508 588 b 482 572 501 577 493 572 b 318 622 454 572 415 622 b 183 520 235 622 183 577 b 547 215 183 376 547 442 b 281 -11 547 86 452 -11 m 99 812 l 254 994 l 369 994 l 524 812 l 441 812 b 410 825 431 812 420 815 l 324 917 b 313 930 321 922 317 925 b 301 917 308 925 305 920 l 215 825 b 184 812 206 816 195 812 "},"Ş":{"ha":753,"x_min":0,"x_max":0,"o":"m 84 183 b 116 200 92 193 103 200 b 362 100 153 200 209 100 b 565 283 490 100 565 174 b 88 733 565 524 88 380 b 397 1006 88 874 199 1006 b 669 903 508 1006 599 970 l 636 840 b 605 819 628 826 618 819 b 398 895 573 819 525 895 b 214 740 278 895 214 826 b 691 302 214 516 691 629 b 417 -7 691 144 592 16 l 404 -52 b 526 -151 490 -69 526 -101 b 376 -248 526 -211 465 -248 b 274 -226 338 -248 303 -240 l 286 -187 b 302 -176 289 -180 294 -176 b 369 -192 313 -176 330 -192 b 428 -150 408 -192 428 -174 b 317 -95 428 -114 388 -104 l 344 -11 b 46 119 221 -8 117 42 "},"ş":{"ha":601,"x_min":0,"x_max":0,"o":"m 248 -10 b 47 75 165 -3 96 30 l 76 122 b 108 140 83 133 92 140 b 288 77 142 140 175 77 b 431 194 385 77 431 131 b 65 510 431 349 65 268 b 315 714 65 619 156 714 b 535 633 408 714 482 683 l 508 588 b 482 572 501 577 493 572 b 318 622 454 572 415 622 b 183 520 235 622 183 577 b 547 215 183 376 547 442 b 319 -10 547 96 466 4 l 307 -52 b 429 -151 393 -69 429 -101 b 278 -248 429 -211 367 -248 b 177 -226 240 -248 206 -240 l 189 -187 b 205 -176 192 -180 197 -176 b 272 -192 216 -176 233 -192 b 331 -150 311 -192 331 -174 b 219 -95 331 -114 291 -104 l 248 -10 "},"Š":{"ha":753,"x_min":0,"x_max":0,"o":"m 84 183 b 116 200 92 193 103 200 b 362 100 153 200 209 100 b 565 283 490 100 565 174 b 88 733 565 524 88 380 b 397 1006 88 874 199 1006 b 669 903 508 1006 599 970 l 636 840 b 605 819 628 826 618 819 b 398 895 573 819 525 895 b 214 740 278 895 214 826 b 691 302 214 516 691 629 b 358 -11 691 127 569 -11 b 46 119 228 -11 120 39 m 276 1262 b 315 1246 287 1262 304 1262 l 400 1140 b 408 1128 403 1135 406 1132 b 417 1140 411 1132 414 1135 l 501 1246 b 541 1262 513 1262 530 1262 l 631 1262 l 466 1074 l 351 1074 l 185 1262 "},"š":{"ha":601,"x_min":0,"x_max":0,"o":"m 281 -11 b 47 75 183 -11 102 24 l 76 122 b 108 140 83 133 92 140 b 288 77 142 140 175 77 b 431 194 385 77 431 131 b 65 510 431 349 65 268 b 315 714 65 619 156 714 b 535 633 408 714 482 683 l 508 588 b 482 572 501 577 493 572 b 318 622 454 572 415 622 b 183 520 235 622 183 577 b 547 215 183 376 547 442 b 281 -11 547 86 452 -11 m 184 994 b 212 985 195 994 206 990 l 301 890 b 313 876 306 885 308 881 b 324 890 317 881 319 885 l 413 985 b 441 994 419 990 431 994 l 524 994 l 369 812 l 254 812 l 99 994 "},"Ţ":{"ha":820,"x_min":0,"x_max":0,"o":"m 21 994 l 800 994 l 800 883 l 478 883 l 478 0 l 448 0 l 433 -52 b 555 -151 519 -69 555 -101 b 404 -248 555 -211 493 -248 b 303 -226 366 -248 331 -240 l 315 -187 b 331 -176 317 -180 323 -176 b 398 -192 342 -176 358 -192 b 457 -150 437 -192 457 -174 b 345 -95 457 -114 417 -104 l 377 0 l 344 0 l 344 883 l 21 883 "},"ţ":{"ha":498,"x_min":0,"x_max":0,"o":"m 146 691 l 174 908 b 203 932 177 922 187 932 l 265 932 l 265 690 l 468 690 l 468 600 l 265 600 l 265 177 b 342 90 265 118 297 90 b 431 124 395 90 416 124 b 449 112 439 124 443 119 l 485 53 b 344 -10 449 19 398 -3 l 331 -52 b 453 -151 417 -69 453 -101 b 303 -248 453 -211 392 -248 b 201 -226 265 -248 230 -240 l 213 -187 b 229 -176 216 -180 222 -176 b 297 -192 240 -176 257 -192 b 356 -150 335 -192 356 -174 b 244 -95 356 -114 315 -104 l 273 -8 b 142 169 188 6 142 67 l 142 600 l 57 600 b 31 627 42 600 31 610 l 31 676 "},"Ť":{"ha":820,"x_min":0,"x_max":0,"o":"m 21 994 l 800 994 l 800 883 l 478 883 l 478 0 l 344 0 l 344 883 l 21 883 m 280 1262 b 319 1246 291 1262 308 1262 l 404 1140 b 413 1128 407 1135 410 1132 b 421 1140 415 1132 418 1135 l 505 1246 b 545 1262 517 1262 534 1262 l 635 1262 l 470 1074 l 356 1074 l 190 1262 "},"ť":{"ha":497,"x_min":0,"x_max":0,"o":"m 28 676 l 144 691 l 172 908 b 201 932 175 922 185 932 l 263 932 l 263 690 l 466 690 l 466 600 l 263 600 l 263 177 b 340 90 263 118 295 90 b 428 124 393 90 414 124 b 447 112 437 124 441 119 l 483 53 b 312 -11 440 13 376 -11 b 140 169 201 -11 140 52 l 140 600 l 55 600 b 28 627 40 600 28 610 m 414 797 l 453 1024 l 535 1024 b 558 1001 556 1024 558 1013 b 501 822 558 983 548 944 b 457 797 492 802 480 797 "},"Ŧ":{"ha":840,"x_min":0,"x_max":0,"o":"m 31 883 l 31 994 l 810 994 l 810 883 l 488 883 l 488 591 l 715 591 l 715 513 l 488 513 l 488 0 l 353 0 l 353 513 l 126 513 l 126 591 l 353 591 l 353 883 "},"ŧ":{"ha":503,"x_min":0,"x_max":0,"o":"m 147 691 l 176 908 b 204 932 178 922 188 932 l 267 932 l 267 690 l 469 690 l 469 600 l 267 600 l 267 481 l 472 481 l 472 402 l 267 402 l 267 177 b 343 90 267 118 299 90 b 432 124 397 90 417 124 b 450 112 440 124 444 119 l 486 53 b 315 -11 444 13 380 -11 b 143 169 205 -11 143 52 l 143 402 l 44 402 l 44 481 l 143 481 l 143 600 l 58 600 b 32 627 44 600 32 610 l 32 676 "},"Ũ":{"ha":1022,"x_min":0,"x_max":0,"o":"m 249 994 l 249 391 b 511 106 249 224 347 106 b 773 390 676 106 773 224 l 773 994 l 908 994 l 908 390 b 511 -12 908 160 756 -12 b 115 390 266 -12 115 160 l 115 994 m 292 1075 b 419 1227 292 1155 338 1227 b 599 1154 503 1227 547 1154 b 664 1224 641 1154 664 1190 l 740 1224 b 613 1072 740 1144 694 1072 b 433 1145 529 1072 484 1145 b 369 1075 391 1145 369 1108 l 292 1075 "},"ũ":{"ha":774,"x_min":0,"x_max":0,"o":"m 215 703 l 215 255 b 363 87 215 149 263 87 b 553 185 435 87 499 124 l 553 703 l 676 703 l 676 0 l 603 0 b 569 26 585 0 574 8 l 560 102 b 326 -11 499 33 425 -11 b 91 255 173 -11 91 96 l 91 703 m 188 835 b 311 983 188 922 238 983 b 465 919 377 983 422 919 b 517 980 499 919 516 940 l 592 980 b 469 832 592 892 544 832 b 316 896 405 832 359 896 b 265 835 283 896 265 876 "},"Ū":{"ha":1022,"x_min":0,"x_max":0,"o":"m 511 -12 b 115 390 266 -12 115 160 l 115 994 l 249 994 l 249 391 b 511 106 249 224 347 106 b 773 390 676 106 773 224 l 773 994 l 908 994 l 908 390 b 511 -12 908 160 756 -12 m 705 1176 l 705 1103 l 317 1103 l 317 1176 "},"ū":{"ha":774,"x_min":0,"x_max":0,"o":"m 215 703 l 215 255 b 363 87 215 149 263 87 b 553 185 435 87 499 124 l 553 703 l 676 703 l 676 0 l 603 0 b 569 26 585 0 574 8 l 560 102 b 326 -11 499 33 425 -11 b 91 255 173 -11 91 96 l 91 703 m 189 855 l 189 935 l 588 935 l 588 855 "},"Ŭ":{"ha":1022,"x_min":0,"x_max":0,"o":"m 249 994 l 249 391 b 511 106 249 224 347 106 b 773 390 676 106 773 224 l 773 994 l 908 994 l 908 390 b 511 -12 908 160 756 -12 b 115 390 266 -12 115 160 l 115 994 m 399 1256 b 511 1149 399 1188 428 1149 b 623 1256 594 1149 623 1188 l 719 1256 b 511 1072 719 1139 642 1072 b 303 1256 380 1072 303 1131 "},"ŭ":{"ha":774,"x_min":0,"x_max":0,"o":"m 215 703 l 215 255 b 363 87 215 149 263 87 b 553 185 435 87 499 124 l 553 703 l 676 703 l 676 0 l 603 0 b 569 26 585 0 574 8 l 560 102 b 326 -11 499 33 425 -11 b 91 255 173 -11 91 96 l 91 703 m 388 808 b 198 994 247 808 198 893 l 285 994 b 388 888 285 933 308 888 b 491 994 468 888 491 933 l 578 994 b 388 808 578 893 530 808 "},"Ů":{"ha":1022,"x_min":0,"x_max":0,"o":"m 249 994 l 249 391 b 511 106 249 224 347 106 b 773 390 676 106 773 224 l 773 994 l 908 994 l 908 390 b 511 -12 908 160 756 -12 b 115 390 266 -12 115 160 l 115 994 m 510 1057 b 380 1178 441 1057 380 1107 b 510 1301 380 1251 441 1301 b 644 1178 583 1301 644 1251 b 510 1057 644 1107 583 1057 m 442 1178 b 513 1108 442 1137 468 1108 b 582 1178 554 1108 582 1137 b 513 1249 582 1220 554 1249 b 442 1178 468 1249 442 1220 "},"ů":{"ha":774,"x_min":0,"x_max":0,"o":"m 215 703 l 215 255 b 363 87 215 149 263 87 b 553 185 435 87 499 124 l 553 703 l 676 703 l 676 0 l 603 0 b 569 26 585 0 574 8 l 560 102 b 326 -11 499 33 425 -11 b 91 255 173 -11 91 96 l 91 703 m 250 913 b 388 1043 250 990 314 1043 b 528 913 464 1043 528 990 b 388 785 528 838 464 785 b 250 913 314 785 250 838 m 319 913 b 390 844 319 872 346 844 b 459 913 431 844 459 872 b 390 983 459 955 431 983 b 319 913 346 983 319 955 "},"Ű":{"ha":1022,"x_min":0,"x_max":0,"o":"m 249 994 l 249 391 b 511 106 249 224 347 106 b 773 390 676 106 773 224 l 773 994 l 908 994 l 908 390 b 511 -12 908 160 756 -12 b 115 390 266 -12 115 160 l 115 994 m 692 1232 b 756 1263 708 1251 726 1263 l 850 1263 l 676 1092 b 631 1074 663 1079 649 1074 l 564 1074 m 347 1074 l 449 1232 b 510 1263 463 1251 480 1263 l 591 1263 l 449 1092 b 406 1074 435 1079 425 1074 "},"ű":{"ha":774,"x_min":0,"x_max":0,"o":"m 91 703 l 215 703 l 215 255 b 363 87 215 149 263 87 b 553 185 435 87 499 124 l 553 703 l 676 703 l 676 0 l 603 0 b 569 26 585 0 574 8 l 560 102 b 326 -11 499 33 425 -11 b 91 255 173 -11 91 96 m 420 808 l 545 976 b 600 1006 560 996 569 1006 l 691 1006 l 522 827 b 480 808 509 813 499 808 m 336 976 b 391 1006 347 997 360 1006 l 473 1006 l 335 827 b 292 808 324 813 311 808 l 240 808 "},"Ų":{"ha":1022,"x_min":0,"x_max":0,"o":"m 115 994 l 249 994 l 249 391 b 511 106 249 224 347 106 b 773 390 676 106 773 224 l 773 994 l 908 994 l 908 390 b 576 -8 908 181 783 20 b 500 -111 540 -28 500 -65 b 563 -167 500 -147 524 -167 b 626 -151 606 -167 617 -151 b 640 -160 633 -151 638 -154 l 658 -205 b 538 -241 631 -226 585 -241 b 407 -141 456 -241 407 -202 b 492 -11 407 -92 442 -46 b 115 390 258 -3 115 167 "},"ų":{"ha":774,"x_min":0,"x_max":0,"o":"m 215 703 l 215 255 b 363 87 215 149 263 87 b 553 185 435 87 499 124 l 553 703 l 676 703 l 676 0 l 672 0 l 676 -1 b 594 -108 640 -21 594 -59 b 658 -164 594 -143 619 -164 b 721 -148 700 -164 711 -148 b 734 -156 727 -148 732 -151 l 753 -201 b 632 -237 725 -223 679 -237 b 501 -137 551 -237 501 -199 b 599 0 501 -84 542 -35 b 569 26 583 1 574 10 l 560 102 b 326 -11 499 33 425 -11 b 91 255 173 -11 91 96 l 91 703 "},"Ŵ":{"ha":1438,"x_min":0,"x_max":0,"o":"m 22 994 l 133 994 b 179 963 158 994 174 982 l 385 270 b 403 184 392 244 398 216 b 425 270 410 217 417 246 l 658 963 b 704 994 664 979 681 994 l 743 994 b 789 963 767 994 781 982 l 1022 270 b 1044 188 1031 246 1038 218 b 1061 270 1049 218 1055 246 l 1267 963 b 1312 994 1272 980 1289 994 l 1417 994 l 1106 0 l 985 0 l 733 760 b 720 810 728 774 725 792 b 706 760 715 792 711 774 l 453 0 l 332 0 m 665 1262 l 776 1262 l 942 1074 l 851 1074 b 808 1094 840 1074 824 1075 l 727 1192 l 719 1204 l 710 1192 l 629 1094 b 586 1074 613 1075 597 1074 l 499 1074 "},"ŵ":{"ha":1091,"x_min":0,"x_max":0,"o":"m 120 703 b 158 678 140 703 153 692 l 293 224 b 312 130 301 191 307 160 b 339 224 320 160 328 192 l 488 681 b 521 705 492 697 505 705 l 575 705 b 610 681 592 705 605 697 l 756 224 b 781 130 766 192 774 160 b 801 224 786 160 793 191 l 939 678 b 975 703 944 692 958 703 l 1068 703 l 840 0 l 742 0 b 717 24 731 0 722 8 l 562 501 b 546 566 554 523 551 544 b 530 501 541 544 538 523 l 372 24 b 344 0 367 8 358 0 l 251 0 l 23 703 m 335 812 l 490 994 l 605 994 l 760 812 l 677 812 b 646 825 667 812 656 815 l 560 917 b 549 930 557 922 553 925 b 538 917 544 925 541 920 l 451 825 b 420 812 442 816 431 812 "},"Ŷ":{"ha":867,"x_min":0,"x_max":0,"o":"m 1 994 l 119 994 b 166 964 144 994 156 983 l 394 577 b 435 489 410 544 424 517 b 474 577 445 517 458 544 l 701 964 b 747 994 709 980 724 994 l 865 994 l 501 397 l 501 0 l 366 0 l 366 397 m 215 1074 l 381 1262 l 492 1262 l 658 1074 l 567 1074 b 524 1094 556 1074 540 1075 l 443 1192 l 435 1204 l 426 1192 l 345 1094 b 302 1074 329 1075 313 1074 "},"ŷ":{"ha":716,"x_min":0,"x_max":0,"o":"m 122 703 b 160 678 143 703 155 691 l 348 233 b 367 172 356 213 362 192 b 388 234 373 194 380 214 l 570 678 b 607 703 576 692 591 703 l 705 703 l 313 -208 b 268 -238 304 -226 294 -238 l 176 -238 l 305 41 l 15 703 m 164 812 l 319 994 l 434 994 l 589 812 l 506 812 b 475 825 496 812 485 815 l 390 917 b 378 930 386 922 382 925 b 367 917 374 925 370 920 l 281 825 b 249 812 271 816 260 812 "},"Ÿ":{"ha":867,"x_min":0,"x_max":0,"o":"m 119 994 b 166 964 144 994 156 983 l 394 577 b 435 489 410 544 424 517 b 474 577 445 517 458 544 l 701 964 b 747 994 709 980 724 994 l 865 994 l 501 397 l 501 0 l 366 0 l 366 397 l 1 994 m 503 1157 b 580 1234 503 1199 539 1234 b 656 1157 621 1234 656 1199 b 580 1082 656 1116 621 1082 b 503 1157 539 1082 503 1116 m 213 1157 b 288 1234 213 1199 249 1234 b 366 1157 330 1234 366 1199 b 288 1082 366 1116 330 1082 b 213 1157 249 1082 213 1116 "},"Ź":{"ha":836,"x_min":0,"x_max":0,"o":"m 37 52 b 50 92 37 67 42 80 l 615 885 l 63 885 l 63 994 l 792 994 l 792 945 b 777 901 792 931 787 915 l 214 109 l 783 109 l 783 0 l 37 0 m 693 1286 l 467 1088 b 423 1074 453 1074 442 1074 l 334 1074 l 495 1264 b 553 1286 510 1284 523 1286 "},"ź":{"ha":628,"x_min":0,"x_max":0,"o":"m 41 0 l 41 51 b 58 96 41 63 47 81 l 441 607 l 63 607 l 63 703 l 584 703 l 584 651 b 567 604 584 634 578 616 l 186 97 l 571 97 l 571 0 m 532 1006 l 370 827 b 327 808 357 813 347 808 l 253 808 l 356 976 b 411 1006 369 997 381 1006 "},"Ż":{"ha":836,"x_min":0,"x_max":0,"o":"m 37 52 b 50 92 37 67 42 80 l 615 885 l 63 885 l 63 994 l 792 994 l 792 945 b 777 901 792 931 787 915 l 214 109 l 783 109 l 783 0 l 37 0 m 515 1172 b 428 1088 515 1128 475 1088 b 345 1172 385 1088 345 1128 b 428 1257 345 1218 385 1257 b 515 1172 475 1257 515 1218 "},"ż":{"ha":628,"x_min":0,"x_max":0,"o":"m 40 0 l 40 51 b 57 96 40 63 46 81 l 440 607 l 62 607 l 62 703 l 583 703 l 583 651 b 567 604 583 634 577 616 l 185 97 l 570 97 l 570 0 m 417 930 b 328 842 417 882 376 842 b 242 930 281 842 242 882 b 328 1018 242 978 281 1018 b 417 930 376 1018 417 978 "},"Ž":{"ha":836,"x_min":0,"x_max":0,"o":"m 37 0 l 37 52 b 50 92 37 67 42 80 l 615 885 l 63 885 l 63 994 l 792 994 l 792 945 b 777 901 792 931 787 915 l 214 109 l 783 109 l 783 0 m 298 1262 b 338 1246 309 1262 326 1262 l 422 1140 b 431 1128 425 1135 428 1132 b 439 1140 433 1132 436 1135 l 523 1246 b 563 1262 535 1262 552 1262 l 653 1262 l 488 1074 l 374 1074 l 208 1262 "},"ž":{"ha":628,"x_min":0,"x_max":0,"o":"m 40 51 b 57 96 40 63 46 81 l 440 607 l 62 607 l 62 703 l 583 703 l 583 651 b 567 604 583 634 577 616 l 185 97 l 570 97 l 570 0 l 40 0 m 202 994 b 230 985 213 994 224 990 l 319 890 b 331 876 324 885 326 881 b 342 890 335 881 338 885 l 431 985 b 459 994 438 990 449 994 l 542 994 l 387 812 l 272 812 l 117 994 "},"ſ":{"ha":394,"x_min":0,"x_max":0,"o":"m 34 690 l 145 690 l 145 758 b 386 1010 145 919 239 1010 b 474 996 418 1010 447 1005 l 469 932 b 440 918 467 920 457 918 b 407 919 429 918 420 919 b 269 754 322 919 269 875 l 269 0 l 145 0 l 145 599 l 67 608 b 34 639 47 611 34 620 "},"ƀ":{"ha":778,"x_min":0,"x_max":0,"o":"m -6 872 l 98 872 l 98 1023 l 222 1023 l 222 872 l 386 872 l 386 794 l 222 794 l 222 586 b 452 699 280 655 355 699 b 718 349 614 699 718 583 b 415 -10 718 141 604 -10 b 215 90 324 -10 263 26 l 209 26 b 178 0 206 9 195 0 l 98 0 l 98 794 l -6 794 m 222 170 b 387 86 268 108 320 86 b 590 349 517 86 590 176 b 411 601 590 533 526 601 b 222 494 331 601 272 563 l 222 170 "},"Ɓ":{"ha":1106,"x_min":0,"x_max":0,"o":"m 32 764 b 315 995 32 905 134 995 l 652 995 b 1003 735 897 995 1003 897 b 817 513 1003 640 942 551 b 1036 283 961 485 1036 408 b 687 0 1036 115 909 0 l 335 0 l 335 896 l 315 896 b 146 763 197 896 146 849 b 156 699 146 739 151 715 b 133 656 161 682 160 664 l 57 640 b 32 764 41 682 32 717 m 469 106 l 685 106 b 903 287 838 106 903 181 b 684 454 903 390 831 454 l 469 454 m 469 890 l 469 549 l 647 549 b 869 719 799 549 869 619 b 652 890 869 836 800 890 "},"Ƃ":{"ha":861,"x_min":0,"x_max":0,"o":"m 126 0 l 126 995 l 770 995 l 770 890 l 261 890 l 261 567 l 455 567 b 803 299 697 567 803 455 b 454 0 803 115 677 0 m 261 460 l 261 106 l 454 106 b 671 285 608 106 671 180 b 455 460 671 397 608 460 "},"ƃ":{"ha":778,"x_min":0,"x_max":0,"o":"m 661 1022 l 661 933 l 222 933 l 222 601 b 452 714 280 669 355 714 b 719 356 615 714 719 590 b 415 -10 719 149 605 -10 b 215 90 324 -10 263 26 l 209 26 b 178 0 206 9 195 0 l 98 0 l 98 1022 m 222 170 b 387 86 268 108 320 86 b 591 356 518 86 591 184 b 412 616 591 540 525 616 b 222 510 331 616 272 577 "},"Ƅ":{"ha":936,"x_min":0,"x_max":0,"o":"m 39 752 l 223 995 l 322 995 l 322 630 l 531 630 b 899 318 777 630 899 487 b 540 0 899 138 775 0 l 187 0 l 187 658 m 538 106 b 766 322 704 106 766 215 b 538 524 766 425 697 524 l 322 524 l 322 106 "},"ƅ":{"ha":799,"x_min":0,"x_max":0,"o":"m -17 799 l 150 1022 l 242 1022 l 242 601 b 473 714 301 669 376 714 b 740 356 636 714 740 590 b 435 -10 740 149 626 -10 b 236 90 344 -10 285 26 l 230 26 b 199 0 226 9 216 0 l 119 0 l 119 713 m 433 616 b 242 510 352 616 294 577 l 242 170 b 408 86 289 108 341 86 b 612 356 539 86 612 184 b 433 616 612 540 546 616 "},"Ɔ":{"ha":935,"x_min":0,"x_max":0,"o":"m 109 206 b 132 194 117 206 124 201 b 387 104 202 133 267 104 b 731 498 581 104 731 250 b 383 890 731 743 588 890 b 124 803 213 890 157 803 b 95 818 110 803 101 810 l 51 881 b 382 1006 134 958 240 1006 b 869 498 671 1006 869 798 b 395 -11 869 197 681 -11 b 36 139 231 -11 117 44 l 90 197 b 109 206 95 203 101 206 "},"Ƈ":{"ha":933,"x_min":0,"x_max":0,"o":"m 541 -11 b 67 498 256 -11 67 197 b 554 1006 67 798 265 1006 b 774 957 640 1006 711 988 b 774 985 774 966 774 974 b 974 1212 774 1106 826 1212 b 1107 1187 1028 1212 1065 1203 l 1090 1118 b 1061 1093 1085 1099 1074 1093 b 1047 1095 1056 1093 1051 1094 b 988 1103 1029 1101 1007 1103 b 884 956 915 1103 884 1051 l 884 881 l 840 818 b 812 803 834 810 826 803 b 553 890 778 803 723 890 b 205 498 349 890 205 743 b 549 104 205 250 356 104 b 803 194 669 104 735 133 b 826 206 811 201 818 206 b 847 197 834 206 840 203 l 899 139 b 541 -11 818 44 705 -11 "},"ƈ":{"ha":667,"x_min":0,"x_max":0,"o":"m 369 -10 b 59 353 194 -10 59 123 b 390 715 59 562 177 715 b 513 693 436 715 477 707 l 513 750 b 696 966 513 865 562 966 b 810 941 733 966 769 958 l 797 888 b 768 863 791 867 778 863 b 703 874 756 863 734 874 b 621 756 641 874 621 830 l 621 624 l 588 578 b 562 563 581 568 575 563 b 397 619 534 563 501 619 b 186 353 260 619 186 517 b 391 86 186 183 266 86 b 570 156 512 86 537 156 b 594 144 581 156 589 151 l 629 99 b 369 -10 568 24 471 -10 "},"Ɖ":{"ha":1067,"x_min":0,"x_max":0,"o":"m 138 541 l 138 994 l 510 994 b 1001 497 803 994 1001 795 b 510 0 1001 199 803 0 l 138 0 l 138 463 l 2 463 l 2 541 m 510 108 b 863 497 724 108 863 253 b 510 886 863 742 724 886 l 274 886 l 274 541 l 475 541 l 475 463 l 274 463 l 274 108 "},"Ɗ":{"ha":1264,"x_min":0,"x_max":0,"o":"m 57 639 b 32 764 41 681 32 717 b 315 994 32 904 134 994 l 707 994 b 1198 497 1000 994 1198 795 b 707 0 1198 199 1000 0 l 335 0 l 335 896 l 315 896 b 146 763 197 896 146 848 b 156 699 146 738 151 714 b 133 656 160 681 160 663 m 470 886 l 470 108 l 707 108 b 1060 497 922 108 1060 253 b 707 886 1060 742 922 886 "},"Ƌ":{"ha":861,"x_min":0,"x_max":0,"o":"m 407 0 b 58 299 185 0 58 115 b 406 567 58 455 165 567 l 600 567 l 600 890 l 92 890 l 92 995 l 735 995 l 735 0 l 407 0 m 190 285 b 407 106 190 180 253 106 l 600 106 l 600 460 l 406 460 b 190 285 253 460 190 397 "},"ƌ":{"ha":778,"x_min":0,"x_max":0,"o":"m 60 349 b 363 716 60 557 174 716 b 556 633 449 716 508 685 l 556 933 l 117 933 l 117 1022 l 680 1022 l 680 0 l 606 0 b 573 26 589 0 578 8 l 562 111 b 326 -10 501 39 426 -10 b 60 349 164 -10 60 115 m 188 349 b 367 90 188 166 253 90 b 556 197 447 90 506 128 l 556 536 b 391 620 510 598 458 620 b 188 349 260 620 188 522 "},"ƍ":{"ha":719,"x_min":0,"x_max":0,"o":"m 473 153 b 31 678 473 287 31 323 b 357 1001 31 870 158 1001 b 685 674 566 1001 685 860 b 433 349 685 517 601 407 b 590 154 518 299 590 246 b 351 -9 590 63 520 -9 b 114 17 288 -9 187 2 l 124 91 b 158 119 126 114 136 119 b 359 88 181 119 282 88 b 473 153 443 88 473 117 m 155 683 b 352 395 155 533 251 456 b 558 670 461 434 558 515 b 357 907 558 798 493 907 b 155 683 238 907 155 822 "},"Ǝ":{"ha":799,"x_min":0,"x_max":0,"o":"m 537 109 l 537 449 l 150 449 l 150 555 l 537 555 l 537 885 l 59 885 l 59 994 l 672 994 l 672 0 l 59 0 l 58 109 "},"Ə":{"ha":1003,"x_min":0,"x_max":0,"o":"m 61 432 b 103 499 61 485 72 499 l 798 499 b 450 890 792 757 660 890 b 150 790 269 890 198 790 b 117 806 135 790 125 796 l 77 856 b 465 1009 176 966 317 1009 b 936 479 739 1009 936 821 b 474 -10 936 203 763 -10 b 61 432 238 -10 61 151 m 191 405 b 475 103 191 223 305 103 b 794 405 660 103 772 222 "},"Ɛ":{"ha":824,"x_min":0,"x_max":0,"o":"m 426 -10 b 70 289 239 -10 70 97 b 269 542 70 403 147 499 b 92 744 140 578 92 660 b 451 1006 92 885 226 1006 b 765 897 594 1006 692 963 l 735 844 b 701 822 723 824 711 822 b 449 894 669 822 615 894 b 234 737 302 894 234 822 b 462 585 234 638 326 585 l 624 585 l 624 488 l 451 488 b 208 301 287 488 208 394 b 461 103 208 189 301 103 b 693 197 607 103 668 176 b 717 207 701 203 709 207 b 736 199 724 207 731 204 l 785 141 b 426 -10 704 36 574 -10 "},"Ƒ":{"ha":785,"x_min":0,"x_max":0,"o":"m -78 -160 b -50 -135 -74 -140 -63 -135 b -35 -137 -45 -135 -40 -135 b 24 -145 -18 -142 4 -145 b 127 3 96 -145 127 -92 l 127 994 l 740 994 l 740 885 l 263 885 l 263 537 l 671 537 l 671 428 l 263 428 l 263 3 b 42 -253 263 -149 192 -253 b -96 -228 -16 -253 -54 -245 "},"ƒ":{"ha":469,"x_min":0,"x_max":0,"o":"m -82 -196 b -54 -172 -77 -176 -66 -172 b 11 -182 -42 -172 -24 -182 b 130 -35 89 -182 130 -135 l 130 599 l 52 608 b 19 639 32 611 19 620 l 19 690 l 130 690 l 130 758 b 371 1010 130 919 224 1010 b 458 996 402 1010 431 1005 l 456 934 b 413 915 453 915 438 915 l 392 915 b 250 754 306 915 250 874 l 250 690 l 453 690 l 453 600 l 253 600 l 253 -22 b 22 -274 253 -174 181 -274 b -96 -249 -22 -274 -55 -267 "},"Ɠ":{"ha":1019,"x_min":0,"x_max":0,"o":"m 65 497 b 574 1006 65 801 263 1006 b 817 956 672 1006 750 989 b 816 985 816 965 816 974 b 1017 1212 816 1106 869 1212 b 1149 1187 1070 1212 1107 1203 l 1132 1118 b 1103 1093 1127 1099 1117 1093 b 1089 1095 1099 1093 1094 1094 b 1030 1103 1072 1101 1049 1103 b 926 956 958 1103 926 1051 l 926 881 l 888 820 b 858 801 881 808 871 801 b 833 808 849 801 841 803 b 570 890 789 834 724 890 b 203 497 345 890 203 739 b 567 97 203 245 353 97 b 814 156 675 97 745 119 l 814 376 l 660 376 b 631 402 641 376 631 388 l 631 478 l 935 478 l 935 97 b 558 -11 835 24 723 -11 b 65 497 269 -11 65 197 "},"Ɣ":{"ha":930,"x_min":0,"x_max":0,"o":"m 108 994 b 145 974 128 994 135 988 l 473 494 l 792 974 b 824 994 801 987 810 994 l 952 994 l 547 404 l 837 0 l 94 0 l 388 411 l -22 994 m 634 102 b 613 123 626 108 619 115 l 463 334 b 435 281 456 315 448 297 l 320 118 b 301 102 316 113 310 107 "},"ƕ":{"ha":1187,"x_min":0,"x_max":0,"o":"m 98 1022 l 222 1022 l 222 609 b 448 714 282 673 353 714 b 683 448 603 714 683 608 l 683 255 b 828 83 683 142 733 83 b 972 255 923 83 972 142 l 972 703 l 1096 703 l 1096 255 b 828 -11 1096 96 1013 -11 b 560 255 643 -11 560 96 l 560 448 b 412 616 560 554 512 616 b 222 518 339 616 275 579 l 222 0 l 98 0 "},"Ɩ":{"ha":444,"x_min":0,"x_max":0,"o":"m 122 994 l 257 994 l 257 210 b 363 94 257 131 290 94 l 423 94 l 423 49 b 312 -8 423 6 376 -8 b 122 203 188 -8 122 78 "},"Ɨ":{"ha":514,"x_min":0,"x_max":0,"o":"m 190 549 l 190 994 l 325 994 l 325 549 l 467 549 l 467 469 l 325 469 l 325 0 l 190 0 l 190 469 l 47 469 l 47 549 "},"Ƙ":{"ha":951,"x_min":0,"x_max":0,"o":"m 262 996 l 262 559 l 312 559 b 390 594 347 559 368 564 l 584 878 b 822 1004 640 969 717 1004 b 939 983 876 1004 911 995 l 927 915 b 897 891 922 896 910 891 b 884 892 892 891 889 892 b 828 900 870 897 849 900 b 705 835 775 900 735 877 l 526 578 b 463 523 508 551 488 533 b 535 469 492 514 513 497 l 922 0 l 806 0 b 744 28 770 0 758 10 l 409 421 b 328 456 390 445 372 456 l 262 456 l 262 0 l 127 0 l 127 996 "},"ƙ":{"ha":706,"x_min":0,"x_max":0,"o":"m 98 0 l 98 752 b 329 1005 98 904 171 1005 b 447 980 374 1005 406 997 l 433 926 b 406 902 428 906 417 902 b 340 913 394 902 376 913 b 222 766 263 913 222 865 l 222 420 l 253 420 b 297 440 272 420 283 424 l 519 678 b 568 703 532 694 545 703 l 680 703 l 422 427 b 381 391 410 412 397 400 b 422 347 398 380 410 366 l 697 0 l 587 0 b 540 24 565 0 551 6 l 309 313 b 257 337 294 333 285 337 l 222 337 l 222 0 "},"ƚ":{"ha":381,"x_min":0,"x_max":0,"o":"m 22 465 l 22 554 l 124 554 l 124 1022 l 247 1022 l 247 554 l 358 554 l 358 465 l 247 465 l 247 0 l 124 0 l 124 465 "},"ƛ":{"ha":747,"x_min":0,"x_max":0,"o":"m 10 0 l 282 641 l 256 713 l 126 665 l 100 739 l 229 786 l 210 839 b 100 913 190 894 165 913 l 51 913 l 51 959 b 132 1006 51 984 67 1006 b 310 887 208 1006 277 979 l 333 824 l 467 873 l 493 799 l 361 751 l 580 163 b 678 85 600 108 626 85 l 721 85 l 721 35 b 649 -7 721 1 699 -7 b 477 125 583 -7 516 17 l 351 461 b 336 517 344 481 340 499 b 319 463 332 499 326 480 l 156 26 b 117 0 150 13 138 0 "},"Ɯ":{"ha":1499,"x_min":0,"x_max":0,"o":"m 252 994 l 252 362 b 458 94 252 188 333 94 b 676 362 580 94 676 185 l 676 994 l 811 994 l 811 362 b 1006 94 811 197 876 94 b 1237 304 1106 94 1190 166 l 1237 994 l 1372 994 l 1372 2 l 1303 2 b 1259 38 1279 2 1265 14 l 1244 165 b 978 -10 1183 58 1099 -10 b 724 178 849 -10 764 62 b 431 -10 666 46 547 -10 b 117 362 223 -10 117 124 l 117 994 "},"Ɲ":{"ha":1060,"x_min":0,"x_max":0,"o":"m -78 -181 b -50 -156 -74 -161 -63 -156 b -35 -158 -45 -156 -40 -156 b 24 -166 -18 -163 4 -166 b 127 -17 96 -166 127 -112 l 127 995 l 197 995 b 243 973 220 995 228 992 l 819 222 b 815 290 817 246 815 269 l 815 995 l 933 995 l 933 1 l 865 1 b 818 25 844 1 831 8 l 242 776 b 245 711 244 753 245 730 l 245 -17 b 37 -274 245 -169 185 -274 b -96 -249 -17 -274 -53 -265 "},"ƞ":{"ha":826,"x_min":0,"x_max":0,"o":"m 28 667 b 94 710 28 689 45 710 b 252 598 172 710 231 675 b 499 714 316 667 399 714 b 735 448 654 714 735 608 l 735 -238 l 611 -238 l 611 448 b 463 616 611 554 563 616 b 273 518 390 616 326 579 l 273 0 l 149 0 l 149 513 b 58 617 149 585 119 617 l 28 617 "},"Ɵ":{"ha":1112,"x_min":0,"x_max":0,"o":"m 556 -10 b 65 498 265 -10 65 199 b 556 1006 65 796 265 1006 b 1047 498 849 1006 1047 796 b 556 -10 1047 199 849 -10 m 204 456 b 556 106 219 237 356 106 b 907 456 758 106 892 237 m 906 558 b 556 890 885 766 752 890 b 206 558 360 890 228 766 "},"Ơ":{"ha":1178,"x_min":0,"x_max":0,"o":"m 556 -10 b 65 497 265 -10 65 199 b 556 1006 65 795 265 1006 b 919 856 708 1006 832 951 b 1026 944 986 866 1026 899 b 994 1033 1026 982 994 991 b 1069 1093 994 1073 1019 1093 l 1138 1093 b 1149 1017 1145 1072 1149 1044 b 964 797 1149 903 1081 823 b 1047 497 1017 714 1047 613 b 556 -10 1047 199 849 -10 m 556 890 b 203 497 343 890 203 742 b 556 106 203 252 343 106 b 908 497 770 106 908 252 b 556 890 908 742 770 890 "},"ơ":{"ha":850,"x_min":0,"x_max":0,"o":"m 58 352 b 394 715 58 572 189 715 b 660 591 511 715 601 669 b 754 678 720 601 754 634 b 722 756 754 708 722 717 b 790 810 722 792 744 810 l 855 810 b 864 740 860 792 864 766 b 691 538 864 635 803 560 b 729 352 717 484 729 422 b 394 -10 729 131 600 -10 b 58 352 189 -10 58 131 m 394 618 b 186 351 254 618 186 519 b 394 87 186 185 255 87 b 601 351 533 87 601 185 b 394 618 601 519 533 618 "},"Ƣ":{"ha":1388,"x_min":0,"x_max":0,"o":"m 67 497 b 522 1006 67 795 243 1006 b 820 897 643 1006 743 966 b 1048 1004 882 960 956 1004 b 1267 758 1193 1004 1267 908 l 1267 -242 l 1132 -242 l 1132 758 b 1020 894 1132 835 1097 894 b 880 829 969 894 922 868 b 976 497 942 742 976 630 b 522 -10 976 199 799 -10 b 67 497 243 -10 67 199 m 522 894 b 204 497 331 894 204 742 b 522 102 204 253 331 102 b 838 497 710 102 838 253 b 522 894 838 742 710 894 "},"ƣ":{"ha":1099,"x_min":0,"x_max":0,"o":"m 58 353 b 394 715 58 574 189 715 b 625 630 489 715 569 685 b 809 715 677 685 733 715 b 1006 469 944 715 1006 617 l 1006 -238 l 883 -238 l 883 469 b 782 615 883 547 859 615 b 674 566 740 615 706 596 l 674 234 b 394 -10 674 131 601 -10 b 58 353 189 -10 58 131 m 186 352 b 394 87 186 185 255 87 b 550 233 533 87 550 185 l 550 547 b 394 618 522 585 476 618 b 186 352 254 618 186 519 "},"Ƥ":{"ha":1042,"x_min":0,"x_max":0,"o":"m 32 764 b 315 995 32 905 134 995 l 628 995 b 1000 687 881 995 1000 875 b 628 372 1000 503 869 372 l 469 372 l 469 0 l 335 0 l 335 896 l 315 896 b 146 763 197 896 146 848 b 156 699 146 738 151 714 b 133 656 160 681 160 662 l 57 639 b 32 764 41 683 32 717 m 469 890 l 469 478 l 628 478 b 865 687 782 478 865 564 b 628 890 865 815 788 890 "},"ƥ":{"ha":778,"x_min":0,"x_max":0,"o":"m 98 752 b 330 1005 98 904 171 1005 b 447 980 374 1005 406 997 l 434 926 b 406 902 428 906 417 902 b 341 913 394 902 376 913 b 222 766 263 913 222 865 l 222 601 b 452 714 280 669 355 714 b 719 356 615 714 719 590 b 415 -10 719 149 605 -10 b 222 83 326 -10 269 24 l 222 -238 l 98 -238 m 412 616 b 222 510 331 616 272 577 l 222 170 b 387 86 268 108 320 86 b 591 356 518 86 591 184 b 412 616 591 540 525 616 "},"Ʀ":{"ha":830,"x_min":0,"x_max":0,"o":"m 127 1005 l 262 1005 l 262 844 l 408 844 b 773 569 660 844 773 738 b 528 287 773 427 682 322 b 572 244 545 276 559 263 l 863 -151 l 743 -151 b 689 -122 719 -151 701 -141 l 431 233 b 364 265 415 256 401 265 l 262 265 l 262 0 l 127 0 m 262 363 l 403 363 b 642 559 559 363 642 442 b 408 738 642 678 564 738 l 262 738 "},"Ƨ":{"ha":747,"x_min":0,"x_max":0,"o":"m 88 903 b 360 1006 157 970 249 1006 b 668 737 557 1006 668 878 b 189 265 668 388 189 511 b 384 100 189 160 263 100 b 630 200 538 100 591 200 b 661 183 643 200 653 193 l 700 119 b 388 -11 625 39 517 -11 b 55 280 178 -11 55 107 b 535 740 55 605 535 511 b 358 895 535 826 475 895 b 151 819 231 895 183 819 b 121 840 138 819 129 826 "},"ƨ":{"ha":602,"x_min":0,"x_max":0,"o":"m 550 75 b 304 -11 494 24 410 -11 b 49 190 142 -11 49 73 b 423 524 49 425 423 380 b 284 622 423 580 370 622 b 122 572 190 622 152 572 b 98 588 112 572 104 577 l 70 633 b 295 714 124 683 199 714 b 540 521 451 714 540 634 b 165 187 540 292 165 346 b 313 77 165 129 212 77 b 490 140 423 77 455 140 b 522 122 503 140 514 134 "},"Ʃ":{"ha":844,"x_min":0,"x_max":0,"o":"m 63 898 b 46 938 53 909 46 924 l 46 995 l 792 995 l 792 890 l 298 890 b 188 899 256 890 223 893 b 281 826 226 878 255 856 l 482 574 b 516 509 510 540 515 525 b 481 438 516 490 511 471 l 256 159 b 191 99 228 126 211 110 b 283 106 226 103 256 106 l 792 106 l 792 0 l 46 0 l 46 51 b 71 107 46 71 57 91 l 398 497 l 63 898 "},"ƪ":{"ha":472,"x_min":0,"x_max":0,"o":"m -76 849 b 149 1061 -76 977 16 1061 b 374 831 283 1061 374 976 l 374 -15 b 492 -161 374 -114 415 -161 b 558 -151 528 -161 546 -151 b 585 -176 569 -151 581 -154 l 599 -229 b 481 -254 558 -247 526 -254 b 250 -1 323 -254 250 -152 l 250 685 b 129 648 217 660 177 648 b -76 849 7 648 -76 729 m 40 853 b 145 736 40 776 81 736 b 251 854 211 736 251 776 b 147 971 251 930 213 971 b 40 853 81 971 40 931 "},"ƫ":{"ha":512,"x_min":0,"x_max":0,"o":"m 30 676 l 145 691 l 174 908 b 202 932 176 922 186 932 l 265 932 l 265 690 l 469 690 l 469 600 l 265 600 l 265 177 b 342 90 265 119 297 90 b 431 124 396 90 415 124 l 485 124 l 485 -37 b 302 -253 485 -151 437 -253 b 192 -228 265 -253 232 -246 l 201 -179 b 230 -154 207 -158 219 -154 b 295 -165 242 -154 264 -165 b 378 -46 354 -165 378 -124 l 378 6 b 301 -11 355 -6 329 -11 b 141 169 204 -11 141 53 l 141 600 l 56 600 b 30 627 42 600 30 610 "},"Ƭ":{"ha":928,"x_min":0,"x_max":0,"o":"m 58 639 b 33 764 42 681 33 717 b 317 994 33 904 134 994 l 908 994 l 908 883 l 586 883 l 586 0 l 451 0 l 451 883 l 317 883 b 147 761 192 883 147 842 b 157 699 147 739 152 714 b 134 656 162 681 161 663 l 58 639 "},"ƭ":{"ha":498,"x_min":0,"x_max":0,"o":"m 146 691 l 168 846 b 341 1006 184 955 243 1006 b 448 984 385 1006 413 1000 l 439 935 b 410 910 433 913 421 910 b 350 920 399 910 383 920 b 265 799 291 920 265 880 l 265 690 l 467 690 l 467 600 l 265 600 l 265 177 b 341 90 265 118 297 90 b 430 124 394 90 415 124 b 448 112 438 124 442 119 l 484 53 b 313 -11 442 13 378 -11 b 141 169 203 -11 141 52 l 141 600 l 56 600 b 30 627 42 600 30 610 l 30 676 "},"Ʈ":{"ha":820,"x_min":0,"x_max":0,"o":"m 21 883 l 21 994 l 800 994 l 800 883 l 478 883 l 478 -35 b 590 -181 478 -126 513 -181 b 656 -172 623 -181 644 -172 b 684 -196 666 -172 678 -174 l 698 -249 b 576 -274 656 -267 621 -274 b 344 -22 410 -274 344 -172 l 344 883 "},"Ư":{"ha":1167,"x_min":0,"x_max":0,"o":"m 115 995 l 249 995 l 249 391 b 511 106 249 224 347 106 b 773 390 676 106 773 224 l 773 995 l 908 995 l 908 853 b 1051 944 997 855 1051 891 b 1019 1033 1051 982 1019 992 b 1094 1093 1019 1073 1044 1093 l 1163 1093 b 1174 1017 1171 1072 1174 1044 b 908 788 1174 880 1074 790 l 908 390 b 511 -12 908 160 756 -12 b 115 390 266 -12 115 160 "},"ư":{"ha":880,"x_min":0,"x_max":0,"o":"m 215 703 l 215 255 b 363 87 215 149 263 87 b 553 185 435 87 499 124 l 553 703 l 676 703 l 676 588 b 789 678 748 594 789 631 b 757 756 789 709 757 715 b 825 810 757 790 778 810 l 890 810 b 899 740 895 792 899 766 b 676 532 899 620 819 540 l 676 0 l 603 0 b 569 26 585 0 574 8 l 560 102 b 326 -11 499 33 425 -11 b 91 255 173 -11 91 96 l 91 703 "},"Ʊ":{"ha":1122,"x_min":0,"x_max":0,"o":"m 73 882 l 73 951 b 119 994 73 976 91 994 l 480 994 l 480 840 b 215 455 329 813 215 651 b 560 105 215 222 376 105 b 907 455 746 105 907 222 b 642 840 907 651 792 813 l 642 994 l 1003 994 b 1049 951 1031 994 1049 976 l 1049 882 l 851 882 b 745 891 817 882 781 886 b 1040 453 931 829 1040 645 b 561 -11 1040 175 826 -11 b 81 453 297 -11 81 175 b 376 891 81 650 190 823 b 271 882 341 886 305 882 "},"Ʋ":{"ha":1008,"x_min":0,"x_max":0,"o":"m 585 981 b 711 1006 628 997 664 1006 b 942 710 872 1006 942 901 b 378 -12 942 299 658 -12 b 118 315 219 -12 118 88 l 118 995 l 253 995 l 253 315 b 398 103 253 163 306 103 b 808 717 586 103 808 349 b 703 898 808 819 790 898 b 645 890 684 898 663 895 b 631 888 640 888 635 888 b 602 913 617 888 607 893 "},"Ƴ":{"ha":1002,"x_min":0,"x_max":0,"o":"m 1 994 l 119 994 b 165 963 143 994 155 982 l 393 576 b 433 490 410 544 423 517 b 474 576 444 518 457 546 l 646 861 b 863 1005 705 963 769 1005 b 985 980 911 1005 943 997 l 968 915 b 940 890 963 896 953 890 b 925 892 935 890 930 891 b 867 903 910 897 889 903 b 760 828 821 903 789 876 l 500 397 l 500 0 l 365 0 l 365 397 "},"ƴ":{"ha":839,"x_min":0,"x_max":0,"o":"m 121 703 b 159 678 142 703 154 691 l 347 234 b 366 172 355 214 361 194 b 387 235 372 193 379 214 l 535 591 b 717 715 561 661 615 715 b 824 693 759 715 788 708 l 815 643 b 786 618 809 622 797 618 b 726 628 774 618 759 628 b 650 576 694 628 669 618 l 312 -208 b 267 -238 303 -226 293 -238 l 176 -238 l 304 41 l 14 703 "},"Ƶ":{"ha":842,"x_min":0,"x_max":0,"o":"m 40 52 b 53 92 40 67 45 80 l 315 460 l 86 460 l 86 561 l 387 561 l 617 885 l 66 885 l 66 994 l 794 994 l 794 945 b 779 901 794 929 789 915 l 538 561 l 769 561 l 769 460 l 465 460 l 216 109 l 785 109 l 785 0 l 40 0 "},"ƶ":{"ha":634,"x_min":0,"x_max":0,"o":"m 42 51 b 60 96 42 63 49 81 l 231 324 l 66 324 l 66 410 l 295 410 l 442 607 l 64 607 l 64 703 l 585 703 l 585 651 b 569 604 585 634 579 616 l 423 410 l 569 410 l 569 324 l 358 324 l 188 97 l 572 97 l 572 0 l 42 0 "},"Ʒ":{"ha":815,"x_min":0,"x_max":0,"o":"m 367 -10 b 36 141 230 -10 109 48 l 89 199 b 112 210 98 210 106 210 b 144 194 122 210 128 208 b 365 103 174 160 246 103 b 615 328 525 103 615 207 b 356 515 615 434 547 515 l 243 515 l 243 572 b 263 617 243 586 248 602 l 537 885 l 65 885 l 65 994 l 724 994 l 724 945 b 703 894 724 929 722 912 l 413 613 b 752 335 656 606 752 488 b 367 -10 752 125 576 -10 "},"Ƹ":{"ha":816,"x_min":0,"x_max":0,"o":"m 64 335 b 403 613 64 488 160 606 l 113 894 b 92 945 94 912 92 929 l 92 994 l 751 994 l 751 885 l 279 885 l 553 617 b 573 572 568 602 573 586 l 573 515 l 460 515 b 201 328 270 515 201 434 b 451 103 201 207 292 103 b 672 194 572 103 642 160 b 704 210 688 208 694 210 b 727 199 710 210 718 210 l 780 141 b 449 -10 707 48 587 -10 b 64 335 240 -10 64 125 "},"ƹ":{"ha":611,"x_min":0,"x_max":0,"o":"m 383 -251 b 47 58 167 -251 47 -116 b 342 322 47 208 140 315 l 113 597 b 88 651 99 612 88 630 l 88 703 l 588 703 l 588 607 l 238 607 l 475 313 b 492 278 486 303 492 291 l 492 238 l 369 238 b 169 50 229 238 169 162 b 381 -159 169 -81 251 -159 b 562 -101 494 -159 526 -101 b 594 -119 575 -101 586 -107 l 622 -166 b 383 -251 567 -216 494 -251 "},"ƺ":{"ha":607,"x_min":0,"x_max":0,"o":"m 24 -90 b 242 85 24 6 92 71 b 430 222 375 99 430 147 b 270 337 430 294 378 337 l 158 337 l 158 376 b 176 410 158 390 164 401 l 387 607 l 29 607 l 29 703 l 527 703 l 527 651 b 502 597 527 630 518 610 l 310 420 b 551 222 480 411 551 336 b 273 -14 551 92 460 6 b 135 -90 163 -25 135 -53 b 242 -158 135 -129 171 -158 b 316 -147 286 -158 305 -147 b 344 -172 326 -147 338 -151 l 359 -228 b 236 -253 319 -245 285 -253 b 24 -90 99 -253 24 -194 "},"ƻ":{"ha":800,"x_min":0,"x_max":0,"o":"m 48 42 b 71 95 48 59 55 79 l 399 424 l 72 424 l 72 522 l 485 522 b 565 726 535 588 565 650 b 387 901 565 844 487 901 b 195 751 284 901 215 838 b 149 713 186 724 173 713 b 133 715 144 713 139 714 l 68 726 b 394 1006 94 908 224 1006 b 692 729 563 1006 692 904 b 622 522 692 649 665 583 l 750 522 l 750 424 l 541 424 b 486 368 522 406 505 387 l 224 101 b 335 117 260 111 299 117 l 668 117 b 712 74 695 117 712 100 l 712 0 l 48 0 "},"Ƽ":{"ha":799,"x_min":0,"x_max":0,"o":"m 88 194 b 110 206 97 204 103 206 b 133 196 118 206 126 203 b 366 103 165 169 232 103 b 606 330 533 103 606 213 b 366 525 606 453 516 525 b 191 499 310 525 249 517 l 113 522 l 224 891 b 170 889 207 890 189 889 l 125 889 b 74 930 88 889 74 911 l 74 994 l 710 994 l 710 941 b 638 881 710 906 690 881 l 342 881 l 265 625 b 380 636 306 633 344 636 b 738 330 619 636 738 506 b 379 -11 738 126 570 -11 b 41 140 224 -11 114 47 "},"ƽ":{"ha":615,"x_min":0,"x_max":0,"o":"m 78 144 b 100 156 87 155 94 156 b 121 147 108 156 115 152 b 290 80 142 128 201 80 b 447 221 398 80 447 146 b 283 351 447 302 388 351 b 164 333 244 351 201 345 l 91 353 l 172 610 b 141 608 162 609 152 608 l 115 608 b 67 647 79 608 67 629 l 67 703 l 541 703 l 541 660 b 473 605 541 628 522 605 l 276 605 l 223 435 b 306 441 251 439 278 441 b 561 232 476 441 561 354 b 291 -8 561 81 440 -8 b 42 106 193 -8 103 31 "},"ƾ":{"ha":615,"x_min":0,"x_max":0,"o":"m 66 137 b 90 149 72 144 79 149 b 282 81 120 149 176 81 b 440 223 379 81 440 137 b 193 568 440 396 193 342 l 193 600 l 109 600 b 83 627 94 600 83 610 l 83 676 l 198 691 l 226 908 b 255 932 229 922 239 932 l 317 932 l 317 690 l 521 690 l 521 600 l 317 600 l 317 571 b 562 237 317 407 562 453 b 293 -12 562 90 453 -12 b 31 92 190 -12 82 31 "},"ƿ":{"ha":770,"x_min":0,"x_max":0,"o":"m 98 -238 l 98 703 l 172 703 b 205 677 190 703 201 694 l 216 594 b 469 715 277 667 360 715 b 719 465 611 715 719 628 b 222 -40 719 209 449 40 l 222 -238 m 428 616 b 222 509 344 616 275 578 l 222 63 b 591 447 424 142 591 268 b 428 616 591 558 527 616 "},"ǀ":{"ha":292,"x_min":0,"x_max":0,"o":"m 98 1065 l 194 1065 l 194 -242 l 98 -242 "},"ǁ":{"ha":709,"x_min":0,"x_max":0,"o":"m 515 1065 l 611 1065 l 611 -242 l 515 -242 m 98 -242 l 98 1065 l 194 1065 l 194 -242 "},"ǂ":{"ha":738,"x_min":0,"x_max":0,"o":"m 307 306 l 307 476 l 65 476 l 65 573 l 307 573 l 307 1022 l 431 1022 l 431 573 l 672 573 l 672 476 l 431 476 l 431 306 l 672 306 l 672 209 l 431 209 l 431 -271 l 307 -271 l 307 209 l 65 209 l 65 306 "},"ǃ":{"ha":283,"x_min":0,"x_max":0,"o":"m 201 994 l 201 597 b 185 347 201 514 194 443 l 101 347 b 84 597 90 443 84 514 l 84 994 m 53 76 b 140 163 53 124 91 163 b 227 76 188 163 227 124 b 140 -10 227 27 188 -10 b 53 76 91 -10 53 27 "},"Ǆ":{"ha":1910,"x_min":0,"x_max":0,"o":"m 127 0 l 127 994 l 499 994 b 990 497 792 994 990 795 b 499 0 990 199 792 0 m 263 108 l 499 108 b 851 497 713 108 851 253 b 499 886 851 742 713 886 l 263 886 m 1110 52 b 1124 92 1110 67 1116 80 l 1688 885 l 1137 885 l 1137 994 l 1865 994 l 1865 945 b 1851 901 1865 931 1860 915 l 1288 109 l 1856 109 l 1856 0 l 1110 0 m 1281 1262 l 1372 1262 b 1411 1246 1383 1262 1400 1262 l 1496 1140 b 1504 1128 1499 1135 1501 1132 b 1513 1140 1507 1132 1510 1135 l 1597 1246 b 1637 1262 1608 1262 1626 1262 l 1727 1262 l 1562 1074 l 1447 1074 "},"ǅ":{"ha":1688,"x_min":0,"x_max":0,"o":"m 499 994 b 990 497 792 994 990 795 b 499 0 990 199 792 0 l 127 0 l 127 994 m 263 886 l 263 108 l 499 108 b 851 497 713 108 851 253 b 499 886 851 742 713 886 m 1100 51 b 1117 96 1100 63 1106 81 l 1500 607 l 1122 607 l 1122 703 l 1643 703 l 1643 651 b 1626 604 1643 634 1637 616 l 1245 97 l 1630 97 l 1630 0 l 1100 0 m 1177 994 l 1263 994 b 1290 985 1274 994 1285 990 l 1379 890 b 1391 876 1384 885 1386 881 b 1403 890 1396 881 1398 885 l 1492 985 b 1519 994 1498 990 1509 994 l 1602 994 l 1447 812 l 1333 812 "},"ǆ":{"ha":1422,"x_min":0,"x_max":0,"o":"m 392 620 b 188 349 234 620 188 485 b 367 90 188 229 216 90 b 556 197 451 90 507 131 l 556 537 b 392 620 513 594 463 620 m 1365 0 l 835 0 l 835 51 b 851 96 835 67 842 83 l 1235 607 l 856 607 l 856 703 l 1378 703 l 1378 651 b 1374 626 1378 642 1376 634 b 1361 604 1370 617 1366 610 l 980 97 l 1365 97 m 326 -10 b 216 14 285 -10 249 -2 b 60 349 91 72 60 224 b 364 716 60 533 156 716 b 556 633 443 716 503 692 l 556 1023 l 680 1023 l 680 0 l 606 0 b 573 26 589 0 578 8 l 562 111 b 326 -10 501 37 424 -10 m 1067 812 l 911 994 l 997 994 b 1024 985 1008 994 1015 992 l 1113 890 b 1119 883 1115 888 1117 885 b 1125 876 1121 881 1123 878 b 1131 883 1127 878 1129 881 b 1137 890 1133 885 1135 888 l 1226 985 b 1238 992 1229 987 1233 990 b 1253 994 1243 994 1249 994 l 1336 994 l 1181 812 "},"Ǉ":{"ha":1333,"x_min":0,"x_max":0,"o":"m 127 0 l 127 994 l 262 994 l 262 113 l 692 113 l 692 0 m 903 -11 b 762 8 858 -11 810 -5 b 769 87 765 34 767 61 b 800 113 772 103 781 113 b 889 101 817 113 842 101 b 1081 340 1011 101 1081 173 l 1081 994 l 1216 994 l 1216 344 b 903 -11 1216 121 1105 -11 "},"ǈ":{"ha":1064,"x_min":0,"x_max":0,"o":"m 127 994 l 262 994 l 262 113 l 692 113 l 692 0 l 127 0 m 959 703 l 959 -53 b 760 -253 959 -164 902 -253 b 682 -239 730 -253 706 -248 l 687 -173 b 708 -159 689 -161 694 -159 b 735 -160 716 -159 724 -160 b 835 -53 808 -160 835 -128 l 835 703 m 985 925 b 896 838 985 877 943 838 b 809 925 849 838 809 877 b 896 1013 809 974 849 1013 b 985 925 943 1013 985 974 "},"ǉ":{"ha":685,"x_min":0,"x_max":0,"o":"m 226 1022 l 226 0 l 102 0 l 102 1022 m 581 703 l 581 -53 b 382 -253 581 -164 524 -253 b 303 -239 351 -253 328 -248 l 308 -173 b 330 -159 310 -161 316 -159 b 357 -160 338 -159 345 -160 b 457 -53 429 -160 457 -128 l 457 703 m 606 925 b 517 838 606 877 565 838 b 431 925 470 838 431 877 b 517 1013 431 974 470 1013 b 606 925 565 1013 606 974 "},"Ǌ":{"ha":1668,"x_min":0,"x_max":0,"o":"m 127 994 l 197 994 b 243 972 220 994 228 992 l 819 220 b 815 289 817 244 815 267 l 815 994 l 933 994 l 933 0 l 865 0 b 818 24 844 0 831 7 l 242 775 b 245 710 244 752 245 729 l 245 0 l 127 0 m 1238 -11 b 1097 8 1193 -11 1146 -5 b 1105 87 1100 34 1103 61 b 1135 113 1107 103 1116 113 b 1224 101 1152 113 1178 101 b 1417 340 1347 101 1417 173 l 1417 994 l 1551 994 l 1551 344 b 1238 -11 1551 121 1440 -11 "},"ǋ":{"ha":1399,"x_min":0,"x_max":0,"o":"m 127 994 l 197 994 b 243 972 220 994 228 992 l 819 220 b 815 289 817 244 815 267 l 815 994 l 933 994 l 933 0 l 865 0 b 818 24 844 0 831 7 l 242 775 b 245 710 244 752 245 729 l 245 0 l 127 0 m 1096 -253 b 1017 -239 1065 -253 1042 -248 l 1022 -173 b 1044 -159 1024 -161 1030 -159 b 1071 -160 1051 -159 1059 -160 b 1171 -53 1143 -160 1171 -128 l 1171 703 l 1294 703 l 1294 -53 b 1096 -253 1294 -164 1238 -253 m 1144 925 b 1231 1013 1144 974 1184 1013 b 1320 925 1278 1013 1320 974 b 1231 838 1320 877 1278 838 b 1144 925 1184 838 1144 877 "},"ǌ":{"ha":1119,"x_min":0,"x_max":0,"o":"m 98 703 l 172 703 b 205 678 190 703 201 694 l 215 601 b 448 714 276 668 349 714 b 683 448 603 714 683 608 l 683 0 l 560 0 l 560 448 b 413 616 560 554 512 616 b 222 518 340 616 275 579 l 222 0 l 98 0 m 816 -253 b 738 -239 785 -253 762 -248 l 742 -173 b 764 -159 744 -161 750 -159 b 791 -160 772 -159 779 -160 b 891 -53 863 -160 891 -128 l 891 703 l 1015 703 l 1015 -53 b 816 -253 1015 -164 958 -253 m 951 838 b 865 925 904 838 865 877 b 951 1013 865 974 904 1013 b 1040 925 999 1013 1040 974 b 951 838 1040 877 999 838 "},"Ǎ":{"ha":940,"x_min":0,"x_max":0,"o":"m 4 0 l 402 995 l 538 995 l 936 0 l 832 0 b 786 32 808 0 794 13 l 693 273 l 247 273 l 154 32 b 108 0 148 16 131 0 m 656 369 l 499 776 b 470 868 490 800 479 832 b 441 775 460 832 450 799 l 285 369 m 337 1262 b 376 1246 348 1262 365 1262 l 461 1140 b 469 1128 464 1135 467 1132 b 478 1140 472 1132 475 1135 l 562 1246 b 602 1262 574 1262 591 1262 l 692 1262 l 527 1074 l 413 1074 l 247 1262 "},"ǎ":{"ha":690,"x_min":0,"x_max":0,"o":"m 45 176 b 479 395 45 289 160 388 l 479 450 b 340 616 479 559 431 616 b 139 542 219 616 181 542 b 102 565 122 542 110 551 l 80 604 b 355 715 158 678 246 715 b 600 450 513 715 600 608 l 600 0 l 545 0 b 502 29 521 0 510 6 l 488 96 b 243 -11 415 28 351 -11 b 45 176 134 -11 45 50 m 164 182 b 279 76 164 107 215 76 b 479 171 366 76 423 113 l 479 317 b 164 182 251 310 164 259 m 213 994 b 240 985 224 994 235 990 l 329 890 b 341 876 334 885 336 881 b 353 890 346 881 348 885 l 442 985 b 469 994 448 990 459 994 l 552 994 l 397 812 l 283 812 l 127 994 "},"Ǐ":{"ha":514,"x_min":0,"x_max":0,"o":"m 40 994 l 474 994 l 474 902 l 325 902 l 325 92 l 474 92 l 474 -1 l 40 -1 l 40 92 l 190 92 l 190 902 l 40 902 m 131 1286 b 158 1276 142 1286 153 1281 l 247 1181 b 259 1168 252 1176 254 1173 b 271 1181 264 1173 266 1176 l 360 1276 b 388 1286 366 1281 377 1286 l 470 1286 l 315 1103 l 201 1103 l 45 1286 "},"ǐ":{"ha":333,"x_min":0,"x_max":0,"o":"m 104 703 l 228 703 l 228 0 l 104 0 m 43 994 b 71 985 54 994 65 990 l 160 890 b 172 876 165 885 167 881 b 183 890 176 881 178 885 l 272 985 b 300 994 278 990 290 994 l 383 994 l 228 812 l 113 812 l -42 994 "},"Ǒ":{"ha":1112,"x_min":0,"x_max":0,"o":"m 556 -10 b 65 498 265 -10 65 199 b 556 1006 65 796 265 1006 b 1047 498 849 1006 1047 796 b 556 -10 1047 199 849 -10 m 203 498 b 556 106 203 253 343 106 b 908 498 770 106 908 253 b 556 890 908 742 770 890 b 203 498 343 890 203 742 m 334 1262 l 424 1262 b 464 1246 435 1262 453 1262 l 549 1140 b 557 1128 551 1135 554 1132 b 565 1140 560 1132 563 1135 l 649 1246 b 690 1262 661 1262 678 1262 l 780 1262 l 615 1074 l 500 1074 "},"ǒ":{"ha":788,"x_min":0,"x_max":0,"o":"m 58 353 b 394 715 58 574 189 715 b 729 353 600 715 729 574 b 394 -10 729 131 600 -10 b 58 353 189 -10 58 131 m 186 352 b 394 87 186 185 255 87 b 601 352 533 87 601 185 b 394 618 601 519 533 618 b 186 352 254 618 186 519 m 268 994 b 296 985 279 994 290 990 l 385 890 b 397 876 390 885 392 881 b 408 890 401 881 403 885 l 497 985 b 525 994 503 990 515 994 l 608 994 l 453 812 l 338 812 l 183 994 "},"Ǔ":{"ha":1022,"x_min":0,"x_max":0,"o":"m 115 994 l 249 994 l 249 391 b 511 106 249 224 347 106 b 773 390 676 106 773 224 l 773 994 l 908 994 l 908 390 b 511 -12 908 160 756 -12 b 115 390 266 -12 115 160 m 378 1262 b 418 1246 390 1262 407 1262 l 503 1140 b 511 1128 506 1135 508 1132 b 519 1140 514 1132 517 1135 l 603 1246 b 644 1262 615 1262 633 1262 l 734 1262 l 569 1074 l 454 1074 l 288 1262 "},"ǔ":{"ha":774,"x_min":0,"x_max":0,"o":"m 91 703 l 215 703 l 215 255 b 363 87 215 149 263 87 b 553 185 435 87 499 124 l 553 703 l 676 703 l 676 0 l 603 0 b 569 26 585 0 574 8 l 560 102 b 326 -11 499 33 425 -11 b 91 255 173 -11 91 96 m 261 994 b 289 985 272 994 283 990 l 378 890 b 390 876 383 885 385 881 b 401 890 394 881 397 885 l 490 985 b 518 994 497 990 508 994 l 601 994 l 446 812 l 331 812 l 176 994 "},"Ǖ":{"ha":1022,"x_min":0,"x_max":0,"o":"m 249 994 l 249 391 b 511 106 249 224 347 106 b 773 390 676 106 773 224 l 773 994 l 908 994 l 908 390 b 511 -12 908 160 756 -12 b 115 390 266 -12 115 160 l 115 994 m 705 1364 l 705 1291 l 317 1291 l 317 1364 m 656 1082 b 580 1157 615 1082 580 1116 b 656 1234 580 1199 615 1234 b 733 1157 697 1234 733 1199 b 656 1082 733 1116 697 1082 m 365 1082 b 290 1157 326 1082 290 1116 b 365 1234 290 1199 326 1234 b 442 1157 406 1234 442 1199 b 365 1082 442 1116 406 1082 "},"ǖ":{"ha":774,"x_min":0,"x_max":0,"o":"m 215 703 l 215 255 b 363 87 215 149 263 87 b 553 185 435 87 499 124 l 553 703 l 676 703 l 676 0 l 603 0 b 569 26 585 0 574 8 l 560 102 b 326 -11 499 33 425 -11 b 91 255 173 -11 91 96 l 91 703 m 588 1153 l 588 1072 l 189 1072 l 189 1153 m 520 818 b 442 894 478 818 442 853 b 520 974 442 938 478 974 b 599 894 563 974 599 938 b 520 818 599 853 563 818 m 178 894 b 255 974 178 938 214 974 b 334 894 297 974 334 938 b 255 818 334 853 297 818 b 178 894 214 818 178 853 "},"Ǘ":{"ha":1022,"x_min":0,"x_max":0,"o":"m 511 -12 b 115 390 266 -12 115 160 l 115 994 l 249 994 l 249 391 b 511 106 249 224 347 106 b 773 390 676 106 773 224 l 773 994 l 908 994 l 908 390 b 511 -12 908 160 756 -12 m 611 1451 b 669 1474 626 1472 639 1474 l 809 1474 l 583 1275 b 539 1261 569 1262 558 1261 l 450 1261 m 656 1082 b 580 1157 615 1082 580 1116 b 656 1234 580 1199 615 1234 b 733 1157 697 1234 733 1199 b 656 1082 733 1116 697 1082 m 365 1082 b 290 1157 326 1082 290 1116 b 365 1234 290 1199 326 1234 b 442 1157 406 1234 442 1199 b 365 1082 442 1116 406 1082 "},"ǘ":{"ha":774,"x_min":0,"x_max":0,"o":"m 215 703 l 215 255 b 363 87 215 149 263 87 b 553 185 435 87 499 124 l 553 703 l 676 703 l 676 0 l 603 0 b 569 26 585 0 574 8 l 560 102 b 326 -11 499 33 425 -11 b 91 255 173 -11 91 96 l 91 703 m 445 1194 b 500 1224 458 1215 470 1224 l 621 1224 l 459 1045 b 416 1026 446 1031 435 1026 l 342 1026 m 442 894 b 520 974 442 938 478 974 b 599 894 563 974 599 938 b 520 818 599 853 563 818 b 442 894 478 818 442 853 m 178 894 b 255 974 178 938 214 974 b 334 894 297 974 334 938 b 255 818 334 853 297 818 b 178 894 214 818 178 853 "},"Ǚ":{"ha":1022,"x_min":0,"x_max":0,"o":"m 249 994 l 249 391 b 511 106 249 224 347 106 b 773 390 676 106 773 224 l 773 994 l 908 994 l 908 390 b 511 -12 908 160 756 -12 b 115 390 266 -12 115 160 l 115 994 m 288 1449 l 378 1449 b 418 1433 390 1449 407 1449 l 503 1328 b 511 1316 506 1323 508 1319 b 519 1328 514 1319 517 1323 l 603 1433 b 644 1449 615 1449 633 1449 l 734 1449 l 569 1261 l 454 1261 m 580 1157 b 656 1234 580 1199 615 1234 b 733 1157 697 1234 733 1199 b 656 1082 733 1116 697 1082 b 580 1157 615 1082 580 1116 m 365 1082 b 290 1157 326 1082 290 1116 b 365 1234 290 1199 326 1234 b 442 1157 406 1234 442 1199 b 365 1082 442 1116 406 1082 "},"ǚ":{"ha":774,"x_min":0,"x_max":0,"o":"m 215 703 l 215 255 b 363 87 215 149 263 87 b 553 185 435 87 499 124 l 553 703 l 676 703 l 676 0 l 603 0 b 569 26 585 0 574 8 l 560 102 b 326 -11 499 33 425 -11 b 91 255 173 -11 91 96 l 91 703 m 261 1211 b 289 1201 272 1211 283 1206 l 378 1106 b 390 1092 383 1101 385 1097 b 401 1106 394 1097 397 1101 l 490 1201 b 518 1211 497 1206 508 1211 l 601 1211 l 446 1028 l 331 1028 l 176 1211 m 520 818 b 442 894 478 818 442 853 b 520 974 442 938 478 974 b 599 894 563 974 599 938 b 520 818 599 853 563 818 m 178 894 b 255 974 178 938 214 974 b 334 894 297 974 334 938 b 255 818 334 853 297 818 b 178 894 214 818 178 853 "},"Ǜ":{"ha":1022,"x_min":0,"x_max":0,"o":"m 115 994 l 249 994 l 249 391 b 511 106 249 224 347 106 b 773 390 676 106 773 224 l 773 994 l 908 994 l 908 390 b 511 -12 908 160 756 -12 b 115 390 266 -12 115 160 m 356 1474 b 415 1451 387 1474 399 1472 l 573 1261 l 484 1261 b 441 1274 464 1261 455 1261 l 224 1474 m 580 1157 b 656 1234 580 1199 615 1234 b 733 1157 697 1234 733 1199 b 656 1082 733 1116 697 1082 b 580 1157 615 1082 580 1116 m 365 1082 b 290 1157 326 1082 290 1116 b 365 1234 290 1199 326 1234 b 442 1157 406 1234 442 1199 b 365 1082 442 1116 406 1082 "},"ǜ":{"ha":774,"x_min":0,"x_max":0,"o":"m 215 703 l 215 255 b 363 87 215 149 263 87 b 553 185 435 87 499 124 l 553 703 l 676 703 l 676 0 l 603 0 b 569 26 585 0 574 8 l 560 102 b 326 -11 499 33 425 -11 b 91 255 173 -11 91 96 l 91 703 m 183 1222 l 301 1222 b 356 1192 331 1222 342 1213 l 459 1024 l 388 1024 b 346 1043 369 1024 359 1029 m 445 894 b 523 974 445 938 481 974 b 601 894 565 974 601 938 b 523 818 601 853 565 818 b 445 894 481 818 445 853 m 258 818 b 181 894 217 818 181 853 b 258 974 181 938 217 974 b 337 894 300 974 337 938 b 258 818 337 853 300 818 "},"ǝ":{"ha":733,"x_min":0,"x_max":0,"o":"m 53 305 b 83 353 53 343 60 353 l 553 353 b 330 617 548 531 464 617 b 123 549 206 617 154 549 b 100 561 113 549 106 553 l 65 606 b 340 715 126 681 240 715 b 676 338 535 715 676 581 b 347 -10 676 142 552 -10 b 53 305 178 -10 53 104 m 165 276 b 345 81 165 161 231 81 b 549 276 464 81 533 155 "},"Ǟ":{"ha":940,"x_min":0,"x_max":0,"o":"m 4 0 l 402 995 l 538 995 l 936 0 l 832 0 b 786 32 808 0 794 13 l 693 273 l 247 273 l 154 32 b 108 0 148 16 131 0 m 285 369 l 656 369 l 499 776 b 470 868 490 800 479 832 b 441 775 460 832 450 799 m 663 1364 l 663 1291 l 276 1291 l 276 1364 m 615 1082 b 538 1157 574 1082 538 1116 b 615 1234 538 1199 574 1234 b 691 1157 656 1234 691 1199 b 615 1082 691 1116 656 1082 m 248 1157 b 323 1234 248 1199 284 1234 b 401 1157 365 1234 401 1199 b 323 1082 401 1116 365 1082 b 248 1157 284 1082 248 1116 "},"ǟ":{"ha":690,"x_min":0,"x_max":0,"o":"m 45 176 b 479 395 45 289 160 388 l 479 450 b 340 616 479 559 431 616 b 139 542 219 616 181 542 b 102 565 122 542 110 551 l 80 604 b 355 715 158 678 246 715 b 600 450 513 715 600 608 l 600 0 l 545 0 b 502 29 521 0 510 6 l 488 96 b 243 -11 415 28 351 -11 b 45 176 134 -11 45 50 m 479 317 b 164 182 251 310 164 259 b 279 76 164 107 215 76 b 479 171 366 76 423 113 l 479 317 m 539 1153 l 539 1072 l 140 1072 l 140 1153 m 394 894 b 472 974 394 938 429 974 b 550 894 514 974 550 938 b 472 818 550 853 514 818 b 394 894 429 818 394 853 m 206 818 b 129 894 165 818 129 853 b 206 974 129 938 165 974 b 285 894 249 974 285 938 b 206 818 285 853 249 818 "},"Ǡ":{"ha":940,"x_min":0,"x_max":0,"o":"m 4 0 l 402 995 l 538 995 l 936 0 l 832 0 b 786 32 808 0 794 13 l 693 273 l 247 273 l 154 32 b 108 0 148 16 131 0 m 656 369 l 499 776 b 470 868 490 800 479 832 b 441 775 460 832 450 799 l 285 369 m 276 1313 l 276 1386 l 663 1386 l 663 1313 m 385 1172 b 468 1258 385 1219 424 1258 b 554 1172 515 1258 554 1219 b 468 1089 554 1128 515 1089 b 385 1172 424 1089 385 1128 "},"ǡ":{"ha":690,"x_min":0,"x_max":0,"o":"m 45 176 b 479 395 45 289 160 388 l 479 450 b 340 616 479 559 431 616 b 139 542 219 616 181 542 b 102 565 122 542 110 551 l 80 604 b 355 715 158 678 246 715 b 600 450 513 715 600 608 l 600 0 l 545 0 b 502 29 521 0 510 6 l 488 96 b 243 -11 415 28 351 -11 b 45 176 134 -11 45 50 m 479 317 b 164 182 251 310 164 259 b 279 76 164 107 215 76 b 479 171 366 76 423 113 l 479 317 m 140 1152 l 539 1152 l 539 1072 l 140 1072 m 339 842 b 252 930 292 842 252 882 b 339 1018 252 978 292 1018 b 428 930 386 1018 428 978 b 339 842 428 882 386 842 "},"Ǣ":{"ha":1292,"x_min":0,"x_max":0,"o":"m -4 0 l 521 994 l 1231 994 l 1231 885 l 711 885 l 752 555 l 1140 555 l 1140 449 l 765 449 l 808 109 l 1231 109 l 1231 0 l 694 0 l 660 273 l 274 273 l 149 31 b 98 0 140 13 122 0 m 649 369 l 583 894 b 544 794 571 856 558 824 l 324 369 m 1063 1176 l 1063 1103 l 675 1103 l 675 1176 "},"ǣ":{"ha":1118,"x_min":0,"x_max":0,"o":"m 47 186 b 481 415 47 297 161 408 l 481 450 b 342 620 481 560 433 620 b 140 542 220 620 183 542 b 103 565 124 542 112 552 l 81 604 b 344 716 159 679 239 716 b 551 583 455 716 521 666 b 793 715 601 664 682 715 b 1063 386 945 715 1063 594 b 1034 338 1063 348 1057 338 l 597 338 b 803 88 604 170 684 88 b 995 152 933 88 965 152 b 1021 140 1007 152 1016 148 l 1053 99 b 792 -10 992 24 888 -10 b 540 149 683 -10 592 42 b 263 -11 490 35 373 -11 b 47 186 135 -11 47 53 m 166 192 b 292 76 166 111 217 76 b 481 280 397 76 481 143 l 481 338 b 166 192 252 330 166 269 m 953 415 b 789 624 953 535 892 624 b 598 415 676 624 611 545 m 353 855 l 353 935 l 751 935 l 751 855 "},"Ǥ":{"ha":1059,"x_min":0,"x_max":0,"o":"m 558 -11 b 65 498 269 -11 65 197 b 574 1006 65 801 263 1006 b 926 881 732 1006 843 958 l 888 820 b 858 801 881 808 870 801 b 833 809 850 801 842 804 b 570 890 790 835 723 890 b 203 498 345 890 203 739 b 567 97 203 246 353 97 b 814 156 676 97 744 121 l 814 234 l 656 234 b 627 260 639 234 627 244 l 627 326 l 814 326 l 814 417 l 656 417 b 627 443 638 417 627 427 l 627 512 l 935 512 l 935 326 l 1052 326 l 1052 233 l 935 233 l 935 97 b 558 -11 835 24 723 -11 "},"ǥ":{"ha":768,"x_min":0,"x_max":0,"o":"m 89 -6 b 208 89 109 36 151 69 b 130 185 160 106 130 133 b 219 299 130 225 160 270 b 108 488 149 338 108 403 b 375 715 108 626 219 715 b 533 676 436 715 489 701 l 724 676 l 724 631 b 695 601 724 615 715 605 l 615 590 b 638 488 631 560 638 526 b 375 262 638 351 528 262 b 281 274 342 262 310 266 b 236 219 251 257 236 239 b 713 -6 236 105 691 243 l 782 -6 l 782 -88 l 701 -88 b 383 -253 663 -178 550 -253 b 76 -88 190 -253 91 -178 l 3 -88 l 3 -6 m 222 485 b 375 343 222 402 276 343 b 528 485 475 343 528 401 b 375 627 528 572 474 627 b 222 485 276 627 222 571 m 185 -81 b 188 -88 185 -83 186 -85 b 385 -175 202 -135 267 -175 b 596 -88 453 -175 568 -167 b 598 -81 597 -85 597 -83 m 188 -6 b 185 -14 188 -8 186 -11 l 599 -14 b 598 -6 599 -11 599 -9 b 285 72 584 70 414 55 b 188 -6 238 53 201 26 "},"Ǧ":{"ha":1015,"x_min":0,"x_max":0,"o":"m 65 497 b 574 1006 65 801 263 1006 b 926 881 732 1006 843 958 l 888 820 b 858 801 881 808 871 801 b 833 808 849 801 841 803 b 570 890 789 834 724 890 b 203 497 345 890 203 739 b 585 97 203 247 351 97 b 814 156 678 97 746 119 l 814 376 l 660 376 b 631 402 641 376 631 388 l 631 478 l 935 478 l 935 97 b 590 -11 835 24 724 -11 b 65 497 269 -11 65 197 m 353 1262 l 443 1262 b 483 1246 454 1262 472 1262 l 567 1140 b 576 1128 570 1135 573 1132 b 584 1140 578 1132 581 1135 l 668 1246 b 708 1262 680 1262 697 1262 l 799 1262 l 633 1074 l 519 1074 "},"ǧ":{"ha":722,"x_min":0,"x_max":0,"o":"m 351 -253 b 43 -67 144 -253 43 -165 b 165 78 43 2 90 51 b 98 178 124 97 98 126 b 187 299 98 218 129 269 b 76 488 117 338 76 403 b 343 715 76 626 188 715 b 501 676 404 715 457 701 l 692 676 l 692 631 b 663 601 692 615 683 605 l 583 590 b 606 488 599 560 606 526 b 343 262 606 351 496 262 b 250 274 310 262 279 266 b 204 212 219 255 204 235 b 681 -18 204 78 681 242 b 351 -253 681 -138 557 -253 m 151 -51 b 353 -164 151 -115 216 -164 b 566 -38 486 -164 566 -112 b 240 59 566 66 378 40 b 151 -51 188 34 151 -1 m 190 485 b 343 343 190 402 244 343 b 496 485 443 343 496 401 b 343 627 496 572 442 627 b 190 485 244 627 190 571 m 232 994 b 260 985 243 994 254 990 l 349 890 b 360 876 353 885 356 881 b 372 890 365 881 367 885 l 461 985 b 489 994 467 990 478 994 l 572 994 l 417 812 l 302 812 l 147 994 "},"Ǩ":{"ha":920,"x_min":0,"x_max":0,"o":"m 127 0 l 127 994 l 262 994 l 262 559 l 312 559 b 384 588 347 559 365 567 l 715 963 b 781 994 734 988 751 994 l 896 994 l 516 567 b 463 522 497 544 481 531 b 526 472 488 513 508 499 l 922 0 l 806 0 b 744 28 770 0 758 10 l 401 424 b 323 456 382 447 366 456 l 262 456 l 262 0 m 353 1262 b 393 1246 365 1262 382 1262 l 478 1140 b 486 1128 481 1135 483 1132 b 494 1140 489 1132 492 1135 l 578 1246 b 619 1262 590 1262 608 1262 l 709 1262 l 544 1074 l 429 1074 l 263 1262 "},"ǩ":{"ha":706,"x_min":0,"x_max":0,"o":"m 98 1022 l 222 1022 l 222 420 l 254 420 b 297 440 273 420 283 424 l 519 678 b 569 703 533 694 546 703 l 681 703 l 422 427 b 382 391 410 412 397 400 b 423 347 399 380 411 366 l 698 0 l 588 0 b 540 24 566 0 551 6 l 310 313 b 258 337 295 333 285 337 l 222 337 l 222 0 l 98 0 m 28 1262 b 68 1246 40 1262 57 1262 l 153 1140 b 161 1128 156 1135 158 1132 b 169 1140 164 1132 167 1135 l 253 1246 b 294 1262 265 1262 283 1262 l 384 1262 l 219 1074 l 104 1074 l -62 1262 "},"Ǫ":{"ha":1111,"x_min":0,"x_max":0,"o":"m 538 -10 b 65 498 257 -1 65 205 b 556 1006 65 796 265 1006 b 1047 498 849 1006 1047 796 b 620 -7 1047 221 877 21 b 547 -110 585 -27 547 -64 b 610 -166 547 -145 571 -166 b 673 -149 652 -166 663 -149 b 686 -158 681 -149 684 -153 l 706 -203 b 584 -240 677 -225 631 -240 b 453 -140 503 -240 453 -201 b 538 -10 453 -90 488 -44 m 203 498 b 556 106 203 253 342 106 b 908 498 770 106 908 253 b 556 890 908 742 770 890 b 203 498 342 890 203 742 "},"ǫ":{"ha":787,"x_min":0,"x_max":0,"o":"m 58 353 b 394 715 58 574 188 715 b 728 353 599 715 728 574 b 456 -5 728 155 625 21 b 380 -109 421 -25 380 -62 b 443 -166 380 -144 404 -166 b 506 -149 485 -166 497 -149 b 519 -158 513 -149 517 -153 l 538 -203 b 417 -240 510 -225 465 -240 b 287 -140 336 -240 287 -201 b 372 -9 287 -90 322 -44 b 58 353 178 0 58 140 m 394 618 b 185 352 253 618 185 519 b 394 87 185 185 254 87 b 601 352 533 87 601 185 b 394 618 601 519 533 618 "},"Ǭ":{"ha":1112,"x_min":0,"x_max":0,"o":"m 519 -9 b 65 498 248 8 65 212 b 556 1006 65 796 265 1006 b 1047 498 849 1006 1047 796 b 597 -9 1047 213 867 10 b 529 -108 564 -31 529 -65 b 592 -164 529 -143 553 -164 b 656 -148 635 -164 646 -148 b 669 -156 662 -148 667 -151 l 688 -201 b 567 -237 660 -223 614 -237 b 436 -137 485 -237 436 -199 b 519 -9 436 -89 470 -44 m 556 890 b 203 498 343 890 203 742 b 556 106 203 253 343 106 b 908 498 770 106 908 253 b 556 890 908 742 770 890 m 363 1103 l 363 1176 l 751 1176 l 751 1103 "},"ǭ":{"ha":788,"x_min":0,"x_max":0,"o":"m 58 353 b 394 715 58 574 189 715 b 729 353 600 715 729 574 b 438 -8 729 147 618 11 b 368 -108 404 -28 368 -64 b 431 -164 368 -143 392 -164 b 494 -148 474 -164 485 -148 b 508 -156 501 -148 506 -151 l 526 -201 b 406 -237 499 -223 453 -237 b 275 -137 324 -237 275 -199 b 360 -8 275 -88 310 -42 b 58 353 174 7 58 144 m 186 352 b 394 87 186 185 255 87 b 601 352 533 87 601 185 b 394 618 601 519 533 618 b 186 352 254 618 186 519 m 594 935 l 594 855 l 196 855 l 196 935 "},"Ǯ":{"ha":815,"x_min":0,"x_max":0,"o":"m 367 -10 b 36 141 230 -10 109 48 l 89 199 b 112 210 98 210 106 210 b 144 194 122 210 128 208 b 365 103 174 160 246 103 b 615 328 525 103 615 207 b 356 515 615 434 547 515 l 243 515 l 243 572 b 263 617 243 586 248 602 l 537 885 l 65 885 l 65 994 l 724 994 l 724 945 b 703 894 724 929 722 912 l 413 613 b 752 335 656 606 752 488 b 367 -10 752 125 576 -10 m 169 1262 l 260 1262 b 299 1246 271 1262 288 1262 l 384 1140 b 392 1128 387 1135 390 1132 b 401 1140 395 1132 398 1135 l 485 1246 b 525 1262 497 1262 514 1262 l 615 1262 l 450 1074 l 335 1074 "},"ǯ":{"ha":610,"x_min":0,"x_max":0,"o":"m 18 -117 b 49 -99 26 -105 36 -99 b 230 -157 85 -99 117 -157 b 442 50 360 -157 442 -81 b 242 238 442 162 382 238 l 119 238 l 119 278 b 136 313 119 291 125 303 l 374 607 l 24 607 l 24 703 l 523 703 l 523 651 b 499 597 523 630 512 612 l 269 322 b 564 58 472 315 564 209 b 228 -249 564 -116 445 -249 b -11 -164 117 -249 44 -214 m 162 994 b 190 985 173 994 184 990 l 278 890 b 290 876 283 885 285 881 b 302 890 295 881 297 885 l 391 985 b 419 994 397 990 408 994 l 501 994 l 347 812 l 232 812 l 76 994 "},"ǰ":{"ha":333,"x_min":0,"x_max":0,"o":"m -44 -173 b -23 -159 -42 -161 -37 -159 b 4 -160 -15 -159 -8 -160 b 104 -53 76 -160 104 -128 l 104 703 l 228 703 l 228 -53 b 29 -253 228 -164 171 -253 b -49 -239 -1 -253 -25 -248 m 40 994 b 67 985 51 994 62 990 l 156 890 b 168 876 161 885 163 881 b 180 890 173 881 175 885 l 269 985 b 297 994 275 990 286 994 l 379 994 l 224 812 l 110 812 l -46 994 "},"Ǳ":{"ha":1910,"x_min":0,"x_max":0,"o":"m 127 0 l 127 994 l 499 994 b 990 497 792 994 990 795 b 499 0 990 199 792 0 m 263 108 l 499 108 b 851 497 713 108 851 253 b 499 886 851 742 713 886 l 263 886 m 1110 0 l 1110 52 b 1124 92 1110 67 1116 80 l 1688 885 l 1137 885 l 1137 994 l 1865 994 l 1865 945 b 1851 901 1865 931 1860 915 l 1288 109 l 1856 109 l 1856 0 "},"ǲ":{"ha":1688,"x_min":0,"x_max":0,"o":"m 499 994 b 990 497 792 994 990 795 b 499 0 990 199 792 0 l 127 0 l 127 994 m 499 108 b 851 497 713 108 851 253 b 499 886 851 742 713 886 l 263 886 l 263 108 m 1100 51 b 1117 96 1100 63 1106 81 l 1500 607 l 1122 607 l 1122 703 l 1643 703 l 1643 651 b 1626 604 1643 634 1637 616 l 1245 97 l 1630 97 l 1630 0 l 1100 0 l 1100 51 "},"ǳ":{"ha":1422,"x_min":0,"x_max":0,"o":"m 392 620 b 188 349 234 620 188 485 b 367 90 188 229 216 90 b 556 197 451 90 507 131 l 556 537 b 392 620 513 594 463 620 m 1365 0 l 835 0 l 835 51 b 851 96 835 67 842 83 l 1235 607 l 856 607 l 856 703 l 1378 703 l 1378 651 b 1374 626 1378 642 1376 634 b 1361 604 1370 617 1366 610 l 980 97 l 1365 97 m 326 -10 b 216 14 285 -10 249 -2 b 60 349 91 72 60 224 b 364 716 60 533 156 716 b 556 633 443 716 503 692 l 556 1023 l 680 1023 l 680 0 l 606 0 b 573 26 589 0 578 8 l 562 111 b 326 -10 501 37 424 -10 "},"Ǵ":{"ha":1015,"x_min":0,"x_max":0,"o":"m 590 -11 b 65 497 269 -11 65 197 b 574 1006 65 801 263 1006 b 926 881 732 1006 843 958 l 888 820 b 858 801 881 808 871 801 b 833 808 849 801 841 803 b 570 890 789 834 724 890 b 203 497 345 890 203 739 b 585 97 203 247 351 97 b 814 156 678 97 746 119 l 814 376 l 660 376 b 631 402 641 376 631 388 l 631 478 l 935 478 l 935 97 b 590 -11 835 24 724 -11 m 838 1286 l 612 1088 b 568 1074 598 1074 587 1074 l 479 1074 l 640 1264 b 699 1286 655 1284 668 1286 "},"ǵ":{"ha":722,"x_min":0,"x_max":0,"o":"m 43 -67 b 165 78 43 2 90 51 b 98 178 124 97 98 126 b 187 299 98 218 129 269 b 76 488 117 338 76 403 b 343 715 76 626 188 715 b 501 676 404 715 457 701 l 692 676 l 692 631 b 663 601 692 615 683 605 l 583 590 b 606 488 599 560 606 526 b 343 262 606 351 496 262 b 250 274 310 262 279 266 b 204 212 219 255 204 235 b 681 -18 204 78 681 242 b 351 -253 681 -138 557 -253 b 43 -67 144 -253 43 -165 m 566 -38 b 240 59 566 66 378 40 b 151 -51 188 34 151 -1 b 353 -164 151 -115 216 -164 b 566 -38 486 -164 566 -112 m 190 485 b 343 343 190 402 244 343 b 496 485 443 343 496 401 b 343 627 496 572 442 627 b 190 485 244 627 190 571 m 561 1006 l 399 827 b 356 808 386 813 376 808 l 283 808 l 385 976 b 440 1006 399 997 410 1006 "},"Ƕ":{"ha":1477,"x_min":0,"x_max":0,"o":"m 127 0 l 127 995 l 263 995 l 263 551 l 799 551 l 799 995 l 934 995 l 933 283 b 1068 90 933 151 982 90 b 1297 470 1192 90 1297 212 b 1202 611 1297 564 1272 611 b 1150 603 1179 611 1160 603 b 1125 627 1136 603 1128 611 l 1115 697 b 1234 714 1153 710 1192 714 b 1424 476 1384 714 1424 602 b 1065 -10 1424 153 1247 -10 b 799 283 919 -10 799 69 l 799 453 l 263 453 l 263 0 "},"Ƿ":{"ha":974,"x_min":0,"x_max":0,"o":"m 224 1001 b 257 963 240 1001 256 985 l 260 853 b 588 1005 367 962 466 1005 b 915 670 793 1005 915 844 b 262 -25 915 367 661 142 l 262 -240 l 127 -240 l 127 1001 m 262 101 b 778 663 596 244 778 418 b 560 890 778 801 692 890 b 262 723 441 890 343 823 "},"Ǹ":{"ha":1060,"x_min":0,"x_max":0,"o":"m 127 0 l 127 994 l 197 994 b 243 972 220 994 228 992 l 819 220 b 815 289 817 244 815 267 l 815 994 l 933 994 l 933 0 l 865 0 b 818 24 844 0 831 7 l 242 775 b 245 710 244 752 245 729 l 245 0 m 392 1297 l 510 1297 b 565 1267 540 1297 551 1289 l 668 1099 l 597 1099 b 555 1119 578 1099 568 1105 "},"ǹ":{"ha":775,"x_min":0,"x_max":0,"o":"m 98 0 l 98 703 l 172 703 b 205 678 190 703 201 694 l 215 601 b 448 714 276 668 349 714 b 683 448 603 714 683 608 l 683 0 l 560 0 l 560 448 b 413 616 560 554 512 616 b 222 518 340 616 275 579 l 222 0 m 205 1006 l 322 1006 b 377 976 353 1006 364 997 l 481 808 l 410 808 b 367 827 390 808 381 813 "},"Ǻ":{"ha":940,"x_min":0,"x_max":0,"o":"m 402 995 l 538 995 l 936 0 l 832 0 b 786 32 808 0 794 13 l 693 273 l 247 273 l 154 32 b 108 0 148 16 131 0 l 4 0 m 656 369 l 499 776 b 470 868 490 800 479 832 b 441 775 460 832 450 799 l 285 369 m 469 1035 b 345 1150 403 1035 345 1081 b 469 1267 345 1219 403 1267 b 596 1150 538 1267 596 1219 b 469 1035 596 1081 538 1035 m 549 1440 b 607 1463 563 1460 576 1463 l 747 1463 l 545 1316 b 501 1302 531 1303 520 1302 l 413 1302 m 403 1150 b 471 1083 403 1111 429 1083 b 538 1150 510 1083 538 1111 b 471 1218 538 1192 510 1218 b 403 1150 429 1218 403 1192 "},"ǻ":{"ha":690,"x_min":0,"x_max":0,"o":"m 45 176 b 479 395 45 289 160 388 l 479 450 b 340 616 479 559 431 616 b 139 542 219 616 181 542 b 102 565 122 542 110 551 l 80 604 b 355 715 158 678 246 715 b 600 450 513 715 600 608 l 600 0 l 545 0 b 502 29 521 0 510 6 l 488 96 b 243 -11 415 28 351 -11 b 45 176 134 -11 45 50 m 479 317 b 164 182 251 310 164 259 b 279 76 164 107 215 76 b 479 171 366 76 423 113 l 479 317 m 340 780 b 201 908 265 780 201 832 b 340 1038 201 985 265 1038 b 480 908 415 1038 480 985 b 340 780 480 832 415 780 m 304 1084 l 408 1251 b 463 1282 419 1273 432 1282 l 583 1282 l 421 1103 b 378 1084 408 1089 397 1084 m 271 908 b 341 838 271 867 297 838 b 410 908 383 838 410 867 b 341 978 410 949 383 978 b 271 908 297 978 271 949 "},"Ǽ":{"ha":1292,"x_min":0,"x_max":0,"o":"m -4 0 l 521 994 l 1231 994 l 1231 885 l 711 885 l 752 555 l 1140 555 l 1140 449 l 765 449 l 808 109 l 1231 109 l 1231 0 l 694 0 l 660 273 l 274 273 l 149 31 b 98 0 140 13 122 0 m 649 369 l 583 894 b 544 794 571 856 558 824 l 324 369 m 933 1264 b 992 1286 948 1284 961 1286 l 1131 1286 l 905 1088 b 861 1074 891 1074 880 1074 l 772 1074 "},"ǽ":{"ha":1118,"x_min":0,"x_max":0,"o":"m 263 -11 b 47 186 135 -11 47 53 b 481 415 47 297 161 408 l 481 450 b 342 620 481 560 433 620 b 140 542 220 620 183 542 b 103 565 124 542 112 552 l 81 604 b 344 716 159 679 239 716 b 551 583 455 716 521 666 b 793 715 601 664 682 715 b 1063 386 945 715 1063 594 b 1034 338 1063 348 1057 338 l 597 338 b 803 88 604 170 684 88 b 995 152 933 88 965 152 b 1021 140 1007 152 1016 148 l 1053 99 b 792 -10 992 24 888 -10 b 540 149 683 -10 592 42 b 263 -11 490 35 373 -11 m 166 192 b 292 76 166 111 217 76 b 481 280 397 76 481 143 l 481 338 b 166 192 252 330 166 269 m 953 415 b 789 624 953 535 892 624 b 598 415 676 624 611 545 m 476 808 l 578 976 b 633 1006 592 997 603 1006 l 754 1006 l 592 827 b 549 808 579 813 569 808 "},"Ǿ":{"ha":1110,"x_min":0,"x_max":0,"o":"m 228 106 b 65 498 125 197 65 332 b 556 1006 65 796 265 1006 b 833 928 663 1006 756 978 l 890 1006 b 947 1040 908 1031 917 1040 l 1017 1040 l 898 877 b 1047 498 992 786 1047 656 b 556 -10 1047 199 849 -10 b 296 57 457 -10 370 13 l 226 -37 b 150 -75 206 -65 177 -75 l 96 -75 m 761 831 b 556 890 706 869 637 890 b 203 498 343 890 203 742 b 303 206 203 373 239 275 m 367 154 b 556 106 421 122 484 106 b 908 498 770 106 908 253 b 822 774 908 614 878 708 m 824 1286 l 598 1088 b 554 1074 584 1074 573 1074 l 465 1074 l 626 1264 b 685 1286 641 1284 654 1286 "},"ǿ":{"ha":788,"x_min":0,"x_max":0,"o":"m 53 -53 l 153 83 b 58 352 92 147 58 238 b 394 714 58 573 189 714 b 582 663 467 714 530 697 l 629 727 b 688 761 646 753 658 761 l 749 761 l 640 614 b 729 352 699 551 729 463 b 394 -10 729 131 601 -10 b 213 36 324 -10 263 6 l 175 -15 b 99 -53 156 -43 126 -53 m 522 583 b 394 622 488 608 446 622 b 178 351 253 622 178 519 b 219 172 178 277 192 217 m 272 116 b 394 83 305 94 346 83 b 609 351 533 83 609 185 b 573 523 609 422 597 478 m 596 1006 l 434 827 b 391 808 421 813 410 808 l 317 808 l 420 976 b 475 1006 433 997 445 1006 "},"Ȁ":{"ha":940,"x_min":0,"x_max":0,"o":"m 4 0 l 402 995 l 538 995 l 936 0 l 832 0 b 786 32 808 0 794 13 l 693 273 l 247 273 l 154 32 b 108 0 148 16 131 0 m 285 369 l 656 369 l 499 776 b 470 868 490 800 479 832 b 441 775 460 832 450 799 m 133 1263 l 228 1263 b 291 1232 258 1263 275 1251 l 419 1074 l 353 1074 b 306 1092 334 1074 321 1079 m 474 1263 b 534 1232 503 1263 521 1251 l 637 1074 l 577 1074 b 535 1092 558 1074 548 1079 l 392 1263 "},"ȁ":{"ha":690,"x_min":0,"x_max":0,"o":"m 243 -11 b 45 176 134 -11 45 50 b 479 395 45 289 160 388 l 479 450 b 340 616 479 559 431 616 b 139 542 219 616 181 542 b 102 565 122 542 110 551 l 80 604 b 355 715 158 678 246 715 b 600 450 513 715 600 608 l 600 0 l 545 0 b 502 29 521 0 510 6 l 488 96 b 243 -11 415 28 351 -11 m 479 317 b 164 182 251 310 164 259 b 279 76 164 107 215 76 b 479 171 366 76 423 113 l 479 317 m 132 1006 b 187 976 163 1006 173 996 l 312 808 l 253 808 b 210 827 233 808 223 813 l 42 1006 m 259 1006 l 342 1006 b 396 976 372 1006 385 997 l 492 808 l 440 808 b 397 827 421 808 408 813 "},"Ȃ":{"ha":940,"x_min":0,"x_max":0,"o":"m 4 0 l 402 995 l 538 995 l 936 0 l 832 0 b 786 32 808 0 794 13 l 693 273 l 247 273 l 154 32 b 108 0 148 16 131 0 m 285 369 l 656 369 l 499 776 b 470 868 490 800 479 832 b 441 775 460 832 450 799 m 261 1073 b 469 1256 261 1197 338 1256 b 677 1073 601 1256 677 1190 l 581 1073 b 469 1180 581 1140 553 1180 b 357 1073 386 1180 357 1140 "},"ȃ":{"ha":690,"x_min":0,"x_max":0,"o":"m 45 176 b 479 395 45 289 160 388 l 479 450 b 340 616 479 559 431 616 b 139 542 219 616 181 542 b 102 565 122 542 110 551 l 80 604 b 355 715 158 678 246 715 b 600 450 513 715 600 608 l 600 0 l 545 0 b 502 29 521 0 510 6 l 488 96 b 243 -11 415 28 351 -11 b 45 176 134 -11 45 50 m 479 317 b 164 182 251 310 164 259 b 279 76 164 107 215 76 b 479 171 366 76 423 113 l 479 317 m 149 819 b 340 1005 149 920 198 1005 b 530 819 481 1005 530 920 l 442 819 b 340 925 442 881 419 925 b 237 819 260 925 237 881 l 149 819 "},"Ȅ":{"ha":802,"x_min":0,"x_max":0,"o":"m 127 994 l 740 994 l 740 885 l 263 885 l 263 555 l 649 555 l 649 449 l 263 449 l 263 109 l 741 109 l 740 0 l 127 0 m 106 1263 l 201 1263 b 264 1232 231 1263 248 1251 l 392 1074 l 326 1074 b 279 1092 307 1074 294 1079 m 447 1263 b 507 1232 476 1263 494 1251 l 610 1074 l 550 1074 b 508 1092 531 1074 521 1079 l 365 1263 "},"ȅ":{"ha":733,"x_min":0,"x_max":0,"o":"m 393 -10 b 58 367 199 -10 58 124 b 386 714 58 563 181 714 b 680 401 555 714 680 600 b 650 352 680 362 673 352 l 180 352 b 403 88 185 174 269 88 b 610 156 527 88 579 156 b 634 144 621 156 628 151 l 669 99 b 393 -10 608 24 494 -10 m 569 428 b 389 624 569 543 502 624 b 184 428 269 624 201 551 m 91 1006 l 181 1006 b 236 976 212 1006 222 996 l 361 808 l 302 808 b 259 827 283 808 272 813 m 391 1006 b 445 976 421 1006 434 997 l 541 808 l 490 808 b 447 827 470 808 458 813 l 308 1006 "},"Ȇ":{"ha":802,"x_min":0,"x_max":0,"o":"m 740 994 l 740 885 l 263 885 l 263 555 l 649 555 l 649 449 l 263 449 l 263 109 l 741 109 l 740 0 l 127 0 l 127 994 m 234 1073 b 442 1256 234 1197 311 1256 b 650 1073 574 1256 650 1190 l 554 1073 b 442 1180 554 1140 526 1180 b 330 1073 359 1180 330 1140 "},"ȇ":{"ha":733,"x_min":0,"x_max":0,"o":"m 393 -10 b 58 367 199 -10 58 124 b 386 714 58 563 181 714 b 680 401 555 714 680 600 b 650 352 680 362 673 352 l 180 352 b 403 88 185 174 269 88 b 610 156 527 88 579 156 b 634 144 621 156 628 151 l 669 99 b 393 -10 608 24 494 -10 m 569 428 b 389 624 569 543 502 624 b 184 428 269 624 201 551 m 199 819 b 389 1005 199 920 247 1005 b 579 819 531 1005 579 920 l 492 819 b 389 925 492 881 469 925 b 286 819 309 925 286 881 "},"Ȉ":{"ha":514,"x_min":0,"x_max":0,"o":"m 40 994 l 474 994 l 474 902 l 325 902 l 325 92 l 474 92 l 474 -1 l 40 -1 l 40 92 l 190 92 l 190 902 l 40 902 m 33 1297 l 123 1297 b 178 1267 153 1297 164 1288 l 303 1099 l 244 1099 b 201 1119 224 1099 214 1105 m 250 1297 l 333 1297 b 387 1267 363 1297 376 1289 l 483 1099 l 431 1099 b 388 1119 412 1099 399 1104 "},"ȉ":{"ha":333,"x_min":0,"x_max":0,"o":"m 104 0 l 104 703 l 228 703 l 228 0 m -128 1006 l -37 1006 b 17 976 -7 1006 3 996 l 142 808 l 83 808 b 40 827 64 808 53 813 m 172 1006 b 226 976 202 1006 215 997 l 322 808 l 271 808 b 228 827 251 808 239 813 l 90 1006 "},"Ȋ":{"ha":514,"x_min":0,"x_max":0,"o":"m 190 92 l 190 902 l 40 902 l 40 994 l 474 994 l 474 902 l 325 902 l 325 92 l 474 92 l 474 -1 l 40 -1 l 40 92 m 67 1110 b 258 1297 67 1212 116 1297 b 448 1110 399 1297 448 1212 l 360 1110 b 258 1217 360 1172 338 1217 b 155 1110 178 1217 155 1172 l 67 1110 "},"ȋ":{"ha":333,"x_min":0,"x_max":0,"o":"m 228 703 l 228 0 l 104 0 l 104 703 m -20 819 b 170 1005 -20 920 28 1005 b 360 819 312 1005 360 920 l 273 819 b 170 925 273 881 250 925 b 67 819 90 925 67 881 "},"Ȍ":{"ha":1112,"x_min":0,"x_max":0,"o":"m 556 -10 b 65 498 265 -10 65 199 b 556 1006 65 796 265 1006 b 1047 498 849 1006 1047 796 b 556 -10 1047 199 849 -10 m 203 498 b 556 106 203 253 343 106 b 908 498 770 106 908 253 b 556 890 908 742 770 890 b 203 498 343 890 203 742 m 221 1263 l 315 1263 b 378 1232 345 1263 363 1251 l 507 1074 l 440 1074 b 394 1092 422 1074 408 1079 m 480 1263 l 561 1263 b 622 1232 591 1263 608 1251 l 724 1074 l 665 1074 b 622 1092 646 1074 635 1079 "},"ȍ":{"ha":788,"x_min":0,"x_max":0,"o":"m 58 353 b 394 715 58 574 189 715 b 729 353 600 715 729 574 b 394 -10 729 131 600 -10 b 58 353 189 -10 58 131 m 394 618 b 186 352 254 618 186 519 b 394 87 186 185 255 87 b 601 352 533 87 601 185 b 394 618 601 519 533 618 m 97 1006 l 188 1006 b 242 976 218 1006 228 996 l 367 808 l 308 808 b 265 827 289 808 278 813 m 397 1006 b 451 976 427 1006 440 997 l 547 808 l 496 808 b 453 827 476 808 464 813 l 315 1006 "},"Ȏ":{"ha":1112,"x_min":0,"x_max":0,"o":"m 556 -10 b 65 498 265 -10 65 199 b 556 1006 65 796 265 1006 b 1047 498 849 1006 1047 796 b 556 -10 1047 199 849 -10 m 203 498 b 556 106 203 253 343 106 b 908 498 770 106 908 253 b 556 890 908 742 770 890 b 203 498 343 890 203 742 m 349 1073 b 557 1256 349 1197 426 1256 b 765 1073 688 1256 765 1190 l 669 1073 b 557 1180 669 1140 640 1180 b 444 1073 474 1180 444 1140 "},"ȏ":{"ha":788,"x_min":0,"x_max":0,"o":"m 58 353 b 394 715 58 574 189 715 b 729 353 600 715 729 574 b 394 -10 729 131 600 -10 b 58 353 189 -10 58 131 m 394 618 b 186 352 254 618 186 519 b 394 87 186 185 255 87 b 601 352 533 87 601 185 b 394 618 601 519 533 618 m 205 819 b 395 1005 205 920 253 1005 b 585 819 537 1005 585 920 l 498 819 b 395 925 498 881 475 925 b 292 819 315 925 292 881 l 205 819 "},"Ȑ":{"ha":870,"x_min":0,"x_max":0,"o":"m 408 995 b 773 719 660 995 773 890 b 528 438 773 578 681 473 b 572 395 545 428 560 414 l 863 0 l 743 0 b 689 28 719 0 701 10 l 431 384 b 364 415 415 407 401 415 l 262 415 l 262 0 l 127 0 l 127 995 m 262 513 l 403 513 b 642 710 559 513 642 593 b 408 890 642 829 564 890 l 262 890 m 78 1263 l 172 1263 b 235 1232 202 1263 219 1251 l 364 1074 l 297 1074 b 251 1092 278 1074 265 1079 m 337 1263 l 418 1263 b 478 1232 448 1263 465 1251 l 581 1074 l 522 1074 b 479 1092 503 1074 492 1079 "},"ȑ":{"ha":506,"x_min":0,"x_max":0,"o":"m 97 0 l 97 703 l 168 703 b 206 670 195 703 203 694 l 215 563 b 415 716 259 659 322 716 b 494 697 445 716 474 710 l 485 604 b 464 587 483 592 476 587 b 394 595 451 587 424 595 b 221 443 303 595 258 541 l 221 0 m 84 1006 b 139 976 115 1006 125 996 l 264 808 l 205 808 b 162 827 185 808 175 813 l -6 1006 m 211 1006 l 294 1006 b 348 976 324 1006 337 997 l 444 808 l 392 808 b 349 827 373 808 360 813 "},"Ȓ":{"ha":870,"x_min":0,"x_max":0,"o":"m 408 995 b 773 719 660 995 773 890 b 528 438 773 578 681 473 b 572 395 545 428 560 414 l 863 0 l 743 0 b 689 28 719 0 701 10 l 431 384 b 364 415 415 407 401 415 l 262 415 l 262 0 l 127 0 l 127 995 m 262 890 l 262 513 l 403 513 b 642 710 559 513 642 593 b 408 890 642 829 564 890 m 206 1073 b 414 1256 206 1197 283 1256 b 622 1073 545 1256 622 1190 l 526 1073 b 414 1180 526 1140 497 1180 b 301 1073 331 1180 301 1140 l 206 1073 "},"ȓ":{"ha":506,"x_min":0,"x_max":0,"o":"m 97 703 l 168 703 b 206 670 195 703 203 694 l 215 563 b 415 716 259 659 322 716 b 494 697 445 716 474 710 l 485 604 b 464 587 483 592 476 587 b 394 595 451 587 424 595 b 221 443 303 595 258 541 l 221 0 l 97 0 m 101 819 b 292 1005 101 920 150 1005 b 482 819 433 1005 482 920 l 394 819 b 292 925 394 881 372 925 b 189 819 212 925 189 881 "},"Ȕ":{"ha":1022,"x_min":0,"x_max":0,"o":"m 249 994 l 249 391 b 511 106 249 224 347 106 b 773 390 676 106 773 224 l 773 994 l 908 994 l 908 390 b 511 -12 908 160 756 -12 b 115 390 266 -12 115 160 l 115 994 m 175 1263 l 269 1263 b 333 1232 299 1263 317 1251 l 461 1074 l 394 1074 b 348 1092 376 1074 363 1079 m 434 1263 l 515 1263 b 576 1232 545 1263 563 1251 l 678 1074 l 619 1074 b 576 1092 600 1074 590 1079 "},"ȕ":{"ha":774,"x_min":0,"x_max":0,"o":"m 215 703 l 215 255 b 363 87 215 149 263 87 b 553 185 435 87 499 124 l 553 703 l 676 703 l 676 0 l 603 0 b 569 26 585 0 574 8 l 560 102 b 326 -11 499 33 425 -11 b 91 255 173 -11 91 96 l 91 703 m 181 1006 b 235 976 211 1006 222 996 l 360 808 l 301 808 b 258 827 282 808 272 813 l 90 1006 m 308 1006 l 390 1006 b 444 976 420 1006 433 997 l 540 808 l 489 808 b 446 827 469 808 457 813 "},"Ȗ":{"ha":1022,"x_min":0,"x_max":0,"o":"m 115 994 l 249 994 l 249 391 b 511 106 249 224 347 106 b 773 390 676 106 773 224 l 773 994 l 908 994 l 908 390 b 511 -12 908 160 756 -12 b 115 390 266 -12 115 160 m 303 1073 b 511 1256 303 1197 380 1256 b 719 1073 642 1256 719 1190 l 623 1073 b 511 1180 623 1140 594 1180 b 399 1073 428 1180 399 1140 "},"ȗ":{"ha":774,"x_min":0,"x_max":0,"o":"m 326 -11 b 91 255 173 -11 91 96 l 91 703 l 215 703 l 215 255 b 363 87 215 149 263 87 b 553 185 435 87 499 124 l 553 703 l 676 703 l 676 0 l 603 0 b 569 26 585 0 574 8 l 560 102 b 326 -11 499 33 425 -11 m 198 819 b 388 1005 198 920 247 1005 b 578 819 530 1005 578 920 l 491 819 b 388 925 491 881 468 925 b 285 819 308 925 285 881 "},"Ș":{"ha":753,"x_min":0,"x_max":0,"o":"m 636 840 b 605 819 628 826 618 819 b 398 895 573 819 525 895 b 214 740 278 895 214 826 b 691 302 214 516 691 629 b 358 -11 691 127 569 -11 b 46 119 228 -11 120 39 l 84 183 b 116 200 92 193 103 200 b 362 100 153 200 209 100 b 565 283 490 100 565 174 b 88 733 565 524 88 380 b 397 1006 88 874 199 1006 b 669 903 508 1006 599 970 m 396 -67 b 419 -90 417 -67 419 -78 b 375 -245 419 -106 412 -149 b 331 -270 366 -265 353 -270 l 288 -270 l 322 -67 "},"ș":{"ha":601,"x_min":0,"x_max":0,"o":"m 508 588 b 482 572 501 577 493 572 b 318 622 454 572 415 622 b 183 520 235 622 183 577 b 547 215 183 376 547 442 b 281 -11 547 86 452 -11 b 47 75 183 -11 102 24 l 76 122 b 108 140 83 133 92 140 b 288 77 142 140 175 77 b 431 194 385 77 431 131 b 65 510 431 349 65 268 b 315 714 65 619 156 714 b 535 633 408 714 482 683 m 330 -67 b 353 -90 351 -67 353 -78 b 309 -245 353 -106 346 -149 b 265 -270 300 -265 288 -270 l 222 -270 l 256 -67 "},"Ț":{"ha":820,"x_min":0,"x_max":0,"o":"m 21 883 l 21 994 l 800 994 l 800 883 l 478 883 l 478 0 l 344 0 l 344 883 m 375 -67 l 449 -67 b 473 -90 471 -67 473 -78 b 428 -245 473 -106 465 -149 b 384 -270 419 -265 407 -270 l 341 -270 "},"ț":{"ha":497,"x_min":0,"x_max":0,"o":"m 144 691 l 172 908 b 201 932 175 922 185 932 l 263 932 l 263 690 l 466 690 l 466 600 l 263 600 l 263 177 b 340 90 263 118 295 90 b 428 124 393 90 414 124 b 447 112 437 124 441 119 l 483 53 b 312 -11 440 13 376 -11 b 140 169 201 -11 140 52 l 140 600 l 55 600 b 28 627 40 600 28 610 l 28 676 m 272 -67 l 346 -67 b 369 -90 367 -67 369 -78 b 325 -245 369 -106 362 -149 b 281 -270 316 -265 303 -270 l 238 -270 "},"Ȝ":{"ha":815,"x_min":0,"x_max":0,"o":"m 367 -10 b 36 141 230 -10 109 48 l 89 199 b 112 210 98 210 106 210 b 144 194 122 210 128 208 b 365 103 174 160 246 103 b 615 328 525 103 615 207 b 356 515 615 434 547 515 l 243 515 l 243 572 b 263 617 243 586 248 602 l 537 885 l 65 885 l 65 994 l 724 994 l 724 945 b 703 894 724 929 722 912 l 413 613 b 752 335 656 606 752 488 b 367 -10 752 125 576 -10 "},"ȝ":{"ha":610,"x_min":0,"x_max":0,"o":"m 228 -253 b -11 -168 117 -253 44 -218 l 18 -121 b 49 -103 26 -109 36 -103 b 230 -161 85 -103 117 -161 b 442 50 360 -161 442 -81 b 242 238 442 162 382 238 l 119 238 l 119 278 b 136 313 119 291 125 303 l 374 607 l 24 607 l 24 703 l 523 703 l 523 651 b 499 597 523 630 512 612 l 269 322 b 564 58 472 315 564 209 b 228 -253 564 -116 445 -253 "},"Ȟ":{"ha":1060,"x_min":0,"x_max":0,"o":"m 127 -1 l 127 994 l 263 994 l 263 551 l 799 551 l 799 994 l 934 994 l 934 -1 l 799 -1 l 799 453 l 263 453 l 263 -1 m 310 1262 l 401 1262 b 440 1246 412 1262 429 1262 l 525 1140 b 533 1128 528 1135 531 1132 b 542 1140 536 1132 539 1135 l 626 1246 b 666 1262 638 1262 655 1262 l 756 1262 l 591 1074 l 476 1074 "},"ȟ":{"ha":775,"x_min":0,"x_max":0,"o":"m 98 1022 l 222 1022 l 222 609 b 448 714 282 673 353 714 b 683 448 603 714 683 608 l 683 0 l 560 0 l 560 448 b 412 616 560 554 512 616 b 222 517 339 616 275 578 l 222 0 l 98 0 m 31 1262 b 70 1246 42 1262 59 1262 l 155 1140 b 163 1128 158 1135 160 1132 b 172 1140 166 1132 169 1135 l 256 1246 b 296 1262 267 1262 285 1262 l 386 1262 l 221 1074 l 106 1074 l -60 1262 "},"Ƞ":{"ha":1014,"x_min":0,"x_max":0,"o":"m 127 0 l 127 1001 l 224 1001 b 257 963 240 1001 256 985 l 260 846 b 584 1005 371 968 460 1005 b 897 676 770 1005 897 863 l 897 -239 l 762 -239 l 762 672 b 551 890 762 806 690 890 b 263 723 428 890 342 826 l 263 0 "},"ȡ":{"ha":894,"x_min":0,"x_max":0,"o":"m 326 -10 b 60 349 164 -10 60 115 b 364 716 60 557 174 716 b 556 633 450 716 508 686 l 556 1023 l 680 1023 l 680 50 b 682 -6 680 30 681 11 b 815 40 722 24 765 40 b 964 -101 915 40 962 -30 b 799 -248 966 -174 917 -248 b 643 -174 726 -248 678 -221 b 614 -231 633 -192 624 -210 b 590 -249 606 -242 598 -249 b 567 -240 583 -249 576 -246 l 528 -214 b 601 -92 551 -169 574 -127 b 569 38 588 -53 578 -10 l 561 111 b 326 -10 502 38 426 -10 m 188 349 b 367 90 188 166 253 90 b 556 197 447 90 506 128 l 556 537 b 392 620 511 598 458 620 b 188 349 260 620 188 522 m 807 -40 b 700 -92 765 -40 731 -60 b 803 -169 722 -146 756 -169 b 883 -104 855 -169 883 -142 b 807 -40 883 -71 860 -40 "},"Ȣ":{"ha":887,"x_min":0,"x_max":0,"o":"m 72 280 b 324 570 72 442 192 513 b 97 847 202 626 97 699 b 148 995 97 899 110 944 l 243 995 b 263 955 265 995 274 976 b 231 847 244 927 231 891 b 459 626 231 731 337 676 b 663 848 570 674 663 733 b 631 953 663 890 650 926 b 659 995 620 976 628 995 l 742 995 b 790 847 776 951 790 897 b 567 580 790 706 687 635 b 815 280 697 522 815 444 b 444 -11 815 102 679 -11 b 72 280 208 -11 72 102 m 434 524 b 203 292 311 472 203 414 b 444 96 203 158 302 96 b 683 292 585 96 683 158 b 434 524 683 415 565 470 "},"ȣ":{"ha":737,"x_min":0,"x_max":0,"o":"m 53 272 b 276 568 53 438 161 509 b 72 848 169 627 72 697 b 111 995 72 899 83 945 l 200 995 b 221 955 220 995 228 978 b 198 853 208 927 198 892 b 383 623 198 733 283 674 b 546 851 472 673 546 732 b 523 954 546 890 538 926 b 552 995 517 977 522 995 l 628 995 b 664 847 652 953 664 897 b 460 583 664 705 568 640 b 684 280 575 522 684 450 b 368 -11 684 102 563 -11 b 53 272 174 -11 53 102 m 354 526 b 179 275 259 472 179 406 b 368 85 179 147 265 85 b 558 269 472 85 558 147 b 354 526 558 406 462 469 "},"Ȥ":{"ha":847,"x_min":0,"x_max":0,"o":"m 38 53 b 51 92 38 67 42 80 l 615 885 l 63 885 l 63 994 l 792 994 l 792 945 b 777 901 792 931 787 915 l 214 109 l 803 109 l 803 -9 b 584 -253 803 -152 738 -253 b 465 -228 542 -253 506 -246 l 478 -175 b 507 -151 484 -155 497 -151 b 573 -161 518 -151 540 -161 b 684 -28 650 -161 684 -106 l 684 0 l 38 0 "},"ȥ":{"ha":644,"x_min":0,"x_max":0,"o":"m 40 0 l 40 51 b 58 96 40 63 47 81 l 440 607 l 62 607 l 62 703 l 583 703 l 583 651 b 567 604 583 634 577 616 l 186 97 l 601 97 l 601 -37 b 418 -254 601 -152 552 -254 b 308 -229 381 -254 349 -247 l 317 -180 b 346 -155 323 -158 335 -155 b 411 -165 358 -155 380 -165 b 493 -47 470 -165 493 -125 l 493 0 "},"Ȧ":{"ha":940,"x_min":0,"x_max":0,"o":"m 4 0 l 402 995 l 538 995 l 936 0 l 832 0 b 786 32 808 0 794 13 l 693 273 l 247 273 l 154 32 b 108 0 148 16 131 0 m 656 369 l 499 776 b 470 868 490 800 479 832 b 441 775 460 832 450 799 l 285 369 m 468 1088 b 385 1172 424 1088 385 1128 b 468 1257 385 1218 424 1257 b 554 1172 515 1257 554 1218 b 468 1088 554 1128 515 1088 "},"ȧ":{"ha":690,"x_min":0,"x_max":0,"o":"m 243 -11 b 45 176 134 -11 45 50 b 479 395 45 289 160 388 l 479 450 b 340 616 479 559 431 616 b 139 542 219 616 181 542 b 102 565 122 542 110 551 l 80 604 b 355 715 158 678 246 715 b 600 450 513 715 600 608 l 600 0 l 545 0 b 502 29 521 0 510 6 l 488 96 b 243 -11 415 28 351 -11 m 164 182 b 279 76 164 107 215 76 b 479 171 366 76 423 113 l 479 317 b 164 182 251 310 164 259 m 339 842 b 252 930 292 842 252 882 b 339 1018 252 978 292 1018 b 428 930 386 1018 428 978 b 339 842 428 882 386 842 "},"Ȩ":{"ha":802,"x_min":0,"x_max":0,"o":"m 127 994 l 740 994 l 740 885 l 263 885 l 263 555 l 649 555 l 649 449 l 263 449 l 263 109 l 741 109 l 740 0 l 492 0 l 477 -52 b 599 -151 563 -69 599 -101 b 449 -248 599 -211 538 -248 b 347 -226 410 -248 376 -240 l 359 -187 b 375 -176 362 -180 367 -176 b 442 -192 386 -176 403 -192 b 501 -150 481 -192 501 -174 b 390 -95 501 -114 461 -104 l 422 0 l 127 0 "},"ȩ":{"ha":733,"x_min":0,"x_max":0,"o":"m 58 367 b 386 714 58 563 181 714 b 680 401 555 714 680 600 b 650 352 680 362 673 352 l 180 352 b 403 88 185 174 269 88 b 610 156 527 88 579 156 b 634 144 621 156 628 151 l 669 99 b 424 -8 614 32 517 -2 l 412 -52 b 534 -151 498 -69 534 -101 b 383 -248 534 -211 472 -248 b 282 -226 345 -248 310 -240 l 294 -187 b 310 -176 297 -180 302 -176 b 377 -192 321 -176 338 -192 b 436 -150 416 -192 436 -174 b 324 -95 436 -114 396 -104 l 353 -8 b 58 367 180 10 58 141 m 389 624 b 184 428 269 624 201 551 l 569 428 b 389 624 569 543 502 624 "},"Ȫ":{"ha":1112,"x_min":0,"x_max":0,"o":"m 1047 498 b 556 -10 1047 199 849 -10 b 65 498 265 -10 65 199 b 556 1006 65 796 265 1006 b 1047 498 849 1006 1047 796 m 908 498 b 556 890 908 742 770 890 b 203 498 343 890 203 742 b 556 106 203 253 343 106 b 908 498 770 106 908 253 m 363 1364 l 751 1364 l 751 1291 l 363 1291 m 488 1157 b 410 1082 488 1116 452 1082 b 335 1157 372 1082 335 1116 b 410 1234 335 1199 372 1234 b 488 1157 452 1234 488 1199 m 778 1157 b 702 1082 778 1116 743 1082 b 626 1157 661 1082 626 1116 b 702 1234 626 1199 661 1234 b 778 1157 743 1234 778 1199 "},"ȫ":{"ha":788,"x_min":0,"x_max":0,"o":"m 394 715 b 729 353 600 715 729 574 b 394 -10 729 131 600 -10 b 58 353 189 -10 58 131 b 394 715 58 574 189 715 m 394 87 b 601 352 533 87 601 185 b 394 618 601 519 533 618 b 186 352 254 618 186 519 b 394 87 186 185 255 87 m 341 894 b 262 818 341 853 304 818 b 185 894 221 818 185 853 b 262 974 185 938 221 974 b 341 894 304 974 341 938 m 606 894 b 527 818 606 853 569 818 b 449 894 485 818 449 853 b 527 974 449 938 485 974 b 606 894 569 974 606 938 m 196 1153 l 594 1153 l 594 1072 l 196 1072 "},"Ȭ":{"ha":1112,"x_min":0,"x_max":0,"o":"m 1047 498 b 556 -10 1047 199 849 -10 b 65 498 265 -10 65 199 b 556 1006 65 796 265 1006 b 1047 498 849 1006 1047 796 m 908 498 b 556 890 908 742 770 890 b 203 498 343 890 203 742 b 556 106 203 253 343 106 b 908 498 770 106 908 253 m 363 1367 l 751 1367 l 751 1294 l 363 1294 m 644 1153 b 710 1223 687 1153 710 1189 l 785 1223 b 658 1072 785 1143 740 1072 b 478 1144 575 1072 530 1144 b 415 1074 437 1144 415 1108 l 338 1074 b 465 1226 338 1154 384 1226 b 644 1153 549 1226 592 1153 "},"ȭ":{"ha":788,"x_min":0,"x_max":0,"o":"m 394 715 b 729 353 600 715 729 574 b 394 -10 729 131 600 -10 b 58 353 189 -10 58 131 b 394 715 58 574 189 715 m 394 87 b 601 352 533 87 601 185 b 394 618 601 519 533 618 b 186 352 254 618 186 519 b 394 87 186 185 255 87 m 460 919 b 512 980 494 919 511 940 l 588 980 b 465 832 588 892 539 832 b 311 896 400 832 354 896 b 260 835 278 896 260 876 l 183 835 b 306 983 183 922 233 983 b 460 919 372 983 417 919 m 184 1152 l 583 1152 l 583 1072 l 184 1072 "},"Ȯ":{"ha":1112,"x_min":0,"x_max":0,"o":"m 1047 498 b 556 -10 1047 199 849 -10 b 65 498 265 -10 65 199 b 556 1006 65 796 265 1006 b 1047 498 849 1006 1047 796 m 908 498 b 556 890 908 742 770 890 b 203 498 343 890 203 742 b 556 106 203 253 343 106 b 908 498 770 106 908 253 m 641 1172 b 555 1088 641 1128 601 1088 b 472 1172 511 1088 472 1128 b 555 1257 472 1218 511 1257 b 641 1172 601 1257 641 1218 "},"ȯ":{"ha":788,"x_min":0,"x_max":0,"o":"m 394 715 b 729 353 600 715 729 574 b 394 -10 729 131 600 -10 b 58 353 189 -10 58 131 b 394 715 58 574 189 715 m 394 87 b 601 352 533 87 601 185 b 394 618 601 519 533 618 b 186 352 254 618 186 519 b 394 87 186 185 255 87 m 483 930 b 394 842 483 882 442 842 b 308 930 347 842 308 882 b 394 1018 308 978 347 1018 b 483 930 442 1018 483 978 "},"Ȱ":{"ha":1112,"x_min":0,"x_max":0,"o":"m 1047 498 b 556 -10 1047 199 849 -10 b 65 498 265 -10 65 199 b 556 1006 65 796 265 1006 b 1047 498 849 1006 1047 796 m 908 498 b 556 890 908 742 770 890 b 203 498 343 890 203 742 b 556 106 203 253 343 106 b 908 498 770 106 908 253 m 363 1386 l 751 1386 l 751 1313 l 363 1313 m 642 1172 b 556 1089 642 1128 602 1089 b 472 1172 512 1089 472 1128 b 556 1258 472 1219 512 1258 b 642 1172 602 1258 642 1219 "},"ȱ":{"ha":788,"x_min":0,"x_max":0,"o":"m 394 715 b 729 353 600 715 729 574 b 394 -10 729 131 600 -10 b 58 353 189 -10 58 131 b 394 715 58 574 189 715 m 394 87 b 601 352 533 87 601 185 b 394 618 601 519 533 618 b 186 352 254 618 186 519 b 394 87 186 185 255 87 m 196 1152 l 594 1152 l 594 1072 l 196 1072 m 483 930 b 394 842 483 882 442 842 b 308 930 347 842 308 882 b 394 1018 308 978 347 1018 b 483 930 442 1018 483 978 "},"Ȳ":{"ha":867,"x_min":0,"x_max":0,"o":"m 1 994 l 119 994 b 166 964 144 994 156 983 l 394 577 b 435 489 410 544 424 517 b 474 577 445 517 458 544 l 701 964 b 747 994 709 980 724 994 l 865 994 l 501 397 l 501 0 l 366 0 l 366 397 m 241 1176 l 628 1176 l 628 1103 l 241 1103 "},"ȳ":{"ha":716,"x_min":0,"x_max":0,"o":"m 15 703 l 122 703 b 160 678 143 703 155 691 l 348 233 b 367 172 356 213 362 192 b 388 234 373 194 380 214 l 570 678 b 607 703 576 692 591 703 l 705 703 l 313 -208 b 268 -238 304 -226 294 -238 l 176 -238 l 305 41 m 177 855 l 177 935 l 576 935 l 576 855 "},"ȴ":{"ha":383,"x_min":0,"x_max":0,"o":"m 74 -219 b 135 -115 93 -181 113 -146 b 101 70 113 -65 101 -4 l 101 1023 l 225 1023 l 225 45 b 227 -12 225 25 226 6 b 359 35 267 18 309 35 b 509 -107 459 35 507 -36 b 344 -253 511 -179 463 -253 b 183 -189 278 -253 224 -232 b 159 -236 174 -205 167 -220 b 135 -254 151 -248 143 -254 b 112 -246 128 -254 121 -251 m 352 -45 b 246 -98 310 -45 276 -65 b 348 -175 266 -151 301 -175 b 428 -110 400 -175 428 -148 b 352 -45 428 -76 406 -45 "},"ȵ":{"ha":837,"x_min":0,"x_max":0,"o":"m 98 703 l 172 703 b 205 678 190 703 201 694 l 215 601 b 448 714 276 668 349 714 b 683 448 603 714 683 608 l 683 44 b 685 -12 683 24 684 5 b 819 35 725 17 769 35 b 968 -106 919 35 966 -34 b 801 -254 970 -178 922 -254 b 641 -190 736 -254 683 -233 b 617 -237 633 -206 625 -220 b 593 -255 610 -249 601 -255 b 570 -247 587 -255 579 -252 l 533 -220 b 593 -115 551 -182 572 -147 b 560 70 572 -65 560 -4 l 560 448 b 413 616 560 554 512 616 b 222 519 340 616 275 579 l 222 1 l 98 1 m 811 -45 b 704 -99 769 -45 735 -65 b 806 -176 724 -151 759 -176 b 887 -110 859 -176 887 -149 b 811 -45 887 -77 865 -45 "},"ȶ":{"ha":512,"x_min":0,"x_max":0,"o":"m 149 691 l 177 908 b 206 932 180 922 190 932 l 268 932 l 268 690 l 472 690 l 472 600 l 268 600 l 268 44 b 270 -12 268 24 269 5 b 403 35 310 17 353 35 b 553 -108 503 35 551 -36 b 387 -254 555 -180 506 -254 b 226 -190 321 -254 267 -233 b 202 -237 217 -206 210 -221 b 178 -255 194 -249 186 -255 b 155 -247 172 -255 164 -252 l 117 -220 b 178 -115 136 -182 156 -147 b 144 70 156 -65 144 -4 l 144 600 l 60 600 b 33 627 45 600 33 610 l 33 676 m 396 -45 b 289 -99 354 -45 319 -65 b 391 -176 309 -151 344 -176 b 472 -110 444 -176 472 -149 b 396 -45 472 -77 449 -45 "},"ȷ":{"ha":334,"x_min":0,"x_max":0,"o":"m 228 703 l 228 -53 b 30 -253 228 -164 172 -253 b -49 -239 -1 -253 -24 -248 l -44 -173 b -22 -159 -42 -161 -36 -159 b 5 -160 -15 -159 -7 -160 b 105 -53 77 -160 105 -128 l 105 703 "},"ȸ":{"ha":1236,"x_min":0,"x_max":0,"o":"m 326 -10 b 60 349 164 -10 60 115 b 364 716 60 557 174 716 b 556 633 450 716 508 686 l 556 1023 l 680 1023 l 680 601 b 910 715 738 670 813 715 b 1176 356 1072 715 1176 590 b 872 -10 1176 149 1063 -10 b 665 102 777 -10 715 32 l 627 0 l 603 0 b 573 26 588 0 578 8 l 562 111 b 326 -10 501 39 426 -10 m 188 349 b 367 90 188 166 253 90 b 556 197 447 90 506 128 l 556 537 b 392 620 511 598 458 620 b 188 349 260 620 188 522 m 680 169 b 844 86 726 108 778 86 b 1049 356 976 86 1049 183 b 869 617 1049 540 984 617 b 680 510 789 617 731 577 "},"ȹ":{"ha":1236,"x_min":0,"x_max":0,"o":"m 326 -11 b 60 347 163 -11 60 113 b 364 713 60 554 174 713 b 563 613 455 713 513 676 l 569 676 b 599 703 572 697 582 703 l 633 703 b 663 677 649 703 658 694 l 674 592 b 910 713 735 664 810 713 b 1176 353 1072 713 1176 588 b 872 -12 1176 147 1063 -12 b 680 70 786 -12 728 17 l 680 -237 l 556 -237 l 556 102 b 326 -11 498 33 424 -11 m 188 347 b 367 87 188 163 253 87 b 556 194 447 87 506 126 l 556 534 b 392 617 511 595 458 617 b 188 347 260 617 188 519 m 680 167 b 845 83 726 106 778 83 b 1049 353 976 83 1049 181 b 869 613 1049 538 984 613 b 680 507 789 613 731 574 "},"Ⱥ":{"ha":947,"x_min":0,"x_max":0,"o":"m 402 995 l 538 995 l 628 769 l 802 1006 b 860 1040 821 1031 831 1040 l 930 1040 l 665 679 l 936 0 l 832 0 b 786 32 808 0 794 13 l 693 273 l 367 273 l 139 -37 b 63 -76 119 -65 90 -76 l 9 -76 l 65 0 l 4 0 m 546 656 l 499 776 b 470 868 490 800 479 832 b 441 775 460 832 450 799 l 285 369 l 335 369 m 438 369 l 656 369 l 581 565 m 265 273 l 247 273 l 228 222 "},"Ȼ":{"ha":943,"x_min":0,"x_max":0,"o":"m 821 1006 b 879 1040 840 1031 849 1040 l 949 1040 l 851 908 b 883 881 862 899 872 890 l 839 818 b 810 803 833 810 826 803 b 783 815 802 803 794 808 l 323 188 b 547 104 383 133 460 104 b 802 194 667 104 733 133 b 825 206 810 201 817 206 b 845 197 833 206 839 203 l 898 139 b 540 -11 817 44 703 -11 b 247 83 424 -11 324 23 l 158 -37 b 82 -76 138 -65 109 -76 l 28 -76 l 186 140 b 65 498 109 229 65 353 b 552 1006 65 798 263 1006 b 782 953 642 1006 717 987 m 712 857 b 551 890 674 875 623 890 b 203 498 347 890 203 743 b 268 252 203 399 227 316 "},"ȼ":{"ha":665,"x_min":0,"x_max":0,"o":"m 588 813 b 638 845 601 833 615 845 l 682 845 l 568 666 b 621 624 587 654 605 640 l 588 578 b 562 563 581 568 575 563 b 517 585 550 563 537 574 l 243 153 b 390 86 278 109 329 86 b 570 156 511 86 538 156 b 594 144 581 156 589 151 l 629 99 b 369 -10 568 24 471 -10 b 181 54 297 -10 232 13 l 77 -108 b 26 -141 64 -128 47 -141 l -17 -141 l 135 100 b 58 353 88 161 58 247 b 390 715 58 562 176 715 b 512 694 435 715 476 708 m 459 611 b 397 619 442 616 422 619 b 185 353 258 619 185 517 b 208 215 185 299 193 253 "},"Ƚ":{"ha":726,"x_min":0,"x_max":0,"o":"m 4 454 l 4 551 l 140 551 l 140 994 l 274 994 l 274 551 l 410 551 l 410 454 l 274 454 l 274 113 l 705 113 l 705 0 l 140 0 l 140 454 "},"Ⱦ":{"ha":843,"x_min":0,"x_max":0,"o":"m 759 1006 b 817 1040 778 1031 788 1040 l 887 1040 l 808 933 l 808 883 l 771 883 l 487 495 l 487 0 l 352 0 l 352 312 l 96 -37 b 20 -76 76 -65 47 -76 l -34 -76 l 352 451 l 352 883 l 29 883 l 29 994 l 751 994 m 669 883 l 487 883 l 487 635 "},"ȿ":{"ha":601,"x_min":0,"x_max":0,"o":"m 288 -106 b 47 75 190 19 133 -6 l 76 122 b 108 140 83 133 92 140 b 288 77 142 140 175 77 b 431 194 385 77 431 131 b 65 510 431 349 65 268 b 315 714 65 619 156 714 b 535 633 408 714 482 683 l 508 588 b 482 572 501 577 493 572 b 318 622 454 572 415 622 b 183 520 235 622 183 577 b 547 215 183 376 547 442 b 320 -9 547 97 467 4 b 368 -56 336 -22 352 -37 b 514 -144 415 -108 450 -144 b 578 -135 544 -144 566 -135 b 606 -159 588 -135 601 -137 l 619 -212 b 506 -237 578 -230 547 -237 b 288 -106 397 -237 360 -199 "},"ɀ":{"ha":594,"x_min":0,"x_max":0,"o":"m 41 51 b 58 96 41 63 47 81 l 441 607 l 63 607 l 63 703 l 584 703 l 584 651 b 567 604 584 634 578 616 l 186 97 b 588 -144 419 91 440 -144 b 651 -135 618 -144 640 -135 b 680 -159 662 -135 674 -137 l 693 -212 b 580 -237 652 -230 622 -237 b 418 -176 506 -237 458 -211 b 362 -119 398 -158 379 -139 b 237 -18 328 -78 289 -42 b 141 0 210 -6 178 0 l 41 0 "},"Ɂ":{"ha":663,"x_min":0,"x_max":0,"o":"m 1 893 b 274 1001 64 967 174 1001 b 613 673 468 1001 613 887 b 340 331 613 508 513 377 l 340 0 l 217 0 l 217 397 b 490 669 403 422 490 524 b 271 904 490 824 407 904 b 60 836 147 904 91 836 b 37 848 50 836 42 840 "},"ɂ":{"ha":638,"x_min":0,"x_max":0,"o":"m 8 602 b 292 710 60 663 172 710 b 592 451 472 710 592 604 b 347 163 592 310 490 204 l 347 0 l 224 0 l 224 228 b 469 442 369 249 469 321 b 278 613 469 542 402 613 b 67 545 153 613 98 545 b 44 557 57 545 49 549 "},"Ƀ":{"ha":910,"x_min":0,"x_max":0,"o":"m 6 236 l 6 333 l 139 333 l 139 995 l 456 995 b 807 735 701 995 807 897 b 621 513 807 640 746 551 b 840 283 765 485 840 408 b 491 0 840 115 713 0 l 139 0 l 139 236 m 274 236 l 274 106 l 489 106 b 708 287 642 106 708 181 b 488 454 708 390 635 454 l 274 454 l 274 333 l 411 333 l 411 236 m 274 549 l 451 549 b 673 719 603 549 673 619 b 456 890 673 836 604 890 l 274 890 "},"Ʉ":{"ha":1044,"x_min":0,"x_max":0,"o":"m 126 561 l 126 994 l 260 994 l 260 561 l 784 561 l 784 994 l 919 994 l 919 561 l 1041 561 l 1041 460 l 919 460 l 919 390 b 522 -12 919 160 767 -12 b 126 390 277 -12 126 160 l 126 460 l 3 460 l 3 561 m 260 391 b 522 106 260 224 358 106 b 784 390 687 106 784 224 l 784 460 l 260 460 "},"Ʌ":{"ha":938,"x_min":0,"x_max":0,"o":"m 3 0 l 408 994 l 530 994 l 935 0 l 820 0 b 774 32 796 0 782 13 l 493 735 b 460 844 481 766 470 803 b 429 735 451 803 441 766 l 149 32 b 103 0 143 15 126 0 "}}}
